<?xml version="1.0" encoding="utf-8" standalone="no"?>
<!DOCTYPE svg PUBLIC "-//W3C//DTD SVG 1.1//EN"
  "http://www.w3.org/Graphics/SVG/1.1/DTD/svg11.dtd">
<svg xmlns:xlink="http://www.w3.org/1999/xlink" width="720pt" height="288pt" viewBox="0 0 720 288" xmlns="http://www.w3.org/2000/svg" version="1.1">
 <metadata>
  <rdf:RDF xmlns:dc="http://purl.org/dc/elements/1.1/" xmlns:cc="http://creativecommons.org/ns#" xmlns:rdf="http://www.w3.org/1999/02/22-rdf-syntax-ns#">
   <cc:Work>
    <dc:type rdf:resource="http://purl.org/dc/dcmitype/StillImage"/>
    <dc:date>2025-06-12T17:10:33.746999</dc:date>
    <dc:format>image/svg+xml</dc:format>
    <dc:creator>
     <cc:Agent>
      <dc:title>Matplotlib v3.7.2, https://matplotlib.org/</dc:title>
     </cc:Agent>
    </dc:creator>
   </cc:Work>
  </rdf:RDF>
 </metadata>
 <defs>
  <style type="text/css">*{stroke-linejoin: round; stroke-linecap: butt}</style>
 </defs>
 <g id="figure_1">
  <g id="patch_1">
   <path d="M 0 288 
L 720 288 
L 720 0 
L 0 0 
z
" style="fill: #ffffff"/>
  </g>
  <g id="axes_1">
   <g id="patch_2">
    <path d="M 54.2 194.456746 
L 352.528721 194.456746 
L 352.528721 25.44 
L 54.2 25.44 
z
" style="fill: #ffffff"/>
   </g>
   <g id="patch_3">
    <path d="M 67.760396 194.456746 
L 124.856802 194.456746 
L 124.856802 84.423344 
L 67.760396 84.423344 
z
" clip-path="url(#pd86ebb36ae)" style="fill: #00468b"/>
   </g>
   <g id="patch_4">
    <path d="M 139.130904 194.456746 
L 196.22731 194.456746 
L 196.22731 73.63676 
L 139.130904 73.63676 
z
" clip-path="url(#pd86ebb36ae)" style="fill: #00468b"/>
   </g>
   <g id="patch_5">
    <path d="M 210.501411 194.456746 
L 267.597817 194.456746 
L 267.597817 50.114978 
L 210.501411 50.114978 
z
" clip-path="url(#pd86ebb36ae)" style="fill: #00468b"/>
   </g>
   <g id="patch_6">
    <path d="M 281.871919 194.456746 
L 338.968325 194.456746 
L 338.968325 33.488416 
L 281.871919 33.488416 
z
" clip-path="url(#pd86ebb36ae)" style="fill: #00468b"/>
   </g>
   <g id="matplotlib.axis_1">
    <g id="xtick_1">
     <g id="line2d_1">
      <defs>
       <path id="m4dc34db280" d="M 0 0 
L 0 3.5 
" style="stroke: #000000; stroke-width: 0.8"/>
      </defs>
      <g>
       <use xlink:href="#m4dc34db280" x="96.308599" y="194.456746" style="stroke: #000000; stroke-width: 0.8"/>
      </g>
     </g>
     <g id="text_1">
      <!-- $\beta=0 (parent)$ -->
      <g transform="translate(74.98933 253.499806) rotate(-45) scale(0.1 -0.1)">
       <defs>
        <path id="DejaVuSans-Oblique-3b2" d="M 872 216 
L 572 -1331 
L -6 -1331 
L 928 3478 
Q 1206 4903 2538 4903 
Q 3888 4903 3659 3700 
Q 3503 2844 2894 2531 
Q 3713 2250 3553 1416 
Q 3272 -69 1759 -66 
Q 1097 -63 872 216 
z
M 1019 966 
Q 1259 422 1875 425 
Q 2775 425 2966 1406 
Q 3138 2288 1675 2219 
L 1778 2750 
Q 2909 2731 3106 3750 
Q 3241 4438 2509 4434 
Q 1691 4434 1503 3459 
L 1019 966 
z
" transform="scale(0.015625)"/>
        <path id="DejaVuSans-3d" d="M 678 2906 
L 4684 2906 
L 4684 2381 
L 678 2381 
L 678 2906 
z
M 678 1631 
L 4684 1631 
L 4684 1100 
L 678 1100 
L 678 1631 
z
" transform="scale(0.015625)"/>
        <path id="DejaVuSans-30" d="M 2034 4250 
Q 1547 4250 1301 3770 
Q 1056 3291 1056 2328 
Q 1056 1369 1301 889 
Q 1547 409 2034 409 
Q 2525 409 2770 889 
Q 3016 1369 3016 2328 
Q 3016 3291 2770 3770 
Q 2525 4250 2034 4250 
z
M 2034 4750 
Q 2819 4750 3233 4129 
Q 3647 3509 3647 2328 
Q 3647 1150 3233 529 
Q 2819 -91 2034 -91 
Q 1250 -91 836 529 
Q 422 1150 422 2328 
Q 422 3509 836 4129 
Q 1250 4750 2034 4750 
z
" transform="scale(0.015625)"/>
        <path id="DejaVuSans-28" d="M 1984 4856 
Q 1566 4138 1362 3434 
Q 1159 2731 1159 2009 
Q 1159 1288 1364 580 
Q 1569 -128 1984 -844 
L 1484 -844 
Q 1016 -109 783 600 
Q 550 1309 550 2009 
Q 550 2706 781 3412 
Q 1013 4119 1484 4856 
L 1984 4856 
z
" transform="scale(0.015625)"/>
        <path id="DejaVuSans-Oblique-70" d="M 3175 2156 
Q 3175 2616 2975 2859 
Q 2775 3103 2400 3103 
Q 2144 3103 1911 2972 
Q 1678 2841 1497 2591 
Q 1319 2344 1212 1994 
Q 1106 1644 1106 1300 
Q 1106 863 1306 627 
Q 1506 391 1875 391 
Q 2147 391 2380 519 
Q 2613 647 2778 891 
Q 2956 1147 3065 1494 
Q 3175 1841 3175 2156 
z
M 1394 2969 
Q 1625 3272 1939 3428 
Q 2253 3584 2638 3584 
Q 3175 3584 3472 3232 
Q 3769 2881 3769 2247 
Q 3769 1728 3584 1258 
Q 3400 788 3053 416 
Q 2822 169 2531 39 
Q 2241 -91 1919 -91 
Q 1547 -91 1294 64 
Q 1041 219 916 525 
L 556 -1331 
L -19 -1331 
L 922 3500 
L 1497 3500 
L 1394 2969 
z
" transform="scale(0.015625)"/>
        <path id="DejaVuSans-Oblique-61" d="M 3438 1997 
L 3047 0 
L 2472 0 
L 2578 531 
Q 2325 219 2001 64 
Q 1678 -91 1281 -91 
Q 834 -91 548 182 
Q 263 456 263 884 
Q 263 1497 752 1853 
Q 1241 2209 2100 2209 
L 2900 2209 
L 2931 2363 
Q 2938 2388 2941 2417 
Q 2944 2447 2944 2509 
Q 2944 2788 2717 2942 
Q 2491 3097 2081 3097 
Q 1800 3097 1504 3025 
Q 1209 2953 897 2809 
L 997 3341 
Q 1322 3463 1633 3523 
Q 1944 3584 2234 3584 
Q 2853 3584 3176 3315 
Q 3500 3047 3500 2534 
Q 3500 2431 3484 2292 
Q 3469 2153 3438 1997 
z
M 2816 1759 
L 2241 1759 
Q 1534 1759 1195 1570 
Q 856 1381 856 984 
Q 856 709 1029 553 
Q 1203 397 1509 397 
Q 1978 397 2328 733 
Q 2678 1069 2791 1631 
L 2816 1759 
z
" transform="scale(0.015625)"/>
        <path id="DejaVuSans-Oblique-72" d="M 2853 2969 
Q 2766 3016 2653 3041 
Q 2541 3066 2413 3066 
Q 1953 3066 1609 2717 
Q 1266 2369 1153 1784 
L 800 0 
L 225 0 
L 909 3500 
L 1484 3500 
L 1375 2956 
Q 1603 3259 1920 3421 
Q 2238 3584 2597 3584 
Q 2691 3584 2781 3573 
Q 2872 3563 2963 3538 
L 2853 2969 
z
" transform="scale(0.015625)"/>
        <path id="DejaVuSans-Oblique-65" d="M 3078 2063 
Q 3088 2113 3092 2166 
Q 3097 2219 3097 2272 
Q 3097 2653 2873 2875 
Q 2650 3097 2266 3097 
Q 1838 3097 1509 2826 
Q 1181 2556 1013 2059 
L 3078 2063 
z
M 3578 1613 
L 903 1613 
Q 884 1494 878 1425 
Q 872 1356 872 1306 
Q 872 872 1139 634 
Q 1406 397 1894 397 
Q 2269 397 2603 481 
Q 2938 566 3225 728 
L 3116 159 
Q 2806 34 2476 -28 
Q 2147 -91 1806 -91 
Q 1078 -91 686 257 
Q 294 606 294 1247 
Q 294 1794 489 2264 
Q 684 2734 1063 3103 
Q 1306 3334 1642 3459 
Q 1978 3584 2356 3584 
Q 2950 3584 3301 3228 
Q 3653 2872 3653 2272 
Q 3653 2128 3634 1964 
Q 3616 1800 3578 1613 
z
" transform="scale(0.015625)"/>
        <path id="DejaVuSans-Oblique-6e" d="M 3566 2113 
L 3156 0 
L 2578 0 
L 2988 2091 
Q 3016 2238 3031 2350 
Q 3047 2463 3047 2528 
Q 3047 2791 2881 2937 
Q 2716 3084 2419 3084 
Q 1956 3084 1622 2776 
Q 1288 2469 1184 1941 
L 800 0 
L 225 0 
L 903 3500 
L 1478 3500 
L 1363 2950 
Q 1603 3253 1940 3418 
Q 2278 3584 2650 3584 
Q 3113 3584 3367 3334 
Q 3622 3084 3622 2631 
Q 3622 2519 3608 2391 
Q 3594 2263 3566 2113 
z
" transform="scale(0.015625)"/>
        <path id="DejaVuSans-Oblique-74" d="M 2706 3500 
L 2619 3053 
L 1472 3053 
L 1100 1153 
Q 1081 1047 1072 975 
Q 1063 903 1063 863 
Q 1063 663 1183 572 
Q 1303 481 1569 481 
L 2150 481 
L 2053 0 
L 1503 0 
Q 991 0 739 200 
Q 488 400 488 806 
Q 488 878 497 964 
Q 506 1050 525 1153 
L 897 3053 
L 409 3053 
L 500 3500 
L 978 3500 
L 1172 4494 
L 1747 4494 
L 1556 3500 
L 2706 3500 
z
" transform="scale(0.015625)"/>
        <path id="DejaVuSans-29" d="M 513 4856 
L 1013 4856 
Q 1481 4119 1714 3412 
Q 1947 2706 1947 2009 
Q 1947 1309 1714 600 
Q 1481 -109 1013 -844 
L 513 -844 
Q 928 -128 1133 580 
Q 1338 1288 1338 2009 
Q 1338 2731 1133 3434 
Q 928 4138 513 4856 
z
" transform="scale(0.015625)"/>
       </defs>
       <use xlink:href="#DejaVuSans-Oblique-3b2" transform="translate(0 0.390625)"/>
       <use xlink:href="#DejaVuSans-3d" transform="translate(83.300781 0.390625)"/>
       <use xlink:href="#DejaVuSans-30" transform="translate(186.572266 0.390625)"/>
       <use xlink:href="#DejaVuSans-28" transform="translate(250.195312 0.390625)"/>
       <use xlink:href="#DejaVuSans-Oblique-70" transform="translate(289.208984 0.390625)"/>
       <use xlink:href="#DejaVuSans-Oblique-61" transform="translate(352.685547 0.390625)"/>
       <use xlink:href="#DejaVuSans-Oblique-72" transform="translate(413.964844 0.390625)"/>
       <use xlink:href="#DejaVuSans-Oblique-65" transform="translate(455.078125 0.390625)"/>
       <use xlink:href="#DejaVuSans-Oblique-6e" transform="translate(516.601562 0.390625)"/>
       <use xlink:href="#DejaVuSans-Oblique-74" transform="translate(579.980469 0.390625)"/>
       <use xlink:href="#DejaVuSans-29" transform="translate(619.189453 0.390625)"/>
      </g>
     </g>
    </g>
    <g id="xtick_2">
     <g id="line2d_2">
      <g>
       <use xlink:href="#m4dc34db280" x="167.679107" y="194.456746" style="stroke: #000000; stroke-width: 0.8"/>
      </g>
     </g>
     <g id="text_2">
      <!-- $\beta=2.5 (parent)$ -->
      <g transform="translate(143.00108 260.21732) rotate(-45) scale(0.1 -0.1)">
       <defs>
        <path id="DejaVuSans-32" d="M 1228 531 
L 3431 531 
L 3431 0 
L 469 0 
L 469 531 
Q 828 903 1448 1529 
Q 2069 2156 2228 2338 
Q 2531 2678 2651 2914 
Q 2772 3150 2772 3378 
Q 2772 3750 2511 3984 
Q 2250 4219 1831 4219 
Q 1534 4219 1204 4116 
Q 875 4013 500 3803 
L 500 4441 
Q 881 4594 1212 4672 
Q 1544 4750 1819 4750 
Q 2544 4750 2975 4387 
Q 3406 4025 3406 3419 
Q 3406 3131 3298 2873 
Q 3191 2616 2906 2266 
Q 2828 2175 2409 1742 
Q 1991 1309 1228 531 
z
" transform="scale(0.015625)"/>
        <path id="DejaVuSans-2e" d="M 684 794 
L 1344 794 
L 1344 0 
L 684 0 
L 684 794 
z
" transform="scale(0.015625)"/>
        <path id="DejaVuSans-35" d="M 691 4666 
L 3169 4666 
L 3169 4134 
L 1269 4134 
L 1269 2991 
Q 1406 3038 1543 3061 
Q 1681 3084 1819 3084 
Q 2600 3084 3056 2656 
Q 3513 2228 3513 1497 
Q 3513 744 3044 326 
Q 2575 -91 1722 -91 
Q 1428 -91 1123 -41 
Q 819 9 494 109 
L 494 744 
Q 775 591 1075 516 
Q 1375 441 1709 441 
Q 2250 441 2565 725 
Q 2881 1009 2881 1497 
Q 2881 1984 2565 2268 
Q 2250 2553 1709 2553 
Q 1456 2553 1204 2497 
Q 953 2441 691 2322 
L 691 4666 
z
" transform="scale(0.015625)"/>
       </defs>
       <use xlink:href="#DejaVuSans-Oblique-3b2" transform="translate(0 0.390625)"/>
       <use xlink:href="#DejaVuSans-3d" transform="translate(83.300781 0.390625)"/>
       <use xlink:href="#DejaVuSans-32" transform="translate(186.572266 0.390625)"/>
       <use xlink:href="#DejaVuSans-2e" transform="translate(250.195312 0.390625)"/>
       <use xlink:href="#DejaVuSans-35" transform="translate(281.982422 0.390625)"/>
       <use xlink:href="#DejaVuSans-28" transform="translate(345.605469 0.390625)"/>
       <use xlink:href="#DejaVuSans-Oblique-70" transform="translate(384.619141 0.390625)"/>
       <use xlink:href="#DejaVuSans-Oblique-61" transform="translate(448.095703 0.390625)"/>
       <use xlink:href="#DejaVuSans-Oblique-72" transform="translate(509.375 0.390625)"/>
       <use xlink:href="#DejaVuSans-Oblique-65" transform="translate(550.488281 0.390625)"/>
       <use xlink:href="#DejaVuSans-Oblique-6e" transform="translate(612.011719 0.390625)"/>
       <use xlink:href="#DejaVuSans-Oblique-74" transform="translate(675.390625 0.390625)"/>
       <use xlink:href="#DejaVuSans-29" transform="translate(714.599609 0.390625)"/>
      </g>
     </g>
    </g>
    <g id="xtick_3">
     <g id="line2d_3">
      <g>
       <use xlink:href="#m4dc34db280" x="239.049614" y="194.456746" style="stroke: #000000; stroke-width: 0.8"/>
      </g>
     </g>
     <g id="text_3">
      <!-- $\beta=5$ (parent) -->
      <g transform="translate(216.634329 255.691837) rotate(-45) scale(0.1 -0.1)">
       <defs>
        <path id="DejaVuSans-20" transform="scale(0.015625)"/>
        <path id="DejaVuSans-70" d="M 1159 525 
L 1159 -1331 
L 581 -1331 
L 581 3500 
L 1159 3500 
L 1159 2969 
Q 1341 3281 1617 3432 
Q 1894 3584 2278 3584 
Q 2916 3584 3314 3078 
Q 3713 2572 3713 1747 
Q 3713 922 3314 415 
Q 2916 -91 2278 -91 
Q 1894 -91 1617 61 
Q 1341 213 1159 525 
z
M 3116 1747 
Q 3116 2381 2855 2742 
Q 2594 3103 2138 3103 
Q 1681 3103 1420 2742 
Q 1159 2381 1159 1747 
Q 1159 1113 1420 752 
Q 1681 391 2138 391 
Q 2594 391 2855 752 
Q 3116 1113 3116 1747 
z
" transform="scale(0.015625)"/>
        <path id="DejaVuSans-61" d="M 2194 1759 
Q 1497 1759 1228 1600 
Q 959 1441 959 1056 
Q 959 750 1161 570 
Q 1363 391 1709 391 
Q 2188 391 2477 730 
Q 2766 1069 2766 1631 
L 2766 1759 
L 2194 1759 
z
M 3341 1997 
L 3341 0 
L 2766 0 
L 2766 531 
Q 2569 213 2275 61 
Q 1981 -91 1556 -91 
Q 1019 -91 701 211 
Q 384 513 384 1019 
Q 384 1609 779 1909 
Q 1175 2209 1959 2209 
L 2766 2209 
L 2766 2266 
Q 2766 2663 2505 2880 
Q 2244 3097 1772 3097 
Q 1472 3097 1187 3025 
Q 903 2953 641 2809 
L 641 3341 
Q 956 3463 1253 3523 
Q 1550 3584 1831 3584 
Q 2591 3584 2966 3190 
Q 3341 2797 3341 1997 
z
" transform="scale(0.015625)"/>
        <path id="DejaVuSans-72" d="M 2631 2963 
Q 2534 3019 2420 3045 
Q 2306 3072 2169 3072 
Q 1681 3072 1420 2755 
Q 1159 2438 1159 1844 
L 1159 0 
L 581 0 
L 581 3500 
L 1159 3500 
L 1159 2956 
Q 1341 3275 1631 3429 
Q 1922 3584 2338 3584 
Q 2397 3584 2469 3576 
Q 2541 3569 2628 3553 
L 2631 2963 
z
" transform="scale(0.015625)"/>
        <path id="DejaVuSans-65" d="M 3597 1894 
L 3597 1613 
L 953 1613 
Q 991 1019 1311 708 
Q 1631 397 2203 397 
Q 2534 397 2845 478 
Q 3156 559 3463 722 
L 3463 178 
Q 3153 47 2828 -22 
Q 2503 -91 2169 -91 
Q 1331 -91 842 396 
Q 353 884 353 1716 
Q 353 2575 817 3079 
Q 1281 3584 2069 3584 
Q 2775 3584 3186 3129 
Q 3597 2675 3597 1894 
z
M 3022 2063 
Q 3016 2534 2758 2815 
Q 2500 3097 2075 3097 
Q 1594 3097 1305 2825 
Q 1016 2553 972 2059 
L 3022 2063 
z
" transform="scale(0.015625)"/>
        <path id="DejaVuSans-6e" d="M 3513 2113 
L 3513 0 
L 2938 0 
L 2938 2094 
Q 2938 2591 2744 2837 
Q 2550 3084 2163 3084 
Q 1697 3084 1428 2787 
Q 1159 2491 1159 1978 
L 1159 0 
L 581 0 
L 581 3500 
L 1159 3500 
L 1159 2956 
Q 1366 3272 1645 3428 
Q 1925 3584 2291 3584 
Q 2894 3584 3203 3211 
Q 3513 2838 3513 2113 
z
" transform="scale(0.015625)"/>
        <path id="DejaVuSans-74" d="M 1172 4494 
L 1172 3500 
L 2356 3500 
L 2356 3053 
L 1172 3053 
L 1172 1153 
Q 1172 725 1289 603 
Q 1406 481 1766 481 
L 2356 481 
L 2356 0 
L 1766 0 
Q 1100 0 847 248 
Q 594 497 594 1153 
L 594 3053 
L 172 3053 
L 172 3500 
L 594 3500 
L 594 4494 
L 1172 4494 
z
" transform="scale(0.015625)"/>
       </defs>
       <use xlink:href="#DejaVuSans-Oblique-3b2" transform="translate(0 0.390625)"/>
       <use xlink:href="#DejaVuSans-3d" transform="translate(83.300781 0.390625)"/>
       <use xlink:href="#DejaVuSans-35" transform="translate(186.572266 0.390625)"/>
       <use xlink:href="#DejaVuSans-20" transform="translate(250.195312 0.390625)"/>
       <use xlink:href="#DejaVuSans-28" transform="translate(281.982422 0.390625)"/>
       <use xlink:href="#DejaVuSans-70" transform="translate(320.996094 0.390625)"/>
       <use xlink:href="#DejaVuSans-61" transform="translate(384.472656 0.390625)"/>
       <use xlink:href="#DejaVuSans-72" transform="translate(445.751953 0.390625)"/>
       <use xlink:href="#DejaVuSans-65" transform="translate(486.865234 0.390625)"/>
       <use xlink:href="#DejaVuSans-6e" transform="translate(548.388672 0.390625)"/>
       <use xlink:href="#DejaVuSans-74" transform="translate(611.767578 0.390625)"/>
       <use xlink:href="#DejaVuSans-29" transform="translate(650.976562 0.390625)"/>
      </g>
     </g>
    </g>
    <g id="xtick_4">
     <g id="line2d_4">
      <g>
       <use xlink:href="#m4dc34db280" x="310.420122" y="194.456746" style="stroke: #000000; stroke-width: 0.8"/>
      </g>
     </g>
     <g id="text_4">
      <!-- $\beta=2.5$ (top strain) -->
      <g transform="translate(279.307423 273.086663) rotate(-45) scale(0.1 -0.1)">
       <defs>
        <path id="DejaVuSans-6f" d="M 1959 3097 
Q 1497 3097 1228 2736 
Q 959 2375 959 1747 
Q 959 1119 1226 758 
Q 1494 397 1959 397 
Q 2419 397 2687 759 
Q 2956 1122 2956 1747 
Q 2956 2369 2687 2733 
Q 2419 3097 1959 3097 
z
M 1959 3584 
Q 2709 3584 3137 3096 
Q 3566 2609 3566 1747 
Q 3566 888 3137 398 
Q 2709 -91 1959 -91 
Q 1206 -91 779 398 
Q 353 888 353 1747 
Q 353 2609 779 3096 
Q 1206 3584 1959 3584 
z
" transform="scale(0.015625)"/>
        <path id="DejaVuSans-73" d="M 2834 3397 
L 2834 2853 
Q 2591 2978 2328 3040 
Q 2066 3103 1784 3103 
Q 1356 3103 1142 2972 
Q 928 2841 928 2578 
Q 928 2378 1081 2264 
Q 1234 2150 1697 2047 
L 1894 2003 
Q 2506 1872 2764 1633 
Q 3022 1394 3022 966 
Q 3022 478 2636 193 
Q 2250 -91 1575 -91 
Q 1294 -91 989 -36 
Q 684 19 347 128 
L 347 722 
Q 666 556 975 473 
Q 1284 391 1588 391 
Q 1994 391 2212 530 
Q 2431 669 2431 922 
Q 2431 1156 2273 1281 
Q 2116 1406 1581 1522 
L 1381 1569 
Q 847 1681 609 1914 
Q 372 2147 372 2553 
Q 372 3047 722 3315 
Q 1072 3584 1716 3584 
Q 2034 3584 2315 3537 
Q 2597 3491 2834 3397 
z
" transform="scale(0.015625)"/>
        <path id="DejaVuSans-69" d="M 603 3500 
L 1178 3500 
L 1178 0 
L 603 0 
L 603 3500 
z
M 603 4863 
L 1178 4863 
L 1178 4134 
L 603 4134 
L 603 4863 
z
" transform="scale(0.015625)"/>
       </defs>
       <use xlink:href="#DejaVuSans-Oblique-3b2" transform="translate(0 0.390625)"/>
       <use xlink:href="#DejaVuSans-3d" transform="translate(83.300781 0.390625)"/>
       <use xlink:href="#DejaVuSans-32" transform="translate(186.572266 0.390625)"/>
       <use xlink:href="#DejaVuSans-2e" transform="translate(250.195312 0.390625)"/>
       <use xlink:href="#DejaVuSans-35" transform="translate(281.982422 0.390625)"/>
       <use xlink:href="#DejaVuSans-20" transform="translate(345.605469 0.390625)"/>
       <use xlink:href="#DejaVuSans-28" transform="translate(377.392578 0.390625)"/>
       <use xlink:href="#DejaVuSans-74" transform="translate(416.40625 0.390625)"/>
       <use xlink:href="#DejaVuSans-6f" transform="translate(455.615234 0.390625)"/>
       <use xlink:href="#DejaVuSans-70" transform="translate(516.796875 0.390625)"/>
       <use xlink:href="#DejaVuSans-20" transform="translate(580.273438 0.390625)"/>
       <use xlink:href="#DejaVuSans-73" transform="translate(612.060547 0.390625)"/>
       <use xlink:href="#DejaVuSans-74" transform="translate(664.160156 0.390625)"/>
       <use xlink:href="#DejaVuSans-72" transform="translate(703.369141 0.390625)"/>
       <use xlink:href="#DejaVuSans-61" transform="translate(744.482422 0.390625)"/>
       <use xlink:href="#DejaVuSans-69" transform="translate(805.761719 0.390625)"/>
       <use xlink:href="#DejaVuSans-6e" transform="translate(833.544922 0.390625)"/>
       <use xlink:href="#DejaVuSans-29" transform="translate(896.923828 0.390625)"/>
      </g>
     </g>
    </g>
   </g>
   <g id="matplotlib.axis_2">
    <g id="ytick_1">
     <g id="line2d_5">
      <defs>
       <path id="mec19922823" d="M 0 0 
L -3.5 0 
" style="stroke: #000000; stroke-width: 0.8"/>
      </defs>
      <g>
       <use xlink:href="#mec19922823" x="54.2" y="194.456746" style="stroke: #000000; stroke-width: 0.8"/>
      </g>
     </g>
     <g id="text_5">
      <!-- 0.00 -->
      <g transform="translate(24.934375 198.255965) scale(0.1 -0.1)">
       <use xlink:href="#DejaVuSans-30"/>
       <use xlink:href="#DejaVuSans-2e" x="63.623047"/>
       <use xlink:href="#DejaVuSans-30" x="95.410156"/>
       <use xlink:href="#DejaVuSans-30" x="159.033203"/>
      </g>
     </g>
    </g>
    <g id="ytick_2">
     <g id="line2d_6">
      <g>
       <use xlink:href="#mec19922823" x="54.2" y="171.385317" style="stroke: #000000; stroke-width: 0.8"/>
      </g>
     </g>
     <g id="text_6">
      <!-- 0.25 -->
      <g transform="translate(24.934375 175.184536) scale(0.1 -0.1)">
       <use xlink:href="#DejaVuSans-30"/>
       <use xlink:href="#DejaVuSans-2e" x="63.623047"/>
       <use xlink:href="#DejaVuSans-32" x="95.410156"/>
       <use xlink:href="#DejaVuSans-35" x="159.033203"/>
      </g>
     </g>
    </g>
    <g id="ytick_3">
     <g id="line2d_7">
      <g>
       <use xlink:href="#mec19922823" x="54.2" y="148.313888" style="stroke: #000000; stroke-width: 0.8"/>
      </g>
     </g>
     <g id="text_7">
      <!-- 0.50 -->
      <g transform="translate(24.934375 152.113107) scale(0.1 -0.1)">
       <use xlink:href="#DejaVuSans-30"/>
       <use xlink:href="#DejaVuSans-2e" x="63.623047"/>
       <use xlink:href="#DejaVuSans-35" x="95.410156"/>
       <use xlink:href="#DejaVuSans-30" x="159.033203"/>
      </g>
     </g>
    </g>
    <g id="ytick_4">
     <g id="line2d_8">
      <g>
       <use xlink:href="#mec19922823" x="54.2" y="125.242459" style="stroke: #000000; stroke-width: 0.8"/>
      </g>
     </g>
     <g id="text_8">
      <!-- 0.75 -->
      <g transform="translate(24.934375 129.041678) scale(0.1 -0.1)">
       <defs>
        <path id="DejaVuSans-37" d="M 525 4666 
L 3525 4666 
L 3525 4397 
L 1831 0 
L 1172 0 
L 2766 4134 
L 525 4134 
L 525 4666 
z
" transform="scale(0.015625)"/>
       </defs>
       <use xlink:href="#DejaVuSans-30"/>
       <use xlink:href="#DejaVuSans-2e" x="63.623047"/>
       <use xlink:href="#DejaVuSans-37" x="95.410156"/>
       <use xlink:href="#DejaVuSans-35" x="159.033203"/>
      </g>
     </g>
    </g>
    <g id="ytick_5">
     <g id="line2d_9">
      <g>
       <use xlink:href="#mec19922823" x="54.2" y="102.17103" style="stroke: #000000; stroke-width: 0.8"/>
      </g>
     </g>
     <g id="text_9">
      <!-- 1.00 -->
      <g transform="translate(24.934375 105.970248) scale(0.1 -0.1)">
       <defs>
        <path id="DejaVuSans-31" d="M 794 531 
L 1825 531 
L 1825 4091 
L 703 3866 
L 703 4441 
L 1819 4666 
L 2450 4666 
L 2450 531 
L 3481 531 
L 3481 0 
L 794 0 
L 794 531 
z
" transform="scale(0.015625)"/>
       </defs>
       <use xlink:href="#DejaVuSans-31"/>
       <use xlink:href="#DejaVuSans-2e" x="63.623047"/>
       <use xlink:href="#DejaVuSans-30" x="95.410156"/>
       <use xlink:href="#DejaVuSans-30" x="159.033203"/>
      </g>
     </g>
    </g>
    <g id="ytick_6">
     <g id="line2d_10">
      <g>
       <use xlink:href="#mec19922823" x="54.2" y="79.0996" style="stroke: #000000; stroke-width: 0.8"/>
      </g>
     </g>
     <g id="text_10">
      <!-- 1.25 -->
      <g transform="translate(24.934375 82.898819) scale(0.1 -0.1)">
       <use xlink:href="#DejaVuSans-31"/>
       <use xlink:href="#DejaVuSans-2e" x="63.623047"/>
       <use xlink:href="#DejaVuSans-32" x="95.410156"/>
       <use xlink:href="#DejaVuSans-35" x="159.033203"/>
      </g>
     </g>
    </g>
    <g id="ytick_7">
     <g id="line2d_11">
      <g>
       <use xlink:href="#mec19922823" x="54.2" y="56.028171" style="stroke: #000000; stroke-width: 0.8"/>
      </g>
     </g>
     <g id="text_11">
      <!-- 1.50 -->
      <g transform="translate(24.934375 59.82739) scale(0.1 -0.1)">
       <use xlink:href="#DejaVuSans-31"/>
       <use xlink:href="#DejaVuSans-2e" x="63.623047"/>
       <use xlink:href="#DejaVuSans-35" x="95.410156"/>
       <use xlink:href="#DejaVuSans-30" x="159.033203"/>
      </g>
     </g>
    </g>
    <g id="ytick_8">
     <g id="line2d_12">
      <g>
       <use xlink:href="#mec19922823" x="54.2" y="32.956742" style="stroke: #000000; stroke-width: 0.8"/>
      </g>
     </g>
     <g id="text_12">
      <!-- 1.75 -->
      <g transform="translate(24.934375 36.755961) scale(0.1 -0.1)">
       <use xlink:href="#DejaVuSans-31"/>
       <use xlink:href="#DejaVuSans-2e" x="63.623047"/>
       <use xlink:href="#DejaVuSans-37" x="95.410156"/>
       <use xlink:href="#DejaVuSans-35" x="159.033203"/>
      </g>
     </g>
    </g>
    <g id="text_13">
     <!-- Mean normalized [p-CA] -->
     <g transform="translate(18.854688 170.324936) rotate(-90) scale(0.1 -0.1)">
      <defs>
       <path id="DejaVuSans-4d" d="M 628 4666 
L 1569 4666 
L 2759 1491 
L 3956 4666 
L 4897 4666 
L 4897 0 
L 4281 0 
L 4281 4097 
L 3078 897 
L 2444 897 
L 1241 4097 
L 1241 0 
L 628 0 
L 628 4666 
z
" transform="scale(0.015625)"/>
       <path id="DejaVuSans-6d" d="M 3328 2828 
Q 3544 3216 3844 3400 
Q 4144 3584 4550 3584 
Q 5097 3584 5394 3201 
Q 5691 2819 5691 2113 
L 5691 0 
L 5113 0 
L 5113 2094 
Q 5113 2597 4934 2840 
Q 4756 3084 4391 3084 
Q 3944 3084 3684 2787 
Q 3425 2491 3425 1978 
L 3425 0 
L 2847 0 
L 2847 2094 
Q 2847 2600 2669 2842 
Q 2491 3084 2119 3084 
Q 1678 3084 1418 2786 
Q 1159 2488 1159 1978 
L 1159 0 
L 581 0 
L 581 3500 
L 1159 3500 
L 1159 2956 
Q 1356 3278 1631 3431 
Q 1906 3584 2284 3584 
Q 2666 3584 2933 3390 
Q 3200 3197 3328 2828 
z
" transform="scale(0.015625)"/>
       <path id="DejaVuSans-6c" d="M 603 4863 
L 1178 4863 
L 1178 0 
L 603 0 
L 603 4863 
z
" transform="scale(0.015625)"/>
       <path id="DejaVuSans-7a" d="M 353 3500 
L 3084 3500 
L 3084 2975 
L 922 459 
L 3084 459 
L 3084 0 
L 275 0 
L 275 525 
L 2438 3041 
L 353 3041 
L 353 3500 
z
" transform="scale(0.015625)"/>
       <path id="DejaVuSans-64" d="M 2906 2969 
L 2906 4863 
L 3481 4863 
L 3481 0 
L 2906 0 
L 2906 525 
Q 2725 213 2448 61 
Q 2172 -91 1784 -91 
Q 1150 -91 751 415 
Q 353 922 353 1747 
Q 353 2572 751 3078 
Q 1150 3584 1784 3584 
Q 2172 3584 2448 3432 
Q 2725 3281 2906 2969 
z
M 947 1747 
Q 947 1113 1208 752 
Q 1469 391 1925 391 
Q 2381 391 2643 752 
Q 2906 1113 2906 1747 
Q 2906 2381 2643 2742 
Q 2381 3103 1925 3103 
Q 1469 3103 1208 2742 
Q 947 2381 947 1747 
z
" transform="scale(0.015625)"/>
       <path id="DejaVuSans-5b" d="M 550 4863 
L 1875 4863 
L 1875 4416 
L 1125 4416 
L 1125 -397 
L 1875 -397 
L 1875 -844 
L 550 -844 
L 550 4863 
z
" transform="scale(0.015625)"/>
       <path id="DejaVuSans-2d" d="M 313 2009 
L 1997 2009 
L 1997 1497 
L 313 1497 
L 313 2009 
z
" transform="scale(0.015625)"/>
       <path id="DejaVuSans-43" d="M 4122 4306 
L 4122 3641 
Q 3803 3938 3442 4084 
Q 3081 4231 2675 4231 
Q 1875 4231 1450 3742 
Q 1025 3253 1025 2328 
Q 1025 1406 1450 917 
Q 1875 428 2675 428 
Q 3081 428 3442 575 
Q 3803 722 4122 1019 
L 4122 359 
Q 3791 134 3420 21 
Q 3050 -91 2638 -91 
Q 1578 -91 968 557 
Q 359 1206 359 2328 
Q 359 3453 968 4101 
Q 1578 4750 2638 4750 
Q 3056 4750 3426 4639 
Q 3797 4528 4122 4306 
z
" transform="scale(0.015625)"/>
       <path id="DejaVuSans-41" d="M 2188 4044 
L 1331 1722 
L 3047 1722 
L 2188 4044 
z
M 1831 4666 
L 2547 4666 
L 4325 0 
L 3669 0 
L 3244 1197 
L 1141 1197 
L 716 0 
L 50 0 
L 1831 4666 
z
" transform="scale(0.015625)"/>
       <path id="DejaVuSans-5d" d="M 1947 4863 
L 1947 -844 
L 622 -844 
L 622 -397 
L 1369 -397 
L 1369 4416 
L 622 4416 
L 622 4863 
L 1947 4863 
z
" transform="scale(0.015625)"/>
      </defs>
      <use xlink:href="#DejaVuSans-4d"/>
      <use xlink:href="#DejaVuSans-65" x="86.279297"/>
      <use xlink:href="#DejaVuSans-61" x="147.802734"/>
      <use xlink:href="#DejaVuSans-6e" x="209.082031"/>
      <use xlink:href="#DejaVuSans-20" x="272.460938"/>
      <use xlink:href="#DejaVuSans-6e" x="304.248047"/>
      <use xlink:href="#DejaVuSans-6f" x="367.626953"/>
      <use xlink:href="#DejaVuSans-72" x="428.808594"/>
      <use xlink:href="#DejaVuSans-6d" x="468.171875"/>
      <use xlink:href="#DejaVuSans-61" x="565.583984"/>
      <use xlink:href="#DejaVuSans-6c" x="626.863281"/>
      <use xlink:href="#DejaVuSans-69" x="654.646484"/>
      <use xlink:href="#DejaVuSans-7a" x="682.429688"/>
      <use xlink:href="#DejaVuSans-65" x="734.919922"/>
      <use xlink:href="#DejaVuSans-64" x="796.443359"/>
      <use xlink:href="#DejaVuSans-20" x="859.919922"/>
      <use xlink:href="#DejaVuSans-5b" x="891.707031"/>
      <use xlink:href="#DejaVuSans-70" x="930.720703"/>
      <use xlink:href="#DejaVuSans-2d" x="994.197266"/>
      <use xlink:href="#DejaVuSans-43" x="1030.28125"/>
      <use xlink:href="#DejaVuSans-41" x="1100.105469"/>
      <use xlink:href="#DejaVuSans-5d" x="1168.513672"/>
     </g>
    </g>
   </g>
   <g id="patch_7">
    <path d="M 54.2 194.456746 
L 54.2 25.44 
" style="fill: none; stroke: #000000; stroke-width: 0.8; stroke-linejoin: miter; stroke-linecap: square"/>
   </g>
   <g id="patch_8">
    <path d="M 352.528721 194.456746 
L 352.528721 25.44 
" style="fill: none; stroke: #000000; stroke-width: 0.8; stroke-linejoin: miter; stroke-linecap: square"/>
   </g>
   <g id="patch_9">
    <path d="M 54.2 194.456746 
L 352.528721 194.456746 
" style="fill: none; stroke: #000000; stroke-width: 0.8; stroke-linejoin: miter; stroke-linecap: square"/>
   </g>
   <g id="patch_10">
    <path d="M 54.2 25.44 
L 352.528721 25.44 
" style="fill: none; stroke: #000000; stroke-width: 0.8; stroke-linejoin: miter; stroke-linecap: square"/>
   </g>
   <g id="text_14">
    <!-- Mean [p-CA] production -->
    <g transform="translate(132.037486 19.44) scale(0.12 -0.12)">
     <defs>
      <path id="DejaVuSans-75" d="M 544 1381 
L 544 3500 
L 1119 3500 
L 1119 1403 
Q 1119 906 1312 657 
Q 1506 409 1894 409 
Q 2359 409 2629 706 
Q 2900 1003 2900 1516 
L 2900 3500 
L 3475 3500 
L 3475 0 
L 2900 0 
L 2900 538 
Q 2691 219 2414 64 
Q 2138 -91 1772 -91 
Q 1169 -91 856 284 
Q 544 659 544 1381 
z
M 1991 3584 
L 1991 3584 
z
" transform="scale(0.015625)"/>
      <path id="DejaVuSans-63" d="M 3122 3366 
L 3122 2828 
Q 2878 2963 2633 3030 
Q 2388 3097 2138 3097 
Q 1578 3097 1268 2742 
Q 959 2388 959 1747 
Q 959 1106 1268 751 
Q 1578 397 2138 397 
Q 2388 397 2633 464 
Q 2878 531 3122 666 
L 3122 134 
Q 2881 22 2623 -34 
Q 2366 -91 2075 -91 
Q 1284 -91 818 406 
Q 353 903 353 1747 
Q 353 2603 823 3093 
Q 1294 3584 2113 3584 
Q 2378 3584 2631 3529 
Q 2884 3475 3122 3366 
z
" transform="scale(0.015625)"/>
     </defs>
     <use xlink:href="#DejaVuSans-4d"/>
     <use xlink:href="#DejaVuSans-65" x="86.279297"/>
     <use xlink:href="#DejaVuSans-61" x="147.802734"/>
     <use xlink:href="#DejaVuSans-6e" x="209.082031"/>
     <use xlink:href="#DejaVuSans-20" x="272.460938"/>
     <use xlink:href="#DejaVuSans-5b" x="304.248047"/>
     <use xlink:href="#DejaVuSans-70" x="343.261719"/>
     <use xlink:href="#DejaVuSans-2d" x="406.738281"/>
     <use xlink:href="#DejaVuSans-43" x="442.822266"/>
     <use xlink:href="#DejaVuSans-41" x="512.646484"/>
     <use xlink:href="#DejaVuSans-5d" x="581.054688"/>
     <use xlink:href="#DejaVuSans-20" x="620.068359"/>
     <use xlink:href="#DejaVuSans-70" x="651.855469"/>
     <use xlink:href="#DejaVuSans-72" x="715.332031"/>
     <use xlink:href="#DejaVuSans-6f" x="754.195312"/>
     <use xlink:href="#DejaVuSans-64" x="815.376953"/>
     <use xlink:href="#DejaVuSans-75" x="878.853516"/>
     <use xlink:href="#DejaVuSans-63" x="942.232422"/>
     <use xlink:href="#DejaVuSans-74" x="997.212891"/>
     <use xlink:href="#DejaVuSans-69" x="1036.421875"/>
     <use xlink:href="#DejaVuSans-6f" x="1064.205078"/>
     <use xlink:href="#DejaVuSans-6e" x="1125.386719"/>
    </g>
   </g>
  </g>
  <g id="axes_2">
   <g id="patch_11">
    <path d="M 408.8 194.456746 
L 707.128721 194.456746 
L 707.128721 25.44 
L 408.8 25.44 
z
" style="fill: #ffffff"/>
   </g>
   <g id="patch_12">
    <path d="M 422.360396 194.456746 
L 479.456802 194.456746 
L 479.456802 123.067394 
L 422.360396 123.067394 
z
" clip-path="url(#p667af47e76)" style="fill: #00468b"/>
   </g>
   <g id="patch_13">
    <path d="M 493.730904 194.456746 
L 550.82731 194.456746 
L 550.82731 70.675353 
L 493.730904 70.675353 
z
" clip-path="url(#p667af47e76)" style="fill: #00468b"/>
   </g>
   <g id="patch_14">
    <path d="M 565.101411 194.456746 
L 622.197817 194.456746 
L 622.197817 171.031899 
L 565.101411 171.031899 
z
" clip-path="url(#p667af47e76)" style="fill: #00468b"/>
   </g>
   <g id="patch_15">
    <path d="M 636.471919 194.456746 
L 693.568325 194.456746 
L 693.568325 33.488416 
L 636.471919 33.488416 
z
" clip-path="url(#p667af47e76)" style="fill: #00468b"/>
   </g>
   <g id="matplotlib.axis_3">
    <g id="xtick_5">
     <g id="line2d_13">
      <g>
       <use xlink:href="#m4dc34db280" x="450.908599" y="194.456746" style="stroke: #000000; stroke-width: 0.8"/>
      </g>
     </g>
     <g id="text_15">
      <!-- $\beta=0 (parent)$ -->
      <g transform="translate(429.58933 253.499806) rotate(-45) scale(0.1 -0.1)">
       <use xlink:href="#DejaVuSans-Oblique-3b2" transform="translate(0 0.390625)"/>
       <use xlink:href="#DejaVuSans-3d" transform="translate(83.300781 0.390625)"/>
       <use xlink:href="#DejaVuSans-30" transform="translate(186.572266 0.390625)"/>
       <use xlink:href="#DejaVuSans-28" transform="translate(250.195312 0.390625)"/>
       <use xlink:href="#DejaVuSans-Oblique-70" transform="translate(289.208984 0.390625)"/>
       <use xlink:href="#DejaVuSans-Oblique-61" transform="translate(352.685547 0.390625)"/>
       <use xlink:href="#DejaVuSans-Oblique-72" transform="translate(413.964844 0.390625)"/>
       <use xlink:href="#DejaVuSans-Oblique-65" transform="translate(455.078125 0.390625)"/>
       <use xlink:href="#DejaVuSans-Oblique-6e" transform="translate(516.601562 0.390625)"/>
       <use xlink:href="#DejaVuSans-Oblique-74" transform="translate(579.980469 0.390625)"/>
       <use xlink:href="#DejaVuSans-29" transform="translate(619.189453 0.390625)"/>
      </g>
     </g>
    </g>
    <g id="xtick_6">
     <g id="line2d_14">
      <g>
       <use xlink:href="#m4dc34db280" x="522.279107" y="194.456746" style="stroke: #000000; stroke-width: 0.8"/>
      </g>
     </g>
     <g id="text_16">
      <!-- $\beta=2.5 (parent)$ -->
      <g transform="translate(497.60108 260.21732) rotate(-45) scale(0.1 -0.1)">
       <use xlink:href="#DejaVuSans-Oblique-3b2" transform="translate(0 0.390625)"/>
       <use xlink:href="#DejaVuSans-3d" transform="translate(83.300781 0.390625)"/>
       <use xlink:href="#DejaVuSans-32" transform="translate(186.572266 0.390625)"/>
       <use xlink:href="#DejaVuSans-2e" transform="translate(250.195312 0.390625)"/>
       <use xlink:href="#DejaVuSans-35" transform="translate(281.982422 0.390625)"/>
       <use xlink:href="#DejaVuSans-28" transform="translate(345.605469 0.390625)"/>
       <use xlink:href="#DejaVuSans-Oblique-70" transform="translate(384.619141 0.390625)"/>
       <use xlink:href="#DejaVuSans-Oblique-61" transform="translate(448.095703 0.390625)"/>
       <use xlink:href="#DejaVuSans-Oblique-72" transform="translate(509.375 0.390625)"/>
       <use xlink:href="#DejaVuSans-Oblique-65" transform="translate(550.488281 0.390625)"/>
       <use xlink:href="#DejaVuSans-Oblique-6e" transform="translate(612.011719 0.390625)"/>
       <use xlink:href="#DejaVuSans-Oblique-74" transform="translate(675.390625 0.390625)"/>
       <use xlink:href="#DejaVuSans-29" transform="translate(714.599609 0.390625)"/>
      </g>
     </g>
    </g>
    <g id="xtick_7">
     <g id="line2d_15">
      <g>
       <use xlink:href="#m4dc34db280" x="593.649614" y="194.456746" style="stroke: #000000; stroke-width: 0.8"/>
      </g>
     </g>
     <g id="text_17">
      <!-- $\beta=5$ (parent) -->
      <g transform="translate(571.234329 255.691837) rotate(-45) scale(0.1 -0.1)">
       <use xlink:href="#DejaVuSans-Oblique-3b2" transform="translate(0 0.390625)"/>
       <use xlink:href="#DejaVuSans-3d" transform="translate(83.300781 0.390625)"/>
       <use xlink:href="#DejaVuSans-35" transform="translate(186.572266 0.390625)"/>
       <use xlink:href="#DejaVuSans-20" transform="translate(250.195312 0.390625)"/>
       <use xlink:href="#DejaVuSans-28" transform="translate(281.982422 0.390625)"/>
       <use xlink:href="#DejaVuSans-70" transform="translate(320.996094 0.390625)"/>
       <use xlink:href="#DejaVuSans-61" transform="translate(384.472656 0.390625)"/>
       <use xlink:href="#DejaVuSans-72" transform="translate(445.751953 0.390625)"/>
       <use xlink:href="#DejaVuSans-65" transform="translate(486.865234 0.390625)"/>
       <use xlink:href="#DejaVuSans-6e" transform="translate(548.388672 0.390625)"/>
       <use xlink:href="#DejaVuSans-74" transform="translate(611.767578 0.390625)"/>
       <use xlink:href="#DejaVuSans-29" transform="translate(650.976562 0.390625)"/>
      </g>
     </g>
    </g>
    <g id="xtick_8">
     <g id="line2d_16">
      <g>
       <use xlink:href="#m4dc34db280" x="665.020122" y="194.456746" style="stroke: #000000; stroke-width: 0.8"/>
      </g>
     </g>
     <g id="text_18">
      <!-- $\beta=2.5$ (top strain) -->
      <g transform="translate(633.907423 273.086663) rotate(-45) scale(0.1 -0.1)">
       <use xlink:href="#DejaVuSans-Oblique-3b2" transform="translate(0 0.390625)"/>
       <use xlink:href="#DejaVuSans-3d" transform="translate(83.300781 0.390625)"/>
       <use xlink:href="#DejaVuSans-32" transform="translate(186.572266 0.390625)"/>
       <use xlink:href="#DejaVuSans-2e" transform="translate(250.195312 0.390625)"/>
       <use xlink:href="#DejaVuSans-35" transform="translate(281.982422 0.390625)"/>
       <use xlink:href="#DejaVuSans-20" transform="translate(345.605469 0.390625)"/>
       <use xlink:href="#DejaVuSans-28" transform="translate(377.392578 0.390625)"/>
       <use xlink:href="#DejaVuSans-74" transform="translate(416.40625 0.390625)"/>
       <use xlink:href="#DejaVuSans-6f" transform="translate(455.615234 0.390625)"/>
       <use xlink:href="#DejaVuSans-70" transform="translate(516.796875 0.390625)"/>
       <use xlink:href="#DejaVuSans-20" transform="translate(580.273438 0.390625)"/>
       <use xlink:href="#DejaVuSans-73" transform="translate(612.060547 0.390625)"/>
       <use xlink:href="#DejaVuSans-74" transform="translate(664.160156 0.390625)"/>
       <use xlink:href="#DejaVuSans-72" transform="translate(703.369141 0.390625)"/>
       <use xlink:href="#DejaVuSans-61" transform="translate(744.482422 0.390625)"/>
       <use xlink:href="#DejaVuSans-69" transform="translate(805.761719 0.390625)"/>
       <use xlink:href="#DejaVuSans-6e" transform="translate(833.544922 0.390625)"/>
       <use xlink:href="#DejaVuSans-29" transform="translate(896.923828 0.390625)"/>
      </g>
     </g>
    </g>
   </g>
   <g id="matplotlib.axis_4">
    <g id="ytick_9">
     <g id="line2d_17">
      <g>
       <use xlink:href="#mec19922823" x="408.8" y="194.456746" style="stroke: #000000; stroke-width: 0.8"/>
      </g>
     </g>
     <g id="text_19">
      <!-- 0.00 -->
      <g transform="translate(379.534375 198.255965) scale(0.1 -0.1)">
       <use xlink:href="#DejaVuSans-30"/>
       <use xlink:href="#DejaVuSans-2e" x="63.623047"/>
       <use xlink:href="#DejaVuSans-30" x="95.410156"/>
       <use xlink:href="#DejaVuSans-30" x="159.033203"/>
      </g>
     </g>
    </g>
    <g id="ytick_10">
     <g id="line2d_18">
      <g>
       <use xlink:href="#mec19922823" x="408.8" y="157.183561" style="stroke: #000000; stroke-width: 0.8"/>
      </g>
     </g>
     <g id="text_20">
      <!-- 0.02 -->
      <g transform="translate(379.534375 160.982779) scale(0.1 -0.1)">
       <use xlink:href="#DejaVuSans-30"/>
       <use xlink:href="#DejaVuSans-2e" x="63.623047"/>
       <use xlink:href="#DejaVuSans-30" x="95.410156"/>
       <use xlink:href="#DejaVuSans-32" x="159.033203"/>
      </g>
     </g>
    </g>
    <g id="ytick_11">
     <g id="line2d_19">
      <g>
       <use xlink:href="#mec19922823" x="408.8" y="119.910375" style="stroke: #000000; stroke-width: 0.8"/>
      </g>
     </g>
     <g id="text_21">
      <!-- 0.04 -->
      <g transform="translate(379.534375 123.709594) scale(0.1 -0.1)">
       <defs>
        <path id="DejaVuSans-34" d="M 2419 4116 
L 825 1625 
L 2419 1625 
L 2419 4116 
z
M 2253 4666 
L 3047 4666 
L 3047 1625 
L 3713 1625 
L 3713 1100 
L 3047 1100 
L 3047 0 
L 2419 0 
L 2419 1100 
L 313 1100 
L 313 1709 
L 2253 4666 
z
" transform="scale(0.015625)"/>
       </defs>
       <use xlink:href="#DejaVuSans-30"/>
       <use xlink:href="#DejaVuSans-2e" x="63.623047"/>
       <use xlink:href="#DejaVuSans-30" x="95.410156"/>
       <use xlink:href="#DejaVuSans-34" x="159.033203"/>
      </g>
     </g>
    </g>
    <g id="ytick_12">
     <g id="line2d_20">
      <g>
       <use xlink:href="#mec19922823" x="408.8" y="82.637189" style="stroke: #000000; stroke-width: 0.8"/>
      </g>
     </g>
     <g id="text_22">
      <!-- 0.06 -->
      <g transform="translate(379.534375 86.436408) scale(0.1 -0.1)">
       <defs>
        <path id="DejaVuSans-36" d="M 2113 2584 
Q 1688 2584 1439 2293 
Q 1191 2003 1191 1497 
Q 1191 994 1439 701 
Q 1688 409 2113 409 
Q 2538 409 2786 701 
Q 3034 994 3034 1497 
Q 3034 2003 2786 2293 
Q 2538 2584 2113 2584 
z
M 3366 4563 
L 3366 3988 
Q 3128 4100 2886 4159 
Q 2644 4219 2406 4219 
Q 1781 4219 1451 3797 
Q 1122 3375 1075 2522 
Q 1259 2794 1537 2939 
Q 1816 3084 2150 3084 
Q 2853 3084 3261 2657 
Q 3669 2231 3669 1497 
Q 3669 778 3244 343 
Q 2819 -91 2113 -91 
Q 1303 -91 875 529 
Q 447 1150 447 2328 
Q 447 3434 972 4092 
Q 1497 4750 2381 4750 
Q 2619 4750 2861 4703 
Q 3103 4656 3366 4563 
z
" transform="scale(0.015625)"/>
       </defs>
       <use xlink:href="#DejaVuSans-30"/>
       <use xlink:href="#DejaVuSans-2e" x="63.623047"/>
       <use xlink:href="#DejaVuSans-30" x="95.410156"/>
       <use xlink:href="#DejaVuSans-36" x="159.033203"/>
      </g>
     </g>
    </g>
    <g id="ytick_13">
     <g id="line2d_21">
      <g>
       <use xlink:href="#mec19922823" x="408.8" y="45.364003" style="stroke: #000000; stroke-width: 0.8"/>
      </g>
     </g>
     <g id="text_23">
      <!-- 0.08 -->
      <g transform="translate(379.534375 49.163222) scale(0.1 -0.1)">
       <defs>
        <path id="DejaVuSans-38" d="M 2034 2216 
Q 1584 2216 1326 1975 
Q 1069 1734 1069 1313 
Q 1069 891 1326 650 
Q 1584 409 2034 409 
Q 2484 409 2743 651 
Q 3003 894 3003 1313 
Q 3003 1734 2745 1975 
Q 2488 2216 2034 2216 
z
M 1403 2484 
Q 997 2584 770 2862 
Q 544 3141 544 3541 
Q 544 4100 942 4425 
Q 1341 4750 2034 4750 
Q 2731 4750 3128 4425 
Q 3525 4100 3525 3541 
Q 3525 3141 3298 2862 
Q 3072 2584 2669 2484 
Q 3125 2378 3379 2068 
Q 3634 1759 3634 1313 
Q 3634 634 3220 271 
Q 2806 -91 2034 -91 
Q 1263 -91 848 271 
Q 434 634 434 1313 
Q 434 1759 690 2068 
Q 947 2378 1403 2484 
z
M 1172 3481 
Q 1172 3119 1398 2916 
Q 1625 2713 2034 2713 
Q 2441 2713 2670 2916 
Q 2900 3119 2900 3481 
Q 2900 3844 2670 4047 
Q 2441 4250 2034 4250 
Q 1625 4250 1398 4047 
Q 1172 3844 1172 3481 
z
" transform="scale(0.015625)"/>
       </defs>
       <use xlink:href="#DejaVuSans-30"/>
       <use xlink:href="#DejaVuSans-2e" x="63.623047"/>
       <use xlink:href="#DejaVuSans-30" x="95.410156"/>
       <use xlink:href="#DejaVuSans-38" x="159.033203"/>
      </g>
     </g>
    </g>
    <g id="text_24">
     <!-- Variance normalized [p-CA] -->
     <g transform="translate(373.454688 178.301498) rotate(-90) scale(0.1 -0.1)">
      <defs>
       <path id="DejaVuSans-56" d="M 1831 0 
L 50 4666 
L 709 4666 
L 2188 738 
L 3669 4666 
L 4325 4666 
L 2547 0 
L 1831 0 
z
" transform="scale(0.015625)"/>
      </defs>
      <use xlink:href="#DejaVuSans-56"/>
      <use xlink:href="#DejaVuSans-61" x="60.658203"/>
      <use xlink:href="#DejaVuSans-72" x="121.9375"/>
      <use xlink:href="#DejaVuSans-69" x="163.050781"/>
      <use xlink:href="#DejaVuSans-61" x="190.833984"/>
      <use xlink:href="#DejaVuSans-6e" x="252.113281"/>
      <use xlink:href="#DejaVuSans-63" x="315.492188"/>
      <use xlink:href="#DejaVuSans-65" x="370.472656"/>
      <use xlink:href="#DejaVuSans-20" x="431.996094"/>
      <use xlink:href="#DejaVuSans-6e" x="463.783203"/>
      <use xlink:href="#DejaVuSans-6f" x="527.162109"/>
      <use xlink:href="#DejaVuSans-72" x="588.34375"/>
      <use xlink:href="#DejaVuSans-6d" x="627.707031"/>
      <use xlink:href="#DejaVuSans-61" x="725.119141"/>
      <use xlink:href="#DejaVuSans-6c" x="786.398438"/>
      <use xlink:href="#DejaVuSans-69" x="814.181641"/>
      <use xlink:href="#DejaVuSans-7a" x="841.964844"/>
      <use xlink:href="#DejaVuSans-65" x="894.455078"/>
      <use xlink:href="#DejaVuSans-64" x="955.978516"/>
      <use xlink:href="#DejaVuSans-20" x="1019.455078"/>
      <use xlink:href="#DejaVuSans-5b" x="1051.242188"/>
      <use xlink:href="#DejaVuSans-70" x="1090.255859"/>
      <use xlink:href="#DejaVuSans-2d" x="1153.732422"/>
      <use xlink:href="#DejaVuSans-43" x="1189.816406"/>
      <use xlink:href="#DejaVuSans-41" x="1259.640625"/>
      <use xlink:href="#DejaVuSans-5d" x="1328.048828"/>
     </g>
    </g>
   </g>
   <g id="patch_16">
    <path d="M 408.8 194.456746 
L 408.8 25.44 
" style="fill: none; stroke: #000000; stroke-width: 0.8; stroke-linejoin: miter; stroke-linecap: square"/>
   </g>
   <g id="patch_17">
    <path d="M 707.128721 194.456746 
L 707.128721 25.44 
" style="fill: none; stroke: #000000; stroke-width: 0.8; stroke-linejoin: miter; stroke-linecap: square"/>
   </g>
   <g id="patch_18">
    <path d="M 408.8 194.456746 
L 707.128721 194.456746 
" style="fill: none; stroke: #000000; stroke-width: 0.8; stroke-linejoin: miter; stroke-linecap: square"/>
   </g>
   <g id="patch_19">
    <path d="M 408.8 25.44 
L 707.128721 25.44 
" style="fill: none; stroke: #000000; stroke-width: 0.8; stroke-linejoin: miter; stroke-linecap: square"/>
   </g>
   <g id="text_25">
    <!-- Variance [p-CA] production -->
    <g transform="translate(477.065611 19.44) scale(0.12 -0.12)">
     <use xlink:href="#DejaVuSans-56"/>
     <use xlink:href="#DejaVuSans-61" x="60.658203"/>
     <use xlink:href="#DejaVuSans-72" x="121.9375"/>
     <use xlink:href="#DejaVuSans-69" x="163.050781"/>
     <use xlink:href="#DejaVuSans-61" x="190.833984"/>
     <use xlink:href="#DejaVuSans-6e" x="252.113281"/>
     <use xlink:href="#DejaVuSans-63" x="315.492188"/>
     <use xlink:href="#DejaVuSans-65" x="370.472656"/>
     <use xlink:href="#DejaVuSans-20" x="431.996094"/>
     <use xlink:href="#DejaVuSans-5b" x="463.783203"/>
     <use xlink:href="#DejaVuSans-70" x="502.796875"/>
     <use xlink:href="#DejaVuSans-2d" x="566.273438"/>
     <use xlink:href="#DejaVuSans-43" x="602.357422"/>
     <use xlink:href="#DejaVuSans-41" x="672.181641"/>
     <use xlink:href="#DejaVuSans-5d" x="740.589844"/>
     <use xlink:href="#DejaVuSans-20" x="779.603516"/>
     <use xlink:href="#DejaVuSans-70" x="811.390625"/>
     <use xlink:href="#DejaVuSans-72" x="874.867188"/>
     <use xlink:href="#DejaVuSans-6f" x="913.730469"/>
     <use xlink:href="#DejaVuSans-64" x="974.912109"/>
     <use xlink:href="#DejaVuSans-75" x="1038.388672"/>
     <use xlink:href="#DejaVuSans-63" x="1101.767578"/>
     <use xlink:href="#DejaVuSans-74" x="1156.748047"/>
     <use xlink:href="#DejaVuSans-69" x="1195.957031"/>
     <use xlink:href="#DejaVuSans-6f" x="1223.740234"/>
     <use xlink:href="#DejaVuSans-6e" x="1284.921875"/>
    </g>
   </g>
  </g>
 </g>
 <defs>
  <clipPath id="pd86ebb36ae">
   <rect x="54.2" y="25.44" width="298.328721" height="169.016746"/>
  </clipPath>
  <clipPath id="p667af47e76">
   <rect x="408.8" y="25.44" width="298.328721" height="169.016746"/>
  </clipPath>
 </defs>
</svg>
