<?xml version="1.0" encoding="utf-8" standalone="no"?>
<!DOCTYPE svg PUBLIC "-//W3C//DTD SVG 1.1//EN"
  "http://www.w3.org/Graphics/SVG/1.1/DTD/svg11.dtd">
<svg xmlns:xlink="http://www.w3.org/1999/xlink" width="712.370625pt" height="352.474375pt" viewBox="0 0 712.370625 352.474375" xmlns="http://www.w3.org/2000/svg" version="1.1">
 <metadata>
  <rdf:RDF xmlns:dc="http://purl.org/dc/elements/1.1/" xmlns:cc="http://creativecommons.org/ns#" xmlns:rdf="http://www.w3.org/1999/02/22-rdf-syntax-ns#">
   <cc:Work>
    <dc:type rdf:resource="http://purl.org/dc/dcmitype/StillImage"/>
    <dc:date>2025-05-15T12:45:50.704305</dc:date>
    <dc:format>image/svg+xml</dc:format>
    <dc:creator>
     <cc:Agent>
      <dc:title>Matplotlib v3.7.2, https://matplotlib.org/</dc:title>
     </cc:Agent>
    </dc:creator>
   </cc:Work>
  </rdf:RDF>
 </metadata>
 <defs>
  <style type="text/css">*{stroke-linejoin: round; stroke-linecap: butt}</style>
 </defs>
 <g id="figure_1">
  <g id="patch_1">
   <path d="M 0 352.474375 
L 712.370625 352.474375 
L 712.370625 0 
L 0 0 
z
" style="fill: #ffffff"/>
  </g>
  <g id="axes_1">
   <g id="patch_2">
    <path d="M 34.240625 314.918125 
L 705.170625 314.918125 
L 705.170625 22.318125 
L 34.240625 22.318125 
z
" style="fill: #ffffff"/>
   </g>
   <g id="PolyCollection_1">
    <defs>
     <path id="m4c21739653" d="M 118.106875 -50.85625 
L 103.478477 -50.85625 
L 103.115556 -52.299609 
L 102.78604 -53.742968 
L 102.492021 -55.186328 
L 102.235277 -56.629687 
L 102.017248 -58.073046 
L 101.839017 -59.516405 
L 101.701295 -60.959764 
L 101.604413 -62.403124 
L 101.548321 -63.846483 
L 101.532587 -65.289842 
L 101.55641 -66.733201 
L 101.618628 -68.176561 
L 101.717746 -69.61992 
L 101.85195 -71.063279 
L 102.019141 -72.506638 
L 102.216964 -73.949997 
L 102.442844 -75.393357 
L 102.694023 -76.836716 
L 102.967596 -78.280075 
L 103.260553 -79.723434 
L 103.56982 -81.166793 
L 103.892295 -82.610153 
L 104.224888 -84.053512 
L 104.564562 -85.496871 
L 104.90836 -86.94023 
L 105.253445 -88.38359 
L 105.597125 -89.826949 
L 105.93688 -91.270308 
L 106.270386 -92.713667 
L 106.59553 -94.157026 
L 106.910429 -95.600386 
L 107.213438 -97.043745 
L 107.50316 -98.487104 
L 107.778445 -99.930463 
L 108.038395 -101.373822 
L 108.282354 -102.817182 
L 108.509908 -104.260541 
L 108.72087 -105.7039 
L 108.915268 -107.147259 
L 109.093334 -108.590618 
L 109.255485 -110.033978 
L 109.402303 -111.477337 
L 109.53452 -112.920696 
L 109.652996 -114.364055 
L 109.758699 -115.807415 
L 109.852683 -117.250774 
L 109.93607 -118.694133 
L 110.010028 -120.137492 
L 110.075753 -121.580851 
L 110.134454 -123.024211 
L 110.187329 -124.46757 
L 110.235558 -125.910929 
L 110.28028 -127.354288 
L 110.322591 -128.797647 
L 110.363525 -130.241007 
L 110.404047 -131.684366 
L 110.445051 -133.127725 
L 110.487348 -134.571084 
L 110.531665 -136.014444 
L 110.578644 -137.457803 
L 110.628839 -138.901162 
L 110.682719 -140.344521 
L 110.740668 -141.78788 
L 110.802989 -143.23124 
L 110.869906 -144.674599 
L 110.941574 -146.117958 
L 111.018078 -147.561317 
L 111.099441 -149.004676 
L 111.185633 -150.448036 
L 111.276571 -151.891395 
L 111.372133 -153.334754 
L 111.472158 -154.778113 
L 111.576454 -156.221472 
L 111.684807 -157.664832 
L 111.796979 -159.108191 
L 111.912722 -160.55155 
L 112.031777 -161.994909 
L 112.153877 -163.438269 
L 112.278756 -164.881628 
L 112.406149 -166.324987 
L 112.535794 -167.768346 
L 112.667436 -169.211705 
L 112.800826 -170.655065 
L 112.935726 -172.098424 
L 113.071906 -173.541783 
L 113.209149 -174.985142 
L 113.347244 -176.428501 
L 113.485993 -177.871861 
L 113.625207 -179.31522 
L 113.764704 -180.758579 
L 113.904311 -182.201938 
L 114.043858 -183.645297 
L 114.183185 -185.088657 
L 114.322131 -186.532016 
L 114.460539 -187.975375 
L 114.598254 -189.418734 
L 114.73512 -190.862094 
L 114.87098 -192.305453 
L 115.005674 -193.748812 
L 118.106875 -193.748812 
L 118.106875 -193.748812 
L 118.106875 -192.305453 
L 118.106875 -190.862094 
L 118.106875 -189.418734 
L 118.106875 -187.975375 
L 118.106875 -186.532016 
L 118.106875 -185.088657 
L 118.106875 -183.645297 
L 118.106875 -182.201938 
L 118.106875 -180.758579 
L 118.106875 -179.31522 
L 118.106875 -177.871861 
L 118.106875 -176.428501 
L 118.106875 -174.985142 
L 118.106875 -173.541783 
L 118.106875 -172.098424 
L 118.106875 -170.655065 
L 118.106875 -169.211705 
L 118.106875 -167.768346 
L 118.106875 -166.324987 
L 118.106875 -164.881628 
L 118.106875 -163.438269 
L 118.106875 -161.994909 
L 118.106875 -160.55155 
L 118.106875 -159.108191 
L 118.106875 -157.664832 
L 118.106875 -156.221472 
L 118.106875 -154.778113 
L 118.106875 -153.334754 
L 118.106875 -151.891395 
L 118.106875 -150.448036 
L 118.106875 -149.004676 
L 118.106875 -147.561317 
L 118.106875 -146.117958 
L 118.106875 -144.674599 
L 118.106875 -143.23124 
L 118.106875 -141.78788 
L 118.106875 -140.344521 
L 118.106875 -138.901162 
L 118.106875 -137.457803 
L 118.106875 -136.014444 
L 118.106875 -134.571084 
L 118.106875 -133.127725 
L 118.106875 -131.684366 
L 118.106875 -130.241007 
L 118.106875 -128.797647 
L 118.106875 -127.354288 
L 118.106875 -125.910929 
L 118.106875 -124.46757 
L 118.106875 -123.024211 
L 118.106875 -121.580851 
L 118.106875 -120.137492 
L 118.106875 -118.694133 
L 118.106875 -117.250774 
L 118.106875 -115.807415 
L 118.106875 -114.364055 
L 118.106875 -112.920696 
L 118.106875 -111.477337 
L 118.106875 -110.033978 
L 118.106875 -108.590618 
L 118.106875 -107.147259 
L 118.106875 -105.7039 
L 118.106875 -104.260541 
L 118.106875 -102.817182 
L 118.106875 -101.373822 
L 118.106875 -99.930463 
L 118.106875 -98.487104 
L 118.106875 -97.043745 
L 118.106875 -95.600386 
L 118.106875 -94.157026 
L 118.106875 -92.713667 
L 118.106875 -91.270308 
L 118.106875 -89.826949 
L 118.106875 -88.38359 
L 118.106875 -86.94023 
L 118.106875 -85.496871 
L 118.106875 -84.053512 
L 118.106875 -82.610153 
L 118.106875 -81.166793 
L 118.106875 -79.723434 
L 118.106875 -78.280075 
L 118.106875 -76.836716 
L 118.106875 -75.393357 
L 118.106875 -73.949997 
L 118.106875 -72.506638 
L 118.106875 -71.063279 
L 118.106875 -69.61992 
L 118.106875 -68.176561 
L 118.106875 -66.733201 
L 118.106875 -65.289842 
L 118.106875 -63.846483 
L 118.106875 -62.403124 
L 118.106875 -60.959764 
L 118.106875 -59.516405 
L 118.106875 -58.073046 
L 118.106875 -56.629687 
L 118.106875 -55.186328 
L 118.106875 -53.742968 
L 118.106875 -52.299609 
L 118.106875 -50.85625 
z
" style="stroke: #2a2a2a; stroke-width: 1.25"/>
    </defs>
    <g clip-path="url(#p1f4d8ea916)">
     <use xlink:href="#m4c21739653" x="0" y="352.474375" style="fill: #11467a; stroke: #2a2a2a; stroke-width: 1.25"/>
    </g>
   </g>
   <g id="PolyCollection_2">
    <defs>
     <path id="m06e4cb1847" d="M 133.762746 -54.153771 
L 118.106875 -54.153771 
L 118.106875 -55.586027 
L 118.106875 -57.018284 
L 118.106875 -58.45054 
L 118.106875 -59.882796 
L 118.106875 -61.315053 
L 118.106875 -62.747309 
L 118.106875 -64.179566 
L 118.106875 -65.611822 
L 118.106875 -67.044079 
L 118.106875 -68.476335 
L 118.106875 -69.908592 
L 118.106875 -71.340848 
L 118.106875 -72.773104 
L 118.106875 -74.205361 
L 118.106875 -75.637617 
L 118.106875 -77.069874 
L 118.106875 -78.50213 
L 118.106875 -79.934387 
L 118.106875 -81.366643 
L 118.106875 -82.7989 
L 118.106875 -84.231156 
L 118.106875 -85.663413 
L 118.106875 -87.095669 
L 118.106875 -88.527925 
L 118.106875 -89.960182 
L 118.106875 -91.392438 
L 118.106875 -92.824695 
L 118.106875 -94.256951 
L 118.106875 -95.689208 
L 118.106875 -97.121464 
L 118.106875 -98.553721 
L 118.106875 -99.985977 
L 118.106875 -101.418233 
L 118.106875 -102.85049 
L 118.106875 -104.282746 
L 118.106875 -105.715003 
L 118.106875 -107.147259 
L 118.106875 -108.579516 
L 118.106875 -110.011772 
L 118.106875 -111.444029 
L 118.106875 -112.876285 
L 118.106875 -114.308542 
L 118.106875 -115.740798 
L 118.106875 -117.173054 
L 118.106875 -118.605311 
L 118.106875 -120.037567 
L 118.106875 -121.469824 
L 118.106875 -122.90208 
L 118.106875 -124.334337 
L 118.106875 -125.766593 
L 118.106875 -127.19885 
L 118.106875 -128.631106 
L 118.106875 -130.063362 
L 118.106875 -131.495619 
L 118.106875 -132.927875 
L 118.106875 -134.360132 
L 118.106875 -135.792388 
L 118.106875 -137.224645 
L 118.106875 -138.656901 
L 118.106875 -140.089158 
L 118.106875 -141.521414 
L 118.106875 -142.95367 
L 118.106875 -144.385927 
L 118.106875 -145.818183 
L 118.106875 -147.25044 
L 118.106875 -148.682696 
L 118.106875 -150.114953 
L 118.106875 -151.547209 
L 118.106875 -152.979466 
L 118.106875 -154.411722 
L 118.106875 -155.843979 
L 118.106875 -157.276235 
L 118.106875 -158.708491 
L 118.106875 -160.140748 
L 118.106875 -161.573004 
L 118.106875 -163.005261 
L 118.106875 -164.437517 
L 118.106875 -165.869774 
L 118.106875 -167.30203 
L 118.106875 -168.734287 
L 118.106875 -170.166543 
L 118.106875 -171.598799 
L 118.106875 -173.031056 
L 118.106875 -174.463312 
L 118.106875 -175.895569 
L 118.106875 -177.327825 
L 118.106875 -178.760082 
L 118.106875 -180.192338 
L 118.106875 -181.624595 
L 118.106875 -183.056851 
L 118.106875 -184.489108 
L 118.106875 -185.921364 
L 118.106875 -187.35362 
L 118.106875 -188.785877 
L 118.106875 -190.218133 
L 118.106875 -191.65039 
L 118.106875 -193.082646 
L 118.106875 -194.514903 
L 118.106875 -195.947159 
L 124.453622 -195.947159 
L 124.453622 -195.947159 
L 124.964852 -194.514903 
L 125.487859 -193.082646 
L 126.021881 -191.65039 
L 126.566598 -190.218133 
L 127.122166 -188.785877 
L 127.689215 -187.35362 
L 128.268818 -185.921364 
L 128.862427 -184.489108 
L 129.471764 -183.056851 
L 130.098701 -181.624595 
L 130.745102 -180.192338 
L 131.412661 -178.760082 
L 132.102733 -177.327825 
L 132.816169 -175.895569 
L 133.553177 -174.463312 
L 134.313203 -173.031056 
L 135.094855 -171.598799 
L 135.895861 -170.166543 
L 136.713087 -168.734287 
L 137.542587 -167.30203 
L 138.379712 -165.869774 
L 139.219248 -164.437517 
L 140.055594 -163.005261 
L 140.88296 -161.573004 
L 141.69558 -160.140748 
L 142.487925 -158.708491 
L 143.254906 -157.276235 
L 143.992063 -155.843979 
L 144.695721 -154.411722 
L 145.363107 -152.979466 
L 145.992438 -151.547209 
L 146.582949 -150.114953 
L 147.134887 -148.682696 
L 147.649461 -147.25044 
L 148.128746 -145.818183 
L 148.575562 -144.385927 
L 148.993327 -142.95367 
L 149.385891 -141.521414 
L 149.757375 -140.089158 
L 150.112006 -138.656901 
L 150.453983 -137.224645 
L 150.78736 -135.792388 
L 151.11597 -134.360132 
L 151.443386 -132.927875 
L 151.772922 -131.495619 
L 152.107673 -130.063362 
L 152.450594 -128.631106 
L 152.804589 -127.19885 
L 153.172624 -125.766593 
L 153.557829 -124.334337 
L 153.963585 -122.90208 
L 154.393575 -121.469824 
L 154.851785 -120.037567 
L 155.34245 -118.605311 
L 155.86993 -117.173054 
L 156.438515 -115.740798 
L 157.05217 -114.308542 
L 157.714219 -112.876285 
L 158.426983 -111.444029 
L 159.191406 -110.011772 
L 160.00667 -108.579516 
L 160.869845 -107.147259 
L 161.775595 -105.715003 
L 162.71596 -104.282746 
L 163.680246 -102.85049 
L 164.655037 -101.418233 
L 165.624338 -99.985977 
L 166.569864 -98.553721 
L 167.471451 -97.121464 
L 168.307595 -95.689208 
L 169.056087 -94.256951 
L 169.694715 -92.824695 
L 170.202008 -91.392438 
L 170.557979 -89.960182 
L 170.744828 -88.527925 
L 170.747581 -87.095669 
L 170.554619 -85.663413 
L 170.158085 -84.231156 
L 169.55415 -82.7989 
L 168.743117 -81.366643 
L 167.729378 -79.934387 
L 166.521229 -78.50213 
L 165.130547 -77.069874 
L 163.572368 -75.637617 
L 161.864374 -74.205361 
L 160.026329 -72.773104 
L 158.079493 -71.340848 
L 156.046019 -69.908592 
L 153.948393 -68.476335 
L 151.808901 -67.044079 
L 149.649158 -65.611822 
L 147.489707 -64.179566 
L 145.34969 -62.747309 
L 143.246589 -61.315053 
L 141.196043 -59.882796 
L 139.211731 -58.45054 
L 137.305315 -57.018284 
L 135.486435 -55.586027 
L 133.762746 -54.153771 
z
" style="stroke: #2a2a2a; stroke-width: 1.25"/>
    </defs>
    <g clip-path="url(#p1f4d8ea916)">
     <use xlink:href="#m06e4cb1847" x="0" y="352.474375" style="fill: #cf1e1e; stroke: #2a2a2a; stroke-width: 1.25"/>
    </g>
   </g>
   <g id="PolyCollection_3">
    <defs>
     <path id="me184f71b90" d="M 285.839375 -54.153771 
L 266.420407 -54.153771 
L 265.923798 -55.508308 
L 265.485611 -56.862845 
L 265.108742 -58.217382 
L 264.795309 -59.571919 
L 264.546619 -60.926456 
L 264.363167 -62.280993 
L 264.244638 -63.63553 
L 264.189937 -64.990068 
L 264.197235 -66.344605 
L 264.264027 -67.699142 
L 264.387206 -69.053679 
L 264.563148 -70.408216 
L 264.787806 -71.762753 
L 265.056803 -73.11729 
L 265.365542 -74.471827 
L 265.709295 -75.826364 
L 266.083309 -77.180901 
L 266.482892 -78.535439 
L 266.903494 -79.889976 
L 267.340783 -81.244513 
L 267.7907 -82.59905 
L 268.249513 -83.953587 
L 268.713844 -85.308124 
L 269.180696 -86.662661 
L 269.647459 -88.017198 
L 270.111904 -89.371735 
L 270.572175 -90.726273 
L 271.026761 -92.08081 
L 271.474463 -93.435347 
L 271.914366 -94.789884 
L 272.345787 -96.144421 
L 272.768244 -97.498958 
L 273.181405 -98.853495 
L 273.585053 -100.208032 
L 273.979044 -101.562569 
L 274.363277 -102.917106 
L 274.737665 -104.271644 
L 275.10211 -105.626181 
L 275.456491 -106.980718 
L 275.800652 -108.335255 
L 276.1344 -109.689792 
L 276.457505 -111.044329 
L 276.76971 -112.398866 
L 277.070745 -113.753403 
L 277.360337 -115.10794 
L 277.638233 -116.462478 
L 277.904215 -117.817015 
L 278.158121 -119.171552 
L 278.399866 -120.526089 
L 278.629453 -121.880626 
L 278.846989 -123.235163 
L 279.052696 -124.5897 
L 279.246913 -125.944237 
L 279.430103 -127.298774 
L 279.602842 -128.653312 
L 279.765817 -130.007849 
L 279.919812 -131.362386 
L 280.065687 -132.716923 
L 280.204364 -134.07146 
L 280.3368 -135.425997 
L 280.463968 -136.780534 
L 280.586822 -138.135071 
L 280.706282 -139.489608 
L 280.823205 -140.844145 
L 280.938362 -142.198683 
L 281.05242 -143.55322 
L 281.165928 -144.907757 
L 281.279301 -146.262294 
L 281.392817 -147.616831 
L 281.506613 -148.971368 
L 281.620686 -150.325905 
L 281.734905 -151.680442 
L 281.849016 -153.034979 
L 281.962664 -154.389517 
L 282.075409 -155.744054 
L 282.186748 -157.098591 
L 282.296137 -158.453128 
L 282.403018 -159.807665 
L 282.506843 -161.162202 
L 282.607093 -162.516739 
L 282.703307 -163.871276 
L 282.795093 -165.225813 
L 282.882151 -166.580351 
L 282.964284 -167.934888 
L 283.041401 -169.289425 
L 283.113532 -170.643962 
L 283.180816 -171.998499 
L 283.243509 -173.353036 
L 283.301966 -174.707573 
L 283.356637 -176.06211 
L 283.408052 -177.416647 
L 283.456799 -178.771184 
L 283.503513 -180.125722 
L 283.548852 -181.480259 
L 283.59348 -182.834796 
L 283.638046 -184.189333 
L 283.683166 -185.54387 
L 283.729408 -186.898407 
L 283.777273 -188.252944 
L 285.839375 -188.252944 
L 285.839375 -188.252944 
L 285.839375 -186.898407 
L 285.839375 -185.54387 
L 285.839375 -184.189333 
L 285.839375 -182.834796 
L 285.839375 -181.480259 
L 285.839375 -180.125722 
L 285.839375 -178.771184 
L 285.839375 -177.416647 
L 285.839375 -176.06211 
L 285.839375 -174.707573 
L 285.839375 -173.353036 
L 285.839375 -171.998499 
L 285.839375 -170.643962 
L 285.839375 -169.289425 
L 285.839375 -167.934888 
L 285.839375 -166.580351 
L 285.839375 -165.225813 
L 285.839375 -163.871276 
L 285.839375 -162.516739 
L 285.839375 -161.162202 
L 285.839375 -159.807665 
L 285.839375 -158.453128 
L 285.839375 -157.098591 
L 285.839375 -155.744054 
L 285.839375 -154.389517 
L 285.839375 -153.034979 
L 285.839375 -151.680442 
L 285.839375 -150.325905 
L 285.839375 -148.971368 
L 285.839375 -147.616831 
L 285.839375 -146.262294 
L 285.839375 -144.907757 
L 285.839375 -143.55322 
L 285.839375 -142.198683 
L 285.839375 -140.844145 
L 285.839375 -139.489608 
L 285.839375 -138.135071 
L 285.839375 -136.780534 
L 285.839375 -135.425997 
L 285.839375 -134.07146 
L 285.839375 -132.716923 
L 285.839375 -131.362386 
L 285.839375 -130.007849 
L 285.839375 -128.653312 
L 285.839375 -127.298774 
L 285.839375 -125.944237 
L 285.839375 -124.5897 
L 285.839375 -123.235163 
L 285.839375 -121.880626 
L 285.839375 -120.526089 
L 285.839375 -119.171552 
L 285.839375 -117.817015 
L 285.839375 -116.462478 
L 285.839375 -115.10794 
L 285.839375 -113.753403 
L 285.839375 -112.398866 
L 285.839375 -111.044329 
L 285.839375 -109.689792 
L 285.839375 -108.335255 
L 285.839375 -106.980718 
L 285.839375 -105.626181 
L 285.839375 -104.271644 
L 285.839375 -102.917106 
L 285.839375 -101.562569 
L 285.839375 -100.208032 
L 285.839375 -98.853495 
L 285.839375 -97.498958 
L 285.839375 -96.144421 
L 285.839375 -94.789884 
L 285.839375 -93.435347 
L 285.839375 -92.08081 
L 285.839375 -90.726273 
L 285.839375 -89.371735 
L 285.839375 -88.017198 
L 285.839375 -86.662661 
L 285.839375 -85.308124 
L 285.839375 -83.953587 
L 285.839375 -82.59905 
L 285.839375 -81.244513 
L 285.839375 -79.889976 
L 285.839375 -78.535439 
L 285.839375 -77.180901 
L 285.839375 -75.826364 
L 285.839375 -74.471827 
L 285.839375 -73.11729 
L 285.839375 -71.762753 
L 285.839375 -70.408216 
L 285.839375 -69.053679 
L 285.839375 -67.699142 
L 285.839375 -66.344605 
L 285.839375 -64.990068 
L 285.839375 -63.63553 
L 285.839375 -62.280993 
L 285.839375 -60.926456 
L 285.839375 -59.571919 
L 285.839375 -58.217382 
L 285.839375 -56.862845 
L 285.839375 -55.508308 
L 285.839375 -54.153771 
z
" style="stroke: #2a2a2a; stroke-width: 1.25"/>
    </defs>
    <g clip-path="url(#p1f4d8ea916)">
     <use xlink:href="#me184f71b90" x="0" y="352.474375" style="fill: #11467a; stroke: #2a2a2a; stroke-width: 1.25"/>
    </g>
   </g>
   <g id="PolyCollection_4">
    <defs>
     <path id="m44be95c2bc" d="M 296.4 -67.343853 
L 285.839375 -67.343853 
L 285.839375 -68.742801 
L 285.839375 -70.14175 
L 285.839375 -71.540698 
L 285.839375 -72.939646 
L 285.839375 -74.338594 
L 285.839375 -75.737542 
L 285.839375 -77.13649 
L 285.839375 -78.535439 
L 285.839375 -79.934387 
L 285.839375 -81.333335 
L 285.839375 -82.732283 
L 285.839375 -84.131231 
L 285.839375 -85.530179 
L 285.839375 -86.929128 
L 285.839375 -88.328076 
L 285.839375 -89.727024 
L 285.839375 -91.125972 
L 285.839375 -92.52492 
L 285.839375 -93.923868 
L 285.839375 -95.322816 
L 285.839375 -96.721765 
L 285.839375 -98.120713 
L 285.839375 -99.519661 
L 285.839375 -100.918609 
L 285.839375 -102.317557 
L 285.839375 -103.716505 
L 285.839375 -105.115454 
L 285.839375 -106.514402 
L 285.839375 -107.91335 
L 285.839375 -109.312298 
L 285.839375 -110.711246 
L 285.839375 -112.110194 
L 285.839375 -113.509143 
L 285.839375 -114.908091 
L 285.839375 -116.307039 
L 285.839375 -117.705987 
L 285.839375 -119.104935 
L 285.839375 -120.503883 
L 285.839375 -121.902832 
L 285.839375 -123.30178 
L 285.839375 -124.700728 
L 285.839375 -126.099676 
L 285.839375 -127.498624 
L 285.839375 -128.897572 
L 285.839375 -130.29652 
L 285.839375 -131.695469 
L 285.839375 -133.094417 
L 285.839375 -134.493365 
L 285.839375 -135.892313 
L 285.839375 -137.291261 
L 285.839375 -138.690209 
L 285.839375 -140.089158 
L 285.839375 -141.488106 
L 285.839375 -142.887054 
L 285.839375 -144.286002 
L 285.839375 -145.68495 
L 285.839375 -147.083898 
L 285.839375 -148.482847 
L 285.839375 -149.881795 
L 285.839375 -151.280743 
L 285.839375 -152.679691 
L 285.839375 -154.078639 
L 285.839375 -155.477587 
L 285.839375 -156.876535 
L 285.839375 -158.275484 
L 285.839375 -159.674432 
L 285.839375 -161.07338 
L 285.839375 -162.472328 
L 285.839375 -163.871276 
L 285.839375 -165.270224 
L 285.839375 -166.669173 
L 285.839375 -168.068121 
L 285.839375 -169.467069 
L 285.839375 -170.866017 
L 285.839375 -172.264965 
L 285.839375 -173.663913 
L 285.839375 -175.062862 
L 285.839375 -176.46181 
L 285.839375 -177.860758 
L 285.839375 -179.259706 
L 285.839375 -180.658654 
L 285.839375 -182.057602 
L 285.839375 -183.456551 
L 285.839375 -184.855499 
L 285.839375 -186.254447 
L 285.839375 -187.653395 
L 285.839375 -189.052343 
L 285.839375 -190.451291 
L 285.839375 -191.850239 
L 285.839375 -193.249188 
L 285.839375 -194.648136 
L 285.839375 -196.047084 
L 285.839375 -197.446032 
L 285.839375 -198.84498 
L 285.839375 -200.243928 
L 285.839375 -201.642877 
L 285.839375 -203.041825 
L 285.839375 -204.440773 
L 285.839375 -205.839721 
L 290.836272 -205.839721 
L 290.836272 -205.839721 
L 291.013264 -204.440773 
L 291.166441 -203.041825 
L 291.301213 -201.642877 
L 291.424629 -200.243928 
L 291.544867 -198.84498 
L 291.67061 -197.446032 
L 291.810367 -196.047084 
L 291.971787 -194.648136 
L 292.161051 -193.249188 
L 292.38239 -191.850239 
L 292.637784 -190.451291 
L 292.926872 -189.052343 
L 293.247085 -187.653395 
L 293.593994 -186.254447 
L 293.96184 -184.855499 
L 294.344197 -183.456551 
L 294.734702 -182.057602 
L 295.127796 -180.658654 
L 295.519401 -179.259706 
L 295.907481 -177.860758 
L 296.292451 -176.46181 
L 296.677403 -175.062862 
L 297.068153 -173.663913 
L 297.473116 -172.264965 
L 297.90305 -170.866017 
L 298.370686 -169.467069 
L 298.890305 -168.068121 
L 299.47728 -166.669173 
L 300.147611 -165.270224 
L 300.917473 -163.871276 
L 301.802766 -162.472328 
L 302.818661 -161.07338 
L 303.979123 -159.674432 
L 305.296398 -158.275484 
L 306.780436 -156.876535 
L 308.438272 -155.477587 
L 310.27337 -154.078639 
L 312.284967 -152.679691 
L 314.467467 -151.280743 
L 316.809962 -149.881795 
L 319.295928 -148.482847 
L 321.903181 -147.083898 
L 324.604115 -145.68495 
L 327.366268 -144.286002 
L 330.153206 -142.887054 
L 332.925676 -141.488106 
L 335.642982 -140.089158 
L 338.264483 -138.690209 
L 340.751118 -137.291261 
L 343.066851 -135.892313 
L 345.179947 -134.493365 
L 347.063993 -133.094417 
L 348.698631 -131.695469 
L 350.069955 -130.29652 
L 351.170616 -128.897572 
L 351.999628 -127.498624 
L 352.561951 -126.099676 
L 352.86789 -124.700728 
L 352.932375 -123.30178 
L 352.774162 -121.902832 
L 352.414995 -120.503883 
L 351.87875 -119.104935 
L 351.19058 -117.705987 
L 350.376051 -116.307039 
L 349.460294 -114.908091 
L 348.467154 -113.509143 
L 347.418376 -112.110194 
L 346.332837 -110.711246 
L 345.22587 -109.312298 
L 344.108718 -107.91335 
L 342.98817 -106.514402 
L 341.866422 -105.115454 
L 340.741185 -103.716505 
L 339.606069 -102.317557 
L 338.45123 -100.918609 
L 337.26424 -99.519661 
L 336.031147 -98.120713 
L 334.737635 -96.721765 
L 333.370214 -95.322816 
L 331.917344 -93.923868 
L 330.370418 -92.52492 
L 328.724533 -91.125972 
L 326.97899 -89.727024 
L 325.137512 -88.328076 
L 323.208164 -86.929128 
L 321.202996 -85.530179 
L 319.137465 -84.131231 
L 317.029675 -82.732283 
L 314.899507 -81.333335 
L 312.76771 -79.934387 
L 310.655008 -78.535439 
L 308.581288 -77.13649 
L 306.564901 -75.737542 
L 304.622111 -74.338594 
L 302.766714 -72.939646 
L 301.009807 -71.540698 
L 299.359723 -70.14175 
L 297.822089 -68.742801 
L 296.4 -67.343853 
z
" style="stroke: #2a2a2a; stroke-width: 1.25"/>
    </defs>
    <g clip-path="url(#p1f4d8ea916)">
     <use xlink:href="#m44be95c2bc" x="0" y="352.474375" style="fill: #cf1e1e; stroke: #2a2a2a; stroke-width: 1.25"/>
    </g>
   </g>
   <g id="PolyCollection_5">
    <defs>
     <path id="m7e68e96e51" d="M 453.571875 -51.955424 
L 425.328985 -51.955424 
L 424.480512 -52.854747 
L 423.715375 -53.754071 
L 423.040326 -54.653395 
L 422.461099 -55.552719 
L 421.982301 -56.452043 
L 421.60732 -57.351366 
L 421.33826 -58.25069 
L 421.175898 -59.150014 
L 421.119675 -60.049338 
L 421.167702 -60.948662 
L 421.316806 -61.847986 
L 421.562597 -62.747309 
L 421.899554 -63.646633 
L 422.321145 -64.545957 
L 422.819956 -65.445281 
L 423.387843 -66.344605 
L 424.016089 -67.243928 
L 424.69558 -68.143252 
L 425.416973 -69.042576 
L 426.170872 -69.9419 
L 426.947993 -70.841224 
L 427.739332 -71.740548 
L 428.536303 -72.639871 
L 429.330878 -73.539195 
L 430.1157 -74.438519 
L 430.884178 -75.337843 
L 431.630558 -76.237167 
L 432.349978 -77.13649 
L 433.038497 -78.035814 
L 433.6931 -78.935138 
L 434.311684 -79.834462 
L 434.893027 -80.733786 
L 435.436737 -81.63311 
L 435.943185 -82.532433 
L 436.413429 -83.431757 
L 436.849128 -84.331081 
L 437.252444 -85.230405 
L 437.625948 -86.129729 
L 437.97252 -87.029052 
L 438.295252 -87.928376 
L 438.597355 -88.8277 
L 438.882072 -89.727024 
L 439.152599 -90.626348 
L 439.412011 -91.525671 
L 439.663207 -92.424995 
L 439.908856 -93.324319 
L 440.151363 -94.223643 
L 440.392832 -95.122967 
L 440.635057 -96.022291 
L 440.879511 -96.921614 
L 441.127343 -97.820938 
L 441.379391 -98.720262 
L 441.636195 -99.619586 
L 441.89802 -100.51891 
L 442.164874 -101.418233 
L 442.436545 -102.317557 
L 442.712622 -103.216881 
L 442.99253 -104.116205 
L 443.275558 -105.015529 
L 443.56089 -105.914853 
L 443.84763 -106.814176 
L 444.134829 -107.7135 
L 444.421506 -108.612824 
L 444.706672 -109.512148 
L 444.989344 -110.411472 
L 445.268561 -111.310795 
L 445.543397 -112.210119 
L 445.812974 -113.109443 
L 446.076466 -114.008767 
L 446.333107 -114.908091 
L 446.582201 -115.807415 
L 446.823122 -116.706738 
L 447.055321 -117.606062 
L 447.278328 -118.505386 
L 447.491756 -119.40471 
L 447.695307 -120.304034 
L 447.888772 -121.203357 
L 448.072033 -122.102681 
L 448.24507 -123.002005 
L 448.407958 -123.901329 
L 448.560874 -124.800653 
L 448.70409 -125.699977 
L 448.837979 -126.5993 
L 448.963008 -127.498624 
L 449.079736 -128.397948 
L 449.188806 -129.297272 
L 449.290941 -130.196596 
L 449.386929 -131.095919 
L 449.477613 -131.995243 
L 449.563882 -132.894567 
L 449.646647 -133.793891 
L 449.726832 -134.693215 
L 449.805355 -135.592539 
L 449.88311 -136.491862 
L 449.960948 -137.391186 
L 450.039663 -138.29051 
L 450.119977 -139.189834 
L 450.202523 -140.089158 
L 450.287833 -140.988481 
L 453.571875 -140.988481 
L 453.571875 -140.988481 
L 453.571875 -140.089158 
L 453.571875 -139.189834 
L 453.571875 -138.29051 
L 453.571875 -137.391186 
L 453.571875 -136.491862 
L 453.571875 -135.592539 
L 453.571875 -134.693215 
L 453.571875 -133.793891 
L 453.571875 -132.894567 
L 453.571875 -131.995243 
L 453.571875 -131.095919 
L 453.571875 -130.196596 
L 453.571875 -129.297272 
L 453.571875 -128.397948 
L 453.571875 -127.498624 
L 453.571875 -126.5993 
L 453.571875 -125.699977 
L 453.571875 -124.800653 
L 453.571875 -123.901329 
L 453.571875 -123.002005 
L 453.571875 -122.102681 
L 453.571875 -121.203357 
L 453.571875 -120.304034 
L 453.571875 -119.40471 
L 453.571875 -118.505386 
L 453.571875 -117.606062 
L 453.571875 -116.706738 
L 453.571875 -115.807415 
L 453.571875 -114.908091 
L 453.571875 -114.008767 
L 453.571875 -113.109443 
L 453.571875 -112.210119 
L 453.571875 -111.310795 
L 453.571875 -110.411472 
L 453.571875 -109.512148 
L 453.571875 -108.612824 
L 453.571875 -107.7135 
L 453.571875 -106.814176 
L 453.571875 -105.914853 
L 453.571875 -105.015529 
L 453.571875 -104.116205 
L 453.571875 -103.216881 
L 453.571875 -102.317557 
L 453.571875 -101.418233 
L 453.571875 -100.51891 
L 453.571875 -99.619586 
L 453.571875 -98.720262 
L 453.571875 -97.820938 
L 453.571875 -96.921614 
L 453.571875 -96.022291 
L 453.571875 -95.122967 
L 453.571875 -94.223643 
L 453.571875 -93.324319 
L 453.571875 -92.424995 
L 453.571875 -91.525671 
L 453.571875 -90.626348 
L 453.571875 -89.727024 
L 453.571875 -88.8277 
L 453.571875 -87.928376 
L 453.571875 -87.029052 
L 453.571875 -86.129729 
L 453.571875 -85.230405 
L 453.571875 -84.331081 
L 453.571875 -83.431757 
L 453.571875 -82.532433 
L 453.571875 -81.63311 
L 453.571875 -80.733786 
L 453.571875 -79.834462 
L 453.571875 -78.935138 
L 453.571875 -78.035814 
L 453.571875 -77.13649 
L 453.571875 -76.237167 
L 453.571875 -75.337843 
L 453.571875 -74.438519 
L 453.571875 -73.539195 
L 453.571875 -72.639871 
L 453.571875 -71.740548 
L 453.571875 -70.841224 
L 453.571875 -69.9419 
L 453.571875 -69.042576 
L 453.571875 -68.143252 
L 453.571875 -67.243928 
L 453.571875 -66.344605 
L 453.571875 -65.445281 
L 453.571875 -64.545957 
L 453.571875 -63.646633 
L 453.571875 -62.747309 
L 453.571875 -61.847986 
L 453.571875 -60.948662 
L 453.571875 -60.049338 
L 453.571875 -59.150014 
L 453.571875 -58.25069 
L 453.571875 -57.351366 
L 453.571875 -56.452043 
L 453.571875 -55.552719 
L 453.571875 -54.653395 
L 453.571875 -53.754071 
L 453.571875 -52.854747 
L 453.571875 -51.955424 
z
" style="stroke: #2a2a2a; stroke-width: 1.25"/>
    </defs>
    <g clip-path="url(#p1f4d8ea916)">
     <use xlink:href="#m7e68e96e51" x="0" y="352.474375" style="fill: #11467a; stroke: #2a2a2a; stroke-width: 1.25"/>
    </g>
   </g>
   <g id="PolyCollection_6">
    <defs>
     <path id="mfe36ba04c0" d="M 462.522793 -71.740548 
L 453.571875 -71.740548 
L 453.571875 -73.51699 
L 453.571875 -75.293432 
L 453.571875 -77.069874 
L 453.571875 -78.846316 
L 453.571875 -80.622758 
L 453.571875 -82.3992 
L 453.571875 -84.175642 
L 453.571875 -85.952084 
L 453.571875 -87.728526 
L 453.571875 -89.504969 
L 453.571875 -91.281411 
L 453.571875 -93.057853 
L 453.571875 -94.834295 
L 453.571875 -96.610737 
L 453.571875 -98.387179 
L 453.571875 -100.163621 
L 453.571875 -101.940063 
L 453.571875 -103.716505 
L 453.571875 -105.492948 
L 453.571875 -107.26939 
L 453.571875 -109.045832 
L 453.571875 -110.822274 
L 453.571875 -112.598716 
L 453.571875 -114.375158 
L 453.571875 -116.1516 
L 453.571875 -117.928042 
L 453.571875 -119.704484 
L 453.571875 -121.480927 
L 453.571875 -123.257369 
L 453.571875 -125.033811 
L 453.571875 -126.810253 
L 453.571875 -128.586695 
L 453.571875 -130.363137 
L 453.571875 -132.139579 
L 453.571875 -133.916021 
L 453.571875 -135.692463 
L 453.571875 -137.468905 
L 453.571875 -139.245348 
L 453.571875 -141.02179 
L 453.571875 -142.798232 
L 453.571875 -144.574674 
L 453.571875 -146.351116 
L 453.571875 -148.127558 
L 453.571875 -149.904 
L 453.571875 -151.680442 
L 453.571875 -153.456884 
L 453.571875 -155.233327 
L 453.571875 -157.009769 
L 453.571875 -158.786211 
L 453.571875 -160.562653 
L 453.571875 -162.339095 
L 453.571875 -164.115537 
L 453.571875 -165.891979 
L 453.571875 -167.668421 
L 453.571875 -169.444863 
L 453.571875 -171.221306 
L 453.571875 -172.997748 
L 453.571875 -174.77419 
L 453.571875 -176.550632 
L 453.571875 -178.327074 
L 453.571875 -180.103516 
L 453.571875 -181.879958 
L 453.571875 -183.6564 
L 453.571875 -185.432842 
L 453.571875 -187.209284 
L 453.571875 -188.985727 
L 453.571875 -190.762169 
L 453.571875 -192.538611 
L 453.571875 -194.315053 
L 453.571875 -196.091495 
L 453.571875 -197.867937 
L 453.571875 -199.644379 
L 453.571875 -201.420821 
L 453.571875 -203.197263 
L 453.571875 -204.973706 
L 453.571875 -206.750148 
L 453.571875 -208.52659 
L 453.571875 -210.303032 
L 453.571875 -212.079474 
L 453.571875 -213.855916 
L 453.571875 -215.632358 
L 453.571875 -217.4088 
L 453.571875 -219.185242 
L 453.571875 -220.961685 
L 453.571875 -222.738127 
L 453.571875 -224.514569 
L 453.571875 -226.291011 
L 453.571875 -228.067453 
L 453.571875 -229.843895 
L 453.571875 -231.620337 
L 453.571875 -233.396779 
L 453.571875 -235.173221 
L 453.571875 -236.949663 
L 453.571875 -238.726106 
L 453.571875 -240.502548 
L 453.571875 -242.27899 
L 453.571875 -244.055432 
L 453.571875 -245.831874 
L 453.571875 -247.608316 
L 456.019541 -247.608316 
L 456.019541 -247.608316 
L 456.121843 -245.831874 
L 456.209779 -244.055432 
L 456.284665 -242.27899 
L 456.348416 -240.502548 
L 456.40335 -238.726106 
L 456.452007 -236.949663 
L 456.496998 -235.173221 
L 456.540912 -233.396779 
L 456.58629 -231.620337 
L 456.63566 -229.843895 
L 456.691626 -228.067453 
L 456.756979 -226.291011 
L 456.834813 -224.514569 
L 456.928607 -222.738127 
L 457.042273 -220.961685 
L 457.18014 -219.185242 
L 457.346894 -217.4088 
L 457.547471 -215.632358 
L 457.786941 -213.855916 
L 458.070381 -212.079474 
L 458.402775 -210.303032 
L 458.788935 -208.52659 
L 459.233452 -206.750148 
L 459.740665 -204.973706 
L 460.314615 -203.197263 
L 460.958986 -201.420821 
L 461.676996 -199.644379 
L 462.471235 -197.867937 
L 463.343459 -196.091495 
L 464.294357 -194.315053 
L 465.323322 -192.538611 
L 466.428288 -190.762169 
L 467.605655 -188.985727 
L 468.850358 -187.209284 
L 470.156102 -185.432842 
L 471.515749 -183.6564 
L 472.921839 -181.879958 
L 474.367195 -180.103516 
L 475.845526 -178.327074 
L 477.35196 -176.550632 
L 478.883407 -174.77419 
L 480.438712 -172.997748 
L 482.018535 -171.221306 
L 483.624948 -169.444863 
L 485.260792 -167.668421 
L 486.92883 -165.891979 
L 488.630791 -164.115537 
L 490.366389 -162.339095 
L 492.132442 -160.562653 
L 493.922162 -158.786211 
L 495.724727 -157.009769 
L 497.525163 -155.233327 
L 499.304604 -153.456884 
L 501.040888 -151.680442 
L 502.709486 -149.904 
L 504.284675 -148.127558 
L 505.740864 -146.351116 
L 507.05396 -144.574674 
L 508.20264 -142.798232 
L 509.169412 -141.02179 
L 509.941357 -139.245348 
L 510.510483 -137.468905 
L 510.87367 -135.692463 
L 511.032217 -133.916021 
L 510.991071 -132.139579 
L 510.757854 -130.363137 
L 510.341814 -128.586695 
L 509.752852 -126.810253 
L 509.000748 -125.033811 
L 508.094676 -123.257369 
L 507.043048 -121.480927 
L 505.853686 -119.704484 
L 504.534246 -117.928042 
L 503.092803 -116.1516 
L 501.538474 -114.375158 
L 499.881943 -112.598716 
L 498.135803 -110.822274 
L 496.314628 -109.045832 
L 494.434747 -107.26939 
L 492.513757 -105.492948 
L 490.569813 -103.716505 
L 488.620797 -101.940063 
L 486.683467 -100.163621 
L 484.772695 -98.387179 
L 482.900871 -96.610737 
L 481.077543 -94.834295 
L 479.309322 -93.057853 
L 477.600043 -91.281411 
L 475.951145 -89.504969 
L 474.362215 -87.728526 
L 472.831626 -85.952084 
L 471.357185 -84.175642 
L 469.936733 -82.3992 
L 468.568634 -80.622758 
L 467.252122 -78.846316 
L 465.987477 -77.069874 
L 464.776052 -75.293432 
L 463.620152 -73.51699 
L 462.522793 -71.740548 
z
" style="stroke: #2a2a2a; stroke-width: 1.25"/>
    </defs>
    <g clip-path="url(#p1f4d8ea916)">
     <use xlink:href="#mfe36ba04c0" x="0" y="352.474375" style="fill: #cf1e1e; stroke: #2a2a2a; stroke-width: 1.25"/>
    </g>
   </g>
   <g id="PolyCollection_7">
    <defs>
     <path id="mceffe02ccd" d="M 621.304375 -50.85625 
L 562.233155 -50.85625 
L 560.630243 -51.289258 
L 559.184368 -51.722266 
L 557.907076 -52.155273 
L 556.808315 -52.588281 
L 555.896271 -53.021289 
L 555.177249 -53.454297 
L 554.655577 -53.887304 
L 554.333544 -54.320312 
L 554.211375 -54.75332 
L 554.287242 -55.186328 
L 554.557305 -55.619335 
L 555.01579 -56.052343 
L 555.655098 -56.485351 
L 556.465939 -56.918359 
L 557.4375 -57.351366 
L 558.55762 -57.784374 
L 559.812999 -58.217382 
L 561.189407 -58.65039 
L 562.671905 -59.083398 
L 564.245076 -59.516405 
L 565.893245 -59.949413 
L 567.600699 -60.382421 
L 569.351904 -60.815429 
L 571.131697 -61.248436 
L 572.925475 -61.681444 
L 574.719357 -62.114452 
L 576.50033 -62.54746 
L 578.256378 -62.980467 
L 579.976577 -63.413475 
L 581.651179 -63.846483 
L 583.271664 -64.279491 
L 584.830778 -64.712498 
L 586.322544 -65.145506 
L 587.742249 -65.578514 
L 589.086426 -66.011522 
L 590.352801 -66.444529 
L 591.540241 -66.877537 
L 592.648675 -67.310545 
L 593.679015 -67.743553 
L 594.63306 -68.176561 
L 595.513398 -68.609568 
L 596.323298 -69.042576 
L 597.066606 -69.475584 
L 597.747628 -69.908592 
L 598.37103 -70.341599 
L 598.941725 -70.774607 
L 599.464769 -71.207615 
L 599.945269 -71.640623 
L 600.388283 -72.07363 
L 600.798743 -72.506638 
L 601.181374 -72.939646 
L 601.540628 -73.372654 
L 601.880628 -73.805661 
L 602.205122 -74.238669 
L 602.517443 -74.671677 
L 602.820485 -75.104685 
L 603.116692 -75.537693 
L 603.408046 -75.9707 
L 603.696078 -76.403708 
L 603.981883 -76.836716 
L 604.26614 -77.269724 
L 604.549146 -77.702731 
L 604.830854 -78.135739 
L 605.110919 -78.568747 
L 605.388743 -79.001755 
L 605.663531 -79.434762 
L 605.934343 -79.86777 
L 606.200151 -80.300778 
L 606.459889 -80.733786 
L 606.71251 -81.166793 
L 606.957031 -81.599801 
L 607.192582 -82.032809 
L 607.418441 -82.465817 
L 607.634072 -82.898825 
L 607.839148 -83.331832 
L 608.033575 -83.76484 
L 608.217502 -84.197848 
L 608.391324 -84.630856 
L 608.555685 -85.063863 
L 608.711464 -85.496871 
L 608.859761 -85.929879 
L 609.001871 -86.362887 
L 609.139264 -86.795894 
L 609.273545 -87.228902 
L 609.406423 -87.66191 
L 609.539674 -88.094918 
L 609.675096 -88.527925 
L 609.814477 -88.960933 
L 609.95955 -89.393941 
L 610.111955 -89.826949 
L 610.273211 -90.259956 
L 610.444674 -90.692964 
L 610.627519 -91.125972 
L 610.822708 -91.55898 
L 611.030976 -91.991988 
L 611.25282 -92.424995 
L 611.488485 -92.858003 
L 611.737966 -93.291011 
L 612.00101 -93.724019 
L 621.304375 -93.724019 
L 621.304375 -93.724019 
L 621.304375 -93.291011 
L 621.304375 -92.858003 
L 621.304375 -92.424995 
L 621.304375 -91.991988 
L 621.304375 -91.55898 
L 621.304375 -91.125972 
L 621.304375 -90.692964 
L 621.304375 -90.259956 
L 621.304375 -89.826949 
L 621.304375 -89.393941 
L 621.304375 -88.960933 
L 621.304375 -88.527925 
L 621.304375 -88.094918 
L 621.304375 -87.66191 
L 621.304375 -87.228902 
L 621.304375 -86.795894 
L 621.304375 -86.362887 
L 621.304375 -85.929879 
L 621.304375 -85.496871 
L 621.304375 -85.063863 
L 621.304375 -84.630856 
L 621.304375 -84.197848 
L 621.304375 -83.76484 
L 621.304375 -83.331832 
L 621.304375 -82.898825 
L 621.304375 -82.465817 
L 621.304375 -82.032809 
L 621.304375 -81.599801 
L 621.304375 -81.166793 
L 621.304375 -80.733786 
L 621.304375 -80.300778 
L 621.304375 -79.86777 
L 621.304375 -79.434762 
L 621.304375 -79.001755 
L 621.304375 -78.568747 
L 621.304375 -78.135739 
L 621.304375 -77.702731 
L 621.304375 -77.269724 
L 621.304375 -76.836716 
L 621.304375 -76.403708 
L 621.304375 -75.9707 
L 621.304375 -75.537693 
L 621.304375 -75.104685 
L 621.304375 -74.671677 
L 621.304375 -74.238669 
L 621.304375 -73.805661 
L 621.304375 -73.372654 
L 621.304375 -72.939646 
L 621.304375 -72.506638 
L 621.304375 -72.07363 
L 621.304375 -71.640623 
L 621.304375 -71.207615 
L 621.304375 -70.774607 
L 621.304375 -70.341599 
L 621.304375 -69.908592 
L 621.304375 -69.475584 
L 621.304375 -69.042576 
L 621.304375 -68.609568 
L 621.304375 -68.176561 
L 621.304375 -67.743553 
L 621.304375 -67.310545 
L 621.304375 -66.877537 
L 621.304375 -66.444529 
L 621.304375 -66.011522 
L 621.304375 -65.578514 
L 621.304375 -65.145506 
L 621.304375 -64.712498 
L 621.304375 -64.279491 
L 621.304375 -63.846483 
L 621.304375 -63.413475 
L 621.304375 -62.980467 
L 621.304375 -62.54746 
L 621.304375 -62.114452 
L 621.304375 -61.681444 
L 621.304375 -61.248436 
L 621.304375 -60.815429 
L 621.304375 -60.382421 
L 621.304375 -59.949413 
L 621.304375 -59.516405 
L 621.304375 -59.083398 
L 621.304375 -58.65039 
L 621.304375 -58.217382 
L 621.304375 -57.784374 
L 621.304375 -57.351366 
L 621.304375 -56.918359 
L 621.304375 -56.485351 
L 621.304375 -56.052343 
L 621.304375 -55.619335 
L 621.304375 -55.186328 
L 621.304375 -54.75332 
L 621.304375 -54.320312 
L 621.304375 -53.887304 
L 621.304375 -53.454297 
L 621.304375 -53.021289 
L 621.304375 -52.588281 
L 621.304375 -52.155273 
L 621.304375 -51.722266 
L 621.304375 -51.289258 
L 621.304375 -50.85625 
z
" style="stroke: #2a2a2a; stroke-width: 1.25"/>
    </defs>
    <g clip-path="url(#p1f4d8ea916)">
     <use xlink:href="#mceffe02ccd" x="0" y="352.474375" style="fill: #11467a; stroke: #2a2a2a; stroke-width: 1.25"/>
    </g>
   </g>
   <g id="PolyCollection_8">
    <defs>
     <path id="m4e36ae1da6" d="M 628.807627 -81.63311 
L 621.304375 -81.63311 
L 621.304375 -84.009101 
L 621.304375 -86.385092 
L 621.304375 -88.761083 
L 621.304375 -91.137075 
L 621.304375 -93.513066 
L 621.304375 -95.889057 
L 621.304375 -98.265049 
L 621.304375 -100.64104 
L 621.304375 -103.017031 
L 621.304375 -105.393023 
L 621.304375 -107.769014 
L 621.304375 -110.145005 
L 621.304375 -112.520997 
L 621.304375 -114.896988 
L 621.304375 -117.272979 
L 621.304375 -119.648971 
L 621.304375 -122.024962 
L 621.304375 -124.400953 
L 621.304375 -126.776945 
L 621.304375 -129.152936 
L 621.304375 -131.528927 
L 621.304375 -133.904919 
L 621.304375 -136.28091 
L 621.304375 -138.656901 
L 621.304375 -141.032892 
L 621.304375 -143.408884 
L 621.304375 -145.784875 
L 621.304375 -148.160866 
L 621.304375 -150.536858 
L 621.304375 -152.912849 
L 621.304375 -155.28884 
L 621.304375 -157.664832 
L 621.304375 -160.040823 
L 621.304375 -162.416814 
L 621.304375 -164.792806 
L 621.304375 -167.168797 
L 621.304375 -169.544788 
L 621.304375 -171.92078 
L 621.304375 -174.296771 
L 621.304375 -176.672762 
L 621.304375 -179.048754 
L 621.304375 -181.424745 
L 621.304375 -183.800736 
L 621.304375 -186.176728 
L 621.304375 -188.552719 
L 621.304375 -190.92871 
L 621.304375 -193.304701 
L 621.304375 -195.680693 
L 621.304375 -198.056684 
L 621.304375 -200.432675 
L 621.304375 -202.808667 
L 621.304375 -205.184658 
L 621.304375 -207.560649 
L 621.304375 -209.936641 
L 621.304375 -212.312632 
L 621.304375 -214.688623 
L 621.304375 -217.064615 
L 621.304375 -219.440606 
L 621.304375 -221.816597 
L 621.304375 -224.192589 
L 621.304375 -226.56858 
L 621.304375 -228.944571 
L 621.304375 -231.320563 
L 621.304375 -233.696554 
L 621.304375 -236.072545 
L 621.304375 -238.448537 
L 621.304375 -240.824528 
L 621.304375 -243.200519 
L 621.304375 -245.57651 
L 621.304375 -247.952502 
L 621.304375 -250.328493 
L 621.304375 -252.704484 
L 621.304375 -255.080476 
L 621.304375 -257.456467 
L 621.304375 -259.832458 
L 621.304375 -262.20845 
L 621.304375 -264.584441 
L 621.304375 -266.960432 
L 621.304375 -269.336424 
L 621.304375 -271.712415 
L 621.304375 -274.088406 
L 621.304375 -276.464398 
L 621.304375 -278.840389 
L 621.304375 -281.21638 
L 621.304375 -283.592372 
L 621.304375 -285.968363 
L 621.304375 -288.344354 
L 621.304375 -290.720346 
L 621.304375 -293.096337 
L 621.304375 -295.472328 
L 621.304375 -297.848319 
L 621.304375 -300.224311 
L 621.304375 -302.600302 
L 621.304375 -304.976293 
L 621.304375 -307.352285 
L 621.304375 -309.728276 
L 621.304375 -312.104267 
L 621.304375 -314.480259 
L 621.304375 -316.85625 
L 622.798337 -316.85625 
L 622.798337 -316.85625 
L 622.827306 -314.480259 
L 622.846405 -312.104267 
L 622.858185 -309.728276 
L 622.865909 -307.352285 
L 622.873388 -304.976293 
L 622.884782 -302.600302 
L 622.904391 -300.224311 
L 622.936456 -297.848319 
L 622.98499 -295.472328 
L 623.05365 -293.096337 
L 623.145667 -290.720346 
L 623.263833 -288.344354 
L 623.41053 -285.968363 
L 623.587821 -283.592372 
L 623.797554 -281.21638 
L 624.041497 -278.840389 
L 624.321463 -276.464398 
L 624.639434 -274.088406 
L 624.997659 -271.712415 
L 625.398731 -269.336424 
L 625.845636 -266.960432 
L 626.341773 -264.584441 
L 626.890944 -262.20845 
L 627.497319 -259.832458 
L 628.165362 -257.456467 
L 628.899722 -255.080476 
L 629.705079 -252.704484 
L 630.585939 -250.328493 
L 631.546377 -247.952502 
L 632.589729 -245.57651 
L 633.718236 -243.200519 
L 634.932666 -240.824528 
L 636.231929 -238.448537 
L 637.612707 -236.072545 
L 639.069138 -233.696554 
L 640.592578 -231.320563 
L 642.171462 -228.944571 
L 643.79129 -226.56858 
L 645.434749 -224.192589 
L 647.081965 -221.816597 
L 648.710899 -219.440606 
L 650.297873 -217.064615 
L 651.8182 -214.688623 
L 653.246927 -212.312632 
L 654.559645 -209.936641 
L 655.733355 -207.560649 
L 656.747361 -205.184658 
L 657.584149 -202.808667 
L 658.230214 -200.432675 
L 658.676796 -198.056684 
L 658.920467 -195.680693 
L 658.963541 -193.304701 
L 658.814247 -190.92871 
L 658.48665 -188.552719 
L 658.000293 -186.176728 
L 657.379566 -183.800736 
L 656.652805 -181.424745 
L 655.851177 -179.048754 
L 655.007381 -176.672762 
L 654.15424 -174.296771 
L 653.323262 -171.92078 
L 652.543232 -169.544788 
L 651.838933 -167.168797 
L 651.23005 -164.792806 
L 650.730336 -162.416814 
L 650.347077 -160.040823 
L 650.080887 -157.664832 
L 649.925852 -155.28884 
L 649.87001 -152.912849 
L 649.896131 -150.536858 
L 649.982753 -148.160866 
L 650.105404 -145.784875 
L 650.237932 -143.408884 
L 650.35386 -141.032892 
L 650.42768 -138.656901 
L 650.436016 -136.28091 
L 650.358586 -133.904919 
L 650.178928 -131.528927 
L 649.884865 -129.152936 
L 649.468706 -126.776945 
L 648.927201 -124.400953 
L 648.261293 -122.024962 
L 647.475703 -119.648971 
L 646.578401 -117.272979 
L 645.580017 -114.896988 
L 644.493227 -112.520997 
L 643.33216 -110.145005 
L 642.111848 -107.769014 
L 640.847729 -105.393023 
L 639.555223 -103.017031 
L 638.249367 -100.64104 
L 636.944514 -98.265049 
L 635.654087 -95.889057 
L 634.390378 -93.513066 
L 633.164397 -91.137075 
L 631.985756 -88.761083 
L 630.862589 -86.385092 
L 629.801514 -84.009101 
L 628.807627 -81.63311 
z
" style="stroke: #2a2a2a; stroke-width: 1.25"/>
    </defs>
    <g clip-path="url(#p1f4d8ea916)">
     <use xlink:href="#m4e36ae1da6" x="0" y="352.474375" style="fill: #cf1e1e; stroke: #2a2a2a; stroke-width: 1.25"/>
    </g>
   </g>
   <g id="patch_3">
    <path d="M 118.106875 303.816472 
L 118.106875 303.816472 
L 118.106875 303.816472 
L 118.106875 303.816472 
z
" clip-path="url(#p1f4d8ea916)" style="fill: #11467a; stroke: #2a2a2a; stroke-width: 1.25; stroke-linejoin: miter"/>
   </g>
   <g id="patch_4">
    <path d="M 118.106875 303.816472 
L 118.106875 303.816472 
L 118.106875 303.816472 
L 118.106875 303.816472 
z
" clip-path="url(#p1f4d8ea916)" style="fill: #cf1e1e; stroke: #2a2a2a; stroke-width: 1.25; stroke-linejoin: miter"/>
   </g>
   <g id="matplotlib.axis_1">
    <g id="xtick_1">
     <g id="line2d_1">
      <defs>
       <path id="meadedd93c3" d="M 0 0 
L 0 3.5 
" style="stroke: #000000; stroke-width: 0.8"/>
      </defs>
      <g>
       <use xlink:href="#meadedd93c3" x="118.106875" y="314.918125" style="stroke: #000000; stroke-width: 0.8"/>
      </g>
     </g>
     <g id="text_1">
      <!-- 300 ng/kb -->
      <g transform="translate(92.877188 329.516563) scale(0.1 -0.1)">
       <defs>
        <path id="DejaVuSans-33" d="M 2597 2516 
Q 3050 2419 3304 2112 
Q 3559 1806 3559 1356 
Q 3559 666 3084 287 
Q 2609 -91 1734 -91 
Q 1441 -91 1130 -33 
Q 819 25 488 141 
L 488 750 
Q 750 597 1062 519 
Q 1375 441 1716 441 
Q 2309 441 2620 675 
Q 2931 909 2931 1356 
Q 2931 1769 2642 2001 
Q 2353 2234 1838 2234 
L 1294 2234 
L 1294 2753 
L 1863 2753 
Q 2328 2753 2575 2939 
Q 2822 3125 2822 3475 
Q 2822 3834 2567 4026 
Q 2313 4219 1838 4219 
Q 1578 4219 1281 4162 
Q 984 4106 628 3988 
L 628 4550 
Q 988 4650 1302 4700 
Q 1616 4750 1894 4750 
Q 2613 4750 3031 4423 
Q 3450 4097 3450 3541 
Q 3450 3153 3228 2886 
Q 3006 2619 2597 2516 
z
" transform="scale(0.015625)"/>
        <path id="DejaVuSans-30" d="M 2034 4250 
Q 1547 4250 1301 3770 
Q 1056 3291 1056 2328 
Q 1056 1369 1301 889 
Q 1547 409 2034 409 
Q 2525 409 2770 889 
Q 3016 1369 3016 2328 
Q 3016 3291 2770 3770 
Q 2525 4250 2034 4250 
z
M 2034 4750 
Q 2819 4750 3233 4129 
Q 3647 3509 3647 2328 
Q 3647 1150 3233 529 
Q 2819 -91 2034 -91 
Q 1250 -91 836 529 
Q 422 1150 422 2328 
Q 422 3509 836 4129 
Q 1250 4750 2034 4750 
z
" transform="scale(0.015625)"/>
        <path id="DejaVuSans-20" transform="scale(0.015625)"/>
        <path id="DejaVuSans-6e" d="M 3513 2113 
L 3513 0 
L 2938 0 
L 2938 2094 
Q 2938 2591 2744 2837 
Q 2550 3084 2163 3084 
Q 1697 3084 1428 2787 
Q 1159 2491 1159 1978 
L 1159 0 
L 581 0 
L 581 3500 
L 1159 3500 
L 1159 2956 
Q 1366 3272 1645 3428 
Q 1925 3584 2291 3584 
Q 2894 3584 3203 3211 
Q 3513 2838 3513 2113 
z
" transform="scale(0.015625)"/>
        <path id="DejaVuSans-67" d="M 2906 1791 
Q 2906 2416 2648 2759 
Q 2391 3103 1925 3103 
Q 1463 3103 1205 2759 
Q 947 2416 947 1791 
Q 947 1169 1205 825 
Q 1463 481 1925 481 
Q 2391 481 2648 825 
Q 2906 1169 2906 1791 
z
M 3481 434 
Q 3481 -459 3084 -895 
Q 2688 -1331 1869 -1331 
Q 1566 -1331 1297 -1286 
Q 1028 -1241 775 -1147 
L 775 -588 
Q 1028 -725 1275 -790 
Q 1522 -856 1778 -856 
Q 2344 -856 2625 -561 
Q 2906 -266 2906 331 
L 2906 616 
Q 2728 306 2450 153 
Q 2172 0 1784 0 
Q 1141 0 747 490 
Q 353 981 353 1791 
Q 353 2603 747 3093 
Q 1141 3584 1784 3584 
Q 2172 3584 2450 3431 
Q 2728 3278 2906 2969 
L 2906 3500 
L 3481 3500 
L 3481 434 
z
" transform="scale(0.015625)"/>
        <path id="DejaVuSans-2f" d="M 1625 4666 
L 2156 4666 
L 531 -594 
L 0 -594 
L 1625 4666 
z
" transform="scale(0.015625)"/>
        <path id="DejaVuSans-6b" d="M 581 4863 
L 1159 4863 
L 1159 1991 
L 2875 3500 
L 3609 3500 
L 1753 1863 
L 3688 0 
L 2938 0 
L 1159 1709 
L 1159 0 
L 581 0 
L 581 4863 
z
" transform="scale(0.015625)"/>
        <path id="DejaVuSans-62" d="M 3116 1747 
Q 3116 2381 2855 2742 
Q 2594 3103 2138 3103 
Q 1681 3103 1420 2742 
Q 1159 2381 1159 1747 
Q 1159 1113 1420 752 
Q 1681 391 2138 391 
Q 2594 391 2855 752 
Q 3116 1113 3116 1747 
z
M 1159 2969 
Q 1341 3281 1617 3432 
Q 1894 3584 2278 3584 
Q 2916 3584 3314 3078 
Q 3713 2572 3713 1747 
Q 3713 922 3314 415 
Q 2916 -91 2278 -91 
Q 1894 -91 1617 61 
Q 1341 213 1159 525 
L 1159 0 
L 581 0 
L 581 4863 
L 1159 4863 
L 1159 2969 
z
" transform="scale(0.015625)"/>
       </defs>
       <use xlink:href="#DejaVuSans-33"/>
       <use xlink:href="#DejaVuSans-30" x="63.623047"/>
       <use xlink:href="#DejaVuSans-30" x="127.246094"/>
       <use xlink:href="#DejaVuSans-20" x="190.869141"/>
       <use xlink:href="#DejaVuSans-6e" x="222.65625"/>
       <use xlink:href="#DejaVuSans-67" x="286.035156"/>
       <use xlink:href="#DejaVuSans-2f" x="349.511719"/>
       <use xlink:href="#DejaVuSans-6b" x="383.203125"/>
       <use xlink:href="#DejaVuSans-62" x="441.113281"/>
      </g>
     </g>
    </g>
    <g id="xtick_2">
     <g id="line2d_2">
      <g>
       <use xlink:href="#meadedd93c3" x="285.839375" y="314.918125" style="stroke: #000000; stroke-width: 0.8"/>
      </g>
     </g>
     <g id="text_2">
      <!-- 200 ng/kb -->
      <g transform="translate(260.609688 329.516563) scale(0.1 -0.1)">
       <defs>
        <path id="DejaVuSans-32" d="M 1228 531 
L 3431 531 
L 3431 0 
L 469 0 
L 469 531 
Q 828 903 1448 1529 
Q 2069 2156 2228 2338 
Q 2531 2678 2651 2914 
Q 2772 3150 2772 3378 
Q 2772 3750 2511 3984 
Q 2250 4219 1831 4219 
Q 1534 4219 1204 4116 
Q 875 4013 500 3803 
L 500 4441 
Q 881 4594 1212 4672 
Q 1544 4750 1819 4750 
Q 2544 4750 2975 4387 
Q 3406 4025 3406 3419 
Q 3406 3131 3298 2873 
Q 3191 2616 2906 2266 
Q 2828 2175 2409 1742 
Q 1991 1309 1228 531 
z
" transform="scale(0.015625)"/>
       </defs>
       <use xlink:href="#DejaVuSans-32"/>
       <use xlink:href="#DejaVuSans-30" x="63.623047"/>
       <use xlink:href="#DejaVuSans-30" x="127.246094"/>
       <use xlink:href="#DejaVuSans-20" x="190.869141"/>
       <use xlink:href="#DejaVuSans-6e" x="222.65625"/>
       <use xlink:href="#DejaVuSans-67" x="286.035156"/>
       <use xlink:href="#DejaVuSans-2f" x="349.511719"/>
       <use xlink:href="#DejaVuSans-6b" x="383.203125"/>
       <use xlink:href="#DejaVuSans-62" x="441.113281"/>
      </g>
     </g>
    </g>
    <g id="xtick_3">
     <g id="line2d_3">
      <g>
       <use xlink:href="#meadedd93c3" x="453.571875" y="314.918125" style="stroke: #000000; stroke-width: 0.8"/>
      </g>
     </g>
     <g id="text_3">
      <!-- 100 ng/kb -->
      <g transform="translate(428.342188 329.516563) scale(0.1 -0.1)">
       <defs>
        <path id="DejaVuSans-31" d="M 794 531 
L 1825 531 
L 1825 4091 
L 703 3866 
L 703 4441 
L 1819 4666 
L 2450 4666 
L 2450 531 
L 3481 531 
L 3481 0 
L 794 0 
L 794 531 
z
" transform="scale(0.015625)"/>
       </defs>
       <use xlink:href="#DejaVuSans-31"/>
       <use xlink:href="#DejaVuSans-30" x="63.623047"/>
       <use xlink:href="#DejaVuSans-30" x="127.246094"/>
       <use xlink:href="#DejaVuSans-20" x="190.869141"/>
       <use xlink:href="#DejaVuSans-6e" x="222.65625"/>
       <use xlink:href="#DejaVuSans-67" x="286.035156"/>
       <use xlink:href="#DejaVuSans-2f" x="349.511719"/>
       <use xlink:href="#DejaVuSans-6b" x="383.203125"/>
       <use xlink:href="#DejaVuSans-62" x="441.113281"/>
      </g>
     </g>
    </g>
    <g id="xtick_4">
     <g id="line2d_4">
      <g>
       <use xlink:href="#meadedd93c3" x="621.304375" y="314.918125" style="stroke: #000000; stroke-width: 0.8"/>
      </g>
     </g>
     <g id="text_4">
      <!-- 50 ng/kb -->
      <g transform="translate(599.255938 329.516563) scale(0.1 -0.1)">
       <defs>
        <path id="DejaVuSans-35" d="M 691 4666 
L 3169 4666 
L 3169 4134 
L 1269 4134 
L 1269 2991 
Q 1406 3038 1543 3061 
Q 1681 3084 1819 3084 
Q 2600 3084 3056 2656 
Q 3513 2228 3513 1497 
Q 3513 744 3044 326 
Q 2575 -91 1722 -91 
Q 1428 -91 1123 -41 
Q 819 9 494 109 
L 494 744 
Q 775 591 1075 516 
Q 1375 441 1709 441 
Q 2250 441 2565 725 
Q 2881 1009 2881 1497 
Q 2881 1984 2565 2268 
Q 2250 2553 1709 2553 
Q 1456 2553 1204 2497 
Q 953 2441 691 2322 
L 691 4666 
z
" transform="scale(0.015625)"/>
       </defs>
       <use xlink:href="#DejaVuSans-35"/>
       <use xlink:href="#DejaVuSans-30" x="63.623047"/>
       <use xlink:href="#DejaVuSans-20" x="127.246094"/>
       <use xlink:href="#DejaVuSans-6e" x="159.033203"/>
       <use xlink:href="#DejaVuSans-67" x="222.412109"/>
       <use xlink:href="#DejaVuSans-2f" x="285.888672"/>
       <use xlink:href="#DejaVuSans-6b" x="319.580078"/>
       <use xlink:href="#DejaVuSans-62" x="377.490234"/>
      </g>
     </g>
    </g>
    <g id="text_5">
     <!-- Library -->
     <g transform="translate(352.222031 343.194687) scale(0.1 -0.1)">
      <defs>
       <path id="DejaVuSans-4c" d="M 628 4666 
L 1259 4666 
L 1259 531 
L 3531 531 
L 3531 0 
L 628 0 
L 628 4666 
z
" transform="scale(0.015625)"/>
       <path id="DejaVuSans-69" d="M 603 3500 
L 1178 3500 
L 1178 0 
L 603 0 
L 603 3500 
z
M 603 4863 
L 1178 4863 
L 1178 4134 
L 603 4134 
L 603 4863 
z
" transform="scale(0.015625)"/>
       <path id="DejaVuSans-72" d="M 2631 2963 
Q 2534 3019 2420 3045 
Q 2306 3072 2169 3072 
Q 1681 3072 1420 2755 
Q 1159 2438 1159 1844 
L 1159 0 
L 581 0 
L 581 3500 
L 1159 3500 
L 1159 2956 
Q 1341 3275 1631 3429 
Q 1922 3584 2338 3584 
Q 2397 3584 2469 3576 
Q 2541 3569 2628 3553 
L 2631 2963 
z
" transform="scale(0.015625)"/>
       <path id="DejaVuSans-61" d="M 2194 1759 
Q 1497 1759 1228 1600 
Q 959 1441 959 1056 
Q 959 750 1161 570 
Q 1363 391 1709 391 
Q 2188 391 2477 730 
Q 2766 1069 2766 1631 
L 2766 1759 
L 2194 1759 
z
M 3341 1997 
L 3341 0 
L 2766 0 
L 2766 531 
Q 2569 213 2275 61 
Q 1981 -91 1556 -91 
Q 1019 -91 701 211 
Q 384 513 384 1019 
Q 384 1609 779 1909 
Q 1175 2209 1959 2209 
L 2766 2209 
L 2766 2266 
Q 2766 2663 2505 2880 
Q 2244 3097 1772 3097 
Q 1472 3097 1187 3025 
Q 903 2953 641 2809 
L 641 3341 
Q 956 3463 1253 3523 
Q 1550 3584 1831 3584 
Q 2591 3584 2966 3190 
Q 3341 2797 3341 1997 
z
" transform="scale(0.015625)"/>
       <path id="DejaVuSans-79" d="M 2059 -325 
Q 1816 -950 1584 -1140 
Q 1353 -1331 966 -1331 
L 506 -1331 
L 506 -850 
L 844 -850 
Q 1081 -850 1212 -737 
Q 1344 -625 1503 -206 
L 1606 56 
L 191 3500 
L 800 3500 
L 1894 763 
L 2988 3500 
L 3597 3500 
L 2059 -325 
z
" transform="scale(0.015625)"/>
      </defs>
      <use xlink:href="#DejaVuSans-4c"/>
      <use xlink:href="#DejaVuSans-69" x="55.712891"/>
      <use xlink:href="#DejaVuSans-62" x="83.496094"/>
      <use xlink:href="#DejaVuSans-72" x="146.972656"/>
      <use xlink:href="#DejaVuSans-61" x="188.085938"/>
      <use xlink:href="#DejaVuSans-72" x="249.365234"/>
      <use xlink:href="#DejaVuSans-79" x="290.478516"/>
     </g>
    </g>
   </g>
   <g id="matplotlib.axis_2">
    <g id="ytick_1">
     <g id="line2d_5">
      <defs>
       <path id="m04f8c9cdfd" d="M 0 0 
L -3.5 0 
" style="stroke: #000000; stroke-width: 0.8"/>
      </defs>
      <g>
       <use xlink:href="#m04f8c9cdfd" x="34.240625" y="303.816472" style="stroke: #000000; stroke-width: 0.8"/>
      </g>
     </g>
     <g id="text_6">
      <!-- 0 -->
      <g transform="translate(20.878125 307.615691) scale(0.1 -0.1)">
       <use xlink:href="#DejaVuSans-30"/>
      </g>
     </g>
    </g>
    <g id="ytick_2">
     <g id="line2d_6">
      <g>
       <use xlink:href="#m04f8c9cdfd" x="34.240625" y="248.857794" style="stroke: #000000; stroke-width: 0.8"/>
      </g>
     </g>
     <g id="text_7">
      <!-- 1 -->
      <g transform="translate(20.878125 252.657013) scale(0.1 -0.1)">
       <use xlink:href="#DejaVuSans-31"/>
      </g>
     </g>
    </g>
    <g id="ytick_3">
     <g id="line2d_7">
      <g>
       <use xlink:href="#m04f8c9cdfd" x="34.240625" y="193.899117" style="stroke: #000000; stroke-width: 0.8"/>
      </g>
     </g>
     <g id="text_8">
      <!-- 2 -->
      <g transform="translate(20.878125 197.698335) scale(0.1 -0.1)">
       <use xlink:href="#DejaVuSans-32"/>
      </g>
     </g>
    </g>
    <g id="ytick_4">
     <g id="line2d_8">
      <g>
       <use xlink:href="#m04f8c9cdfd" x="34.240625" y="138.940439" style="stroke: #000000; stroke-width: 0.8"/>
      </g>
     </g>
     <g id="text_9">
      <!-- 3 -->
      <g transform="translate(20.878125 142.739658) scale(0.1 -0.1)">
       <use xlink:href="#DejaVuSans-33"/>
      </g>
     </g>
    </g>
    <g id="ytick_5">
     <g id="line2d_9">
      <g>
       <use xlink:href="#m04f8c9cdfd" x="34.240625" y="83.981761" style="stroke: #000000; stroke-width: 0.8"/>
      </g>
     </g>
     <g id="text_10">
      <!-- 4 -->
      <g transform="translate(20.878125 87.78098) scale(0.1 -0.1)">
       <defs>
        <path id="DejaVuSans-34" d="M 2419 4116 
L 825 1625 
L 2419 1625 
L 2419 4116 
z
M 2253 4666 
L 3047 4666 
L 3047 1625 
L 3713 1625 
L 3713 1100 
L 3047 1100 
L 3047 0 
L 2419 0 
L 2419 1100 
L 313 1100 
L 313 1709 
L 2253 4666 
z
" transform="scale(0.015625)"/>
       </defs>
       <use xlink:href="#DejaVuSans-34"/>
      </g>
     </g>
    </g>
    <g id="ytick_6">
     <g id="line2d_10">
      <g>
       <use xlink:href="#m04f8c9cdfd" x="34.240625" y="29.023084" style="stroke: #000000; stroke-width: 0.8"/>
      </g>
     </g>
     <g id="text_11">
      <!-- 5 -->
      <g transform="translate(20.878125 32.822302) scale(0.1 -0.1)">
       <use xlink:href="#DejaVuSans-35"/>
      </g>
     </g>
    </g>
    <g id="text_12">
     <!-- Occurrence values -->
     <g transform="translate(14.798438 215.054844) rotate(-90) scale(0.1 -0.1)">
      <defs>
       <path id="DejaVuSans-4f" d="M 2522 4238 
Q 1834 4238 1429 3725 
Q 1025 3213 1025 2328 
Q 1025 1447 1429 934 
Q 1834 422 2522 422 
Q 3209 422 3611 934 
Q 4013 1447 4013 2328 
Q 4013 3213 3611 3725 
Q 3209 4238 2522 4238 
z
M 2522 4750 
Q 3503 4750 4090 4092 
Q 4678 3434 4678 2328 
Q 4678 1225 4090 567 
Q 3503 -91 2522 -91 
Q 1538 -91 948 565 
Q 359 1222 359 2328 
Q 359 3434 948 4092 
Q 1538 4750 2522 4750 
z
" transform="scale(0.015625)"/>
       <path id="DejaVuSans-63" d="M 3122 3366 
L 3122 2828 
Q 2878 2963 2633 3030 
Q 2388 3097 2138 3097 
Q 1578 3097 1268 2742 
Q 959 2388 959 1747 
Q 959 1106 1268 751 
Q 1578 397 2138 397 
Q 2388 397 2633 464 
Q 2878 531 3122 666 
L 3122 134 
Q 2881 22 2623 -34 
Q 2366 -91 2075 -91 
Q 1284 -91 818 406 
Q 353 903 353 1747 
Q 353 2603 823 3093 
Q 1294 3584 2113 3584 
Q 2378 3584 2631 3529 
Q 2884 3475 3122 3366 
z
" transform="scale(0.015625)"/>
       <path id="DejaVuSans-75" d="M 544 1381 
L 544 3500 
L 1119 3500 
L 1119 1403 
Q 1119 906 1312 657 
Q 1506 409 1894 409 
Q 2359 409 2629 706 
Q 2900 1003 2900 1516 
L 2900 3500 
L 3475 3500 
L 3475 0 
L 2900 0 
L 2900 538 
Q 2691 219 2414 64 
Q 2138 -91 1772 -91 
Q 1169 -91 856 284 
Q 544 659 544 1381 
z
M 1991 3584 
L 1991 3584 
z
" transform="scale(0.015625)"/>
       <path id="DejaVuSans-65" d="M 3597 1894 
L 3597 1613 
L 953 1613 
Q 991 1019 1311 708 
Q 1631 397 2203 397 
Q 2534 397 2845 478 
Q 3156 559 3463 722 
L 3463 178 
Q 3153 47 2828 -22 
Q 2503 -91 2169 -91 
Q 1331 -91 842 396 
Q 353 884 353 1716 
Q 353 2575 817 3079 
Q 1281 3584 2069 3584 
Q 2775 3584 3186 3129 
Q 3597 2675 3597 1894 
z
M 3022 2063 
Q 3016 2534 2758 2815 
Q 2500 3097 2075 3097 
Q 1594 3097 1305 2825 
Q 1016 2553 972 2059 
L 3022 2063 
z
" transform="scale(0.015625)"/>
       <path id="DejaVuSans-76" d="M 191 3500 
L 800 3500 
L 1894 563 
L 2988 3500 
L 3597 3500 
L 2284 0 
L 1503 0 
L 191 3500 
z
" transform="scale(0.015625)"/>
       <path id="DejaVuSans-6c" d="M 603 4863 
L 1178 4863 
L 1178 0 
L 603 0 
L 603 4863 
z
" transform="scale(0.015625)"/>
       <path id="DejaVuSans-73" d="M 2834 3397 
L 2834 2853 
Q 2591 2978 2328 3040 
Q 2066 3103 1784 3103 
Q 1356 3103 1142 2972 
Q 928 2841 928 2578 
Q 928 2378 1081 2264 
Q 1234 2150 1697 2047 
L 1894 2003 
Q 2506 1872 2764 1633 
Q 3022 1394 3022 966 
Q 3022 478 2636 193 
Q 2250 -91 1575 -91 
Q 1294 -91 989 -36 
Q 684 19 347 128 
L 347 722 
Q 666 556 975 473 
Q 1284 391 1588 391 
Q 1994 391 2212 530 
Q 2431 669 2431 922 
Q 2431 1156 2273 1281 
Q 2116 1406 1581 1522 
L 1381 1569 
Q 847 1681 609 1914 
Q 372 2147 372 2553 
Q 372 3047 722 3315 
Q 1072 3584 1716 3584 
Q 2034 3584 2315 3537 
Q 2597 3491 2834 3397 
z
" transform="scale(0.015625)"/>
      </defs>
      <use xlink:href="#DejaVuSans-4f"/>
      <use xlink:href="#DejaVuSans-63" x="78.710938"/>
      <use xlink:href="#DejaVuSans-63" x="133.691406"/>
      <use xlink:href="#DejaVuSans-75" x="188.671875"/>
      <use xlink:href="#DejaVuSans-72" x="252.050781"/>
      <use xlink:href="#DejaVuSans-72" x="291.414062"/>
      <use xlink:href="#DejaVuSans-65" x="330.277344"/>
      <use xlink:href="#DejaVuSans-6e" x="391.800781"/>
      <use xlink:href="#DejaVuSans-63" x="455.179688"/>
      <use xlink:href="#DejaVuSans-65" x="510.160156"/>
      <use xlink:href="#DejaVuSans-20" x="571.683594"/>
      <use xlink:href="#DejaVuSans-76" x="603.470703"/>
      <use xlink:href="#DejaVuSans-61" x="662.650391"/>
      <use xlink:href="#DejaVuSans-6c" x="723.929688"/>
      <use xlink:href="#DejaVuSans-75" x="751.712891"/>
      <use xlink:href="#DejaVuSans-65" x="815.091797"/>
      <use xlink:href="#DejaVuSans-73" x="876.615234"/>
     </g>
    </g>
   </g>
   <g id="line2d_11">
    <path d="M 102.111168 295.023084 
L 118.106875 295.023084 
" clip-path="url(#p1f4d8ea916)" style="fill: none; stroke-dasharray: 1.5625,0.9375; stroke-dashoffset: 0; stroke: #2a2a2a; stroke-width: 1.25"/>
   </g>
   <g id="line2d_12">
    <path d="M 102.387243 277.436307 
L 118.106875 277.436307 
" clip-path="url(#p1f4d8ea916)" style="fill: none; stroke-dasharray: 3.125,1.25; stroke-dashoffset: 0; stroke: #2a2a2a; stroke-width: 1.25"/>
   </g>
   <g id="line2d_13">
    <path d="M 110.364382 222.202836 
L 118.106875 222.202836 
" clip-path="url(#p1f4d8ea916)" style="fill: none; stroke-dasharray: 1.5625,0.9375; stroke-dashoffset: 0; stroke: #2a2a2a; stroke-width: 1.25"/>
   </g>
   <g id="line2d_14">
    <path d="M 118.106875 268.642918 
L 169.989545 268.642918 
" clip-path="url(#p1f4d8ea916)" style="fill: none; stroke-dasharray: 1.5625,0.9375; stroke-dashoffset: 0; stroke: #2a2a2a; stroke-width: 1.25"/>
   </g>
   <g id="line2d_15">
    <path d="M 118.106875 245.560274 
L 161.017293 245.560274 
" clip-path="url(#p1f4d8ea916)" style="fill: none; stroke-dasharray: 3.125,1.25; stroke-dashoffset: 0; stroke: #2a2a2a; stroke-width: 1.25"/>
   </g>
   <g id="line2d_16">
    <path d="M 118.106875 211.485894 
L 149.524118 211.485894 
" clip-path="url(#p1f4d8ea916)" style="fill: none; stroke-dasharray: 1.5625,0.9375; stroke-dashoffset: 0; stroke: #2a2a2a; stroke-width: 1.25"/>
   </g>
   <g id="line2d_17">
    <path d="M 264.629686 292.000356 
L 285.839375 292.000356 
" clip-path="url(#p1f4d8ea916)" style="fill: none; stroke-dasharray: 1.5625,0.9375; stroke-dashoffset: 0; stroke: #2a2a2a; stroke-width: 1.25"/>
   </g>
   <g id="line2d_18">
    <path d="M 264.196696 286.229695 
L 285.839375 286.229695 
" clip-path="url(#p1f4d8ea916)" style="fill: none; stroke-dasharray: 3.125,1.25; stroke-dashoffset: 0; stroke: #2a2a2a; stroke-width: 1.25"/>
   </g>
   <g id="line2d_19">
    <path d="M 273.697276 251.880522 
L 285.839375 251.880522 
" clip-path="url(#p1f4d8ea916)" style="fill: none; stroke-dasharray: 1.5625,0.9375; stroke-dashoffset: 0; stroke: #2a2a2a; stroke-width: 1.25"/>
   </g>
   <g id="line2d_20">
    <path d="M 285.839375 251.056142 
L 338.863673 251.056142 
" clip-path="url(#p1f4d8ea916)" style="fill: none; stroke-dasharray: 1.5625,0.9375; stroke-dashoffset: 0; stroke: #2a2a2a; stroke-width: 1.25"/>
   </g>
   <g id="line2d_21">
    <path d="M 285.839375 232.370191 
L 352.261782 232.370191 
" clip-path="url(#p1f4d8ea916)" style="fill: none; stroke-dasharray: 3.125,1.25; stroke-dashoffset: 0; stroke: #2a2a2a; stroke-width: 1.25"/>
   </g>
   <g id="line2d_22">
    <path d="M 285.839375 218.080935 
L 345.314521 218.080935 
" clip-path="url(#p1f4d8ea916)" style="fill: none; stroke-dasharray: 1.5625,0.9375; stroke-dashoffset: 0; stroke: #2a2a2a; stroke-width: 1.25"/>
   </g>
   <g id="line2d_23">
    <path d="M 422.035501 296.122257 
L 453.571875 296.122257 
" clip-path="url(#p1f4d8ea916)" style="fill: none; stroke-dasharray: 1.5625,0.9375; stroke-dashoffset: 0; stroke: #2a2a2a; stroke-width: 1.25"/>
   </g>
   <g id="line2d_24">
    <path d="M 422.348857 287.878456 
L 453.571875 287.878456 
" clip-path="url(#p1f4d8ea916)" style="fill: none; stroke-dasharray: 3.125,1.25; stroke-dashoffset: 0; stroke: #2a2a2a; stroke-width: 1.25"/>
   </g>
   <g id="line2d_25">
    <path d="M 438.395953 264.246224 
L 453.571875 264.246224 
" clip-path="url(#p1f4d8ea916)" style="fill: none; stroke-dasharray: 1.5625,0.9375; stroke-dashoffset: 0; stroke: #2a2a2a; stroke-width: 1.25"/>
   </g>
   <g id="line2d_26">
    <path d="M 453.571875 236.766885 
L 502.704221 236.766885 
" clip-path="url(#p1f4d8ea916)" style="fill: none; stroke-dasharray: 1.5625,0.9375; stroke-dashoffset: 0; stroke: #2a2a2a; stroke-width: 1.25"/>
   </g>
   <g id="line2d_27">
    <path d="M 453.571875 215.882588 
L 510.689807 215.882588 
" clip-path="url(#p1f4d8ea916)" style="fill: none; stroke-dasharray: 3.125,1.25; stroke-dashoffset: 0; stroke: #2a2a2a; stroke-width: 1.25"/>
   </g>
   <g id="line2d_28">
    <path d="M 453.571875 196.097464 
L 496.366132 196.097464 
" clip-path="url(#p1f4d8ea916)" style="fill: none; stroke-dasharray: 1.5625,0.9375; stroke-dashoffset: 0; stroke: #2a2a2a; stroke-width: 1.25"/>
   </g>
   <g id="line2d_29">
    <path d="M 555.840962 299.419778 
L 621.304375 299.419778 
" clip-path="url(#p1f4d8ea916)" style="fill: none; stroke-dasharray: 1.5625,0.9375; stroke-dashoffset: 0; stroke: #2a2a2a; stroke-width: 1.25"/>
   </g>
   <g id="line2d_30">
    <path d="M 554.75128 296.671844 
L 621.304375 296.671844 
" clip-path="url(#p1f4d8ea916)" style="fill: none; stroke-dasharray: 3.125,1.25; stroke-dashoffset: 0; stroke: #2a2a2a; stroke-width: 1.25"/>
   </g>
   <g id="line2d_31">
    <path d="M 591.311887 285.680108 
L 621.304375 285.680108 
" clip-path="url(#p1f4d8ea916)" style="fill: none; stroke-dasharray: 1.5625,0.9375; stroke-dashoffset: 0; stroke: #2a2a2a; stroke-width: 1.25"/>
   </g>
   <g id="line2d_32">
    <path d="M 621.304375 216.981761 
L 650.410327 216.981761 
" clip-path="url(#p1f4d8ea916)" style="fill: none; stroke-dasharray: 1.5625,0.9375; stroke-dashoffset: 0; stroke: #2a2a2a; stroke-width: 1.25"/>
   </g>
   <g id="line2d_33">
    <path d="M 621.304375 173.014819 
L 655.989776 173.014819 
" clip-path="url(#p1f4d8ea916)" style="fill: none; stroke-dasharray: 3.125,1.25; stroke-dashoffset: 0; stroke: #2a2a2a; stroke-width: 1.25"/>
   </g>
   <g id="line2d_34">
    <path d="M 621.304375 149.932175 
L 657.656605 149.932175 
" clip-path="url(#p1f4d8ea916)" style="fill: none; stroke-dasharray: 1.5625,0.9375; stroke-dashoffset: 0; stroke: #2a2a2a; stroke-width: 1.25"/>
   </g>
   <g id="patch_5">
    <path d="M 34.240625 314.918125 
L 34.240625 22.318125 
" style="fill: none; stroke: #000000; stroke-width: 0.8; stroke-linejoin: miter; stroke-linecap: square"/>
   </g>
   <g id="patch_6">
    <path d="M 705.170625 314.918125 
L 705.170625 22.318125 
" style="fill: none; stroke: #000000; stroke-width: 0.8; stroke-linejoin: miter; stroke-linecap: square"/>
   </g>
   <g id="patch_7">
    <path d="M 34.240625 314.918125 
L 705.170625 314.918125 
" style="fill: none; stroke: #000000; stroke-width: 0.8; stroke-linejoin: miter; stroke-linecap: square"/>
   </g>
   <g id="patch_8">
    <path d="M 34.240625 22.318125 
L 705.170625 22.318125 
" style="fill: none; stroke: #000000; stroke-width: 0.8; stroke-linejoin: miter; stroke-linecap: square"/>
   </g>
   <g id="text_13">
    <!-- Dosage effect of cassettes in sequenced pool -->
    <g transform="translate(233.174688 16.318125) scale(0.12 -0.12)">
     <defs>
      <path id="DejaVuSans-44" d="M 1259 4147 
L 1259 519 
L 2022 519 
Q 2988 519 3436 956 
Q 3884 1394 3884 2338 
Q 3884 3275 3436 3711 
Q 2988 4147 2022 4147 
L 1259 4147 
z
M 628 4666 
L 1925 4666 
Q 3281 4666 3915 4102 
Q 4550 3538 4550 2338 
Q 4550 1131 3912 565 
Q 3275 0 1925 0 
L 628 0 
L 628 4666 
z
" transform="scale(0.015625)"/>
      <path id="DejaVuSans-6f" d="M 1959 3097 
Q 1497 3097 1228 2736 
Q 959 2375 959 1747 
Q 959 1119 1226 758 
Q 1494 397 1959 397 
Q 2419 397 2687 759 
Q 2956 1122 2956 1747 
Q 2956 2369 2687 2733 
Q 2419 3097 1959 3097 
z
M 1959 3584 
Q 2709 3584 3137 3096 
Q 3566 2609 3566 1747 
Q 3566 888 3137 398 
Q 2709 -91 1959 -91 
Q 1206 -91 779 398 
Q 353 888 353 1747 
Q 353 2609 779 3096 
Q 1206 3584 1959 3584 
z
" transform="scale(0.015625)"/>
      <path id="DejaVuSans-66" d="M 2375 4863 
L 2375 4384 
L 1825 4384 
Q 1516 4384 1395 4259 
Q 1275 4134 1275 3809 
L 1275 3500 
L 2222 3500 
L 2222 3053 
L 1275 3053 
L 1275 0 
L 697 0 
L 697 3053 
L 147 3053 
L 147 3500 
L 697 3500 
L 697 3744 
Q 697 4328 969 4595 
Q 1241 4863 1831 4863 
L 2375 4863 
z
" transform="scale(0.015625)"/>
      <path id="DejaVuSans-74" d="M 1172 4494 
L 1172 3500 
L 2356 3500 
L 2356 3053 
L 1172 3053 
L 1172 1153 
Q 1172 725 1289 603 
Q 1406 481 1766 481 
L 2356 481 
L 2356 0 
L 1766 0 
Q 1100 0 847 248 
Q 594 497 594 1153 
L 594 3053 
L 172 3053 
L 172 3500 
L 594 3500 
L 594 4494 
L 1172 4494 
z
" transform="scale(0.015625)"/>
      <path id="DejaVuSans-71" d="M 947 1747 
Q 947 1113 1208 752 
Q 1469 391 1925 391 
Q 2381 391 2643 752 
Q 2906 1113 2906 1747 
Q 2906 2381 2643 2742 
Q 2381 3103 1925 3103 
Q 1469 3103 1208 2742 
Q 947 2381 947 1747 
z
M 2906 525 
Q 2725 213 2448 61 
Q 2172 -91 1784 -91 
Q 1150 -91 751 415 
Q 353 922 353 1747 
Q 353 2572 751 3078 
Q 1150 3584 1784 3584 
Q 2172 3584 2448 3432 
Q 2725 3281 2906 2969 
L 2906 3500 
L 3481 3500 
L 3481 -1331 
L 2906 -1331 
L 2906 525 
z
" transform="scale(0.015625)"/>
      <path id="DejaVuSans-64" d="M 2906 2969 
L 2906 4863 
L 3481 4863 
L 3481 0 
L 2906 0 
L 2906 525 
Q 2725 213 2448 61 
Q 2172 -91 1784 -91 
Q 1150 -91 751 415 
Q 353 922 353 1747 
Q 353 2572 751 3078 
Q 1150 3584 1784 3584 
Q 2172 3584 2448 3432 
Q 2725 3281 2906 2969 
z
M 947 1747 
Q 947 1113 1208 752 
Q 1469 391 1925 391 
Q 2381 391 2643 752 
Q 2906 1113 2906 1747 
Q 2906 2381 2643 2742 
Q 2381 3103 1925 3103 
Q 1469 3103 1208 2742 
Q 947 2381 947 1747 
z
" transform="scale(0.015625)"/>
      <path id="DejaVuSans-70" d="M 1159 525 
L 1159 -1331 
L 581 -1331 
L 581 3500 
L 1159 3500 
L 1159 2969 
Q 1341 3281 1617 3432 
Q 1894 3584 2278 3584 
Q 2916 3584 3314 3078 
Q 3713 2572 3713 1747 
Q 3713 922 3314 415 
Q 2916 -91 2278 -91 
Q 1894 -91 1617 61 
Q 1341 213 1159 525 
z
M 3116 1747 
Q 3116 2381 2855 2742 
Q 2594 3103 2138 3103 
Q 1681 3103 1420 2742 
Q 1159 2381 1159 1747 
Q 1159 1113 1420 752 
Q 1681 391 2138 391 
Q 2594 391 2855 752 
Q 3116 1113 3116 1747 
z
" transform="scale(0.015625)"/>
     </defs>
     <use xlink:href="#DejaVuSans-44"/>
     <use xlink:href="#DejaVuSans-6f" x="77.001953"/>
     <use xlink:href="#DejaVuSans-73" x="138.183594"/>
     <use xlink:href="#DejaVuSans-61" x="190.283203"/>
     <use xlink:href="#DejaVuSans-67" x="251.5625"/>
     <use xlink:href="#DejaVuSans-65" x="315.039062"/>
     <use xlink:href="#DejaVuSans-20" x="376.5625"/>
     <use xlink:href="#DejaVuSans-65" x="408.349609"/>
     <use xlink:href="#DejaVuSans-66" x="469.873047"/>
     <use xlink:href="#DejaVuSans-66" x="505.078125"/>
     <use xlink:href="#DejaVuSans-65" x="540.283203"/>
     <use xlink:href="#DejaVuSans-63" x="601.806641"/>
     <use xlink:href="#DejaVuSans-74" x="656.787109"/>
     <use xlink:href="#DejaVuSans-20" x="695.996094"/>
     <use xlink:href="#DejaVuSans-6f" x="727.783203"/>
     <use xlink:href="#DejaVuSans-66" x="788.964844"/>
     <use xlink:href="#DejaVuSans-20" x="824.169922"/>
     <use xlink:href="#DejaVuSans-63" x="855.957031"/>
     <use xlink:href="#DejaVuSans-61" x="910.9375"/>
     <use xlink:href="#DejaVuSans-73" x="972.216797"/>
     <use xlink:href="#DejaVuSans-73" x="1024.316406"/>
     <use xlink:href="#DejaVuSans-65" x="1076.416016"/>
     <use xlink:href="#DejaVuSans-74" x="1137.939453"/>
     <use xlink:href="#DejaVuSans-74" x="1177.148438"/>
     <use xlink:href="#DejaVuSans-65" x="1216.357422"/>
     <use xlink:href="#DejaVuSans-73" x="1277.880859"/>
     <use xlink:href="#DejaVuSans-20" x="1329.980469"/>
     <use xlink:href="#DejaVuSans-69" x="1361.767578"/>
     <use xlink:href="#DejaVuSans-6e" x="1389.550781"/>
     <use xlink:href="#DejaVuSans-20" x="1452.929688"/>
     <use xlink:href="#DejaVuSans-73" x="1484.716797"/>
     <use xlink:href="#DejaVuSans-65" x="1536.816406"/>
     <use xlink:href="#DejaVuSans-71" x="1598.339844"/>
     <use xlink:href="#DejaVuSans-75" x="1661.816406"/>
     <use xlink:href="#DejaVuSans-65" x="1725.195312"/>
     <use xlink:href="#DejaVuSans-6e" x="1786.71875"/>
     <use xlink:href="#DejaVuSans-63" x="1850.097656"/>
     <use xlink:href="#DejaVuSans-65" x="1905.078125"/>
     <use xlink:href="#DejaVuSans-64" x="1966.601562"/>
     <use xlink:href="#DejaVuSans-20" x="2030.078125"/>
     <use xlink:href="#DejaVuSans-70" x="2061.865234"/>
     <use xlink:href="#DejaVuSans-6f" x="2125.341797"/>
     <use xlink:href="#DejaVuSans-6f" x="2186.523438"/>
     <use xlink:href="#DejaVuSans-6c" x="2247.705078"/>
    </g>
   </g>
   <g id="legend_1">
    <g id="patch_9">
     <path d="M 41.240625 74.3525 
L 144.309375 74.3525 
Q 146.309375 74.3525 146.309375 72.3525 
L 146.309375 29.318125 
Q 146.309375 27.318125 144.309375 27.318125 
L 41.240625 27.318125 
Q 39.240625 27.318125 39.240625 29.318125 
L 39.240625 72.3525 
Q 39.240625 74.3525 41.240625 74.3525 
z
" style="fill: #ffffff; opacity: 0.8; stroke: #cccccc; stroke-linejoin: miter"/>
    </g>
    <g id="text_14">
     <!-- Gene set -->
     <g transform="translate(70.348438 38.916562) scale(0.1 -0.1)">
      <defs>
       <path id="DejaVuSans-47" d="M 3809 666 
L 3809 1919 
L 2778 1919 
L 2778 2438 
L 4434 2438 
L 4434 434 
Q 4069 175 3628 42 
Q 3188 -91 2688 -91 
Q 1594 -91 976 548 
Q 359 1188 359 2328 
Q 359 3472 976 4111 
Q 1594 4750 2688 4750 
Q 3144 4750 3555 4637 
Q 3966 4525 4313 4306 
L 4313 3634 
Q 3963 3931 3569 4081 
Q 3175 4231 2741 4231 
Q 1884 4231 1454 3753 
Q 1025 3275 1025 2328 
Q 1025 1384 1454 906 
Q 1884 428 2741 428 
Q 3075 428 3337 486 
Q 3600 544 3809 666 
z
" transform="scale(0.015625)"/>
      </defs>
      <use xlink:href="#DejaVuSans-47"/>
      <use xlink:href="#DejaVuSans-65" x="77.490234"/>
      <use xlink:href="#DejaVuSans-6e" x="139.013672"/>
      <use xlink:href="#DejaVuSans-65" x="202.392578"/>
      <use xlink:href="#DejaVuSans-20" x="263.916016"/>
      <use xlink:href="#DejaVuSans-73" x="295.703125"/>
      <use xlink:href="#DejaVuSans-65" x="347.802734"/>
      <use xlink:href="#DejaVuSans-74" x="409.326172"/>
     </g>
    </g>
    <g id="patch_10">
     <path d="M 43.240625 53.594687 
L 63.240625 53.594687 
L 63.240625 46.594687 
L 43.240625 46.594687 
z
" style="fill: #11467a; stroke: #2a2a2a; stroke-width: 1.25; stroke-linejoin: miter"/>
    </g>
    <g id="text_15">
     <!-- Varied dosage -->
     <g transform="translate(71.240625 53.594687) scale(0.1 -0.1)">
      <defs>
       <path id="DejaVuSans-56" d="M 1831 0 
L 50 4666 
L 709 4666 
L 2188 738 
L 3669 4666 
L 4325 4666 
L 2547 0 
L 1831 0 
z
" transform="scale(0.015625)"/>
      </defs>
      <use xlink:href="#DejaVuSans-56"/>
      <use xlink:href="#DejaVuSans-61" x="60.658203"/>
      <use xlink:href="#DejaVuSans-72" x="121.9375"/>
      <use xlink:href="#DejaVuSans-69" x="163.050781"/>
      <use xlink:href="#DejaVuSans-65" x="190.833984"/>
      <use xlink:href="#DejaVuSans-64" x="252.357422"/>
      <use xlink:href="#DejaVuSans-20" x="315.833984"/>
      <use xlink:href="#DejaVuSans-64" x="347.621094"/>
      <use xlink:href="#DejaVuSans-6f" x="411.097656"/>
      <use xlink:href="#DejaVuSans-73" x="472.279297"/>
      <use xlink:href="#DejaVuSans-61" x="524.378906"/>
      <use xlink:href="#DejaVuSans-67" x="585.658203"/>
      <use xlink:href="#DejaVuSans-65" x="649.134766"/>
     </g>
    </g>
    <g id="patch_11">
     <path d="M 43.240625 68.272812 
L 63.240625 68.272812 
L 63.240625 61.272812 
L 43.240625 61.272812 
z
" style="fill: #cf1e1e; stroke: #2a2a2a; stroke-width: 1.25; stroke-linejoin: miter"/>
    </g>
    <g id="text_16">
     <!-- Fixed dosage -->
     <g transform="translate(71.240625 68.272812) scale(0.1 -0.1)">
      <defs>
       <path id="DejaVuSans-46" d="M 628 4666 
L 3309 4666 
L 3309 4134 
L 1259 4134 
L 1259 2759 
L 3109 2759 
L 3109 2228 
L 1259 2228 
L 1259 0 
L 628 0 
L 628 4666 
z
" transform="scale(0.015625)"/>
       <path id="DejaVuSans-78" d="M 3513 3500 
L 2247 1797 
L 3578 0 
L 2900 0 
L 1881 1375 
L 863 0 
L 184 0 
L 1544 1831 
L 300 3500 
L 978 3500 
L 1906 2253 
L 2834 3500 
L 3513 3500 
z
" transform="scale(0.015625)"/>
      </defs>
      <use xlink:href="#DejaVuSans-46"/>
      <use xlink:href="#DejaVuSans-69" x="50.269531"/>
      <use xlink:href="#DejaVuSans-78" x="78.052734"/>
      <use xlink:href="#DejaVuSans-65" x="134.107422"/>
      <use xlink:href="#DejaVuSans-64" x="195.630859"/>
      <use xlink:href="#DejaVuSans-20" x="259.107422"/>
      <use xlink:href="#DejaVuSans-64" x="290.894531"/>
      <use xlink:href="#DejaVuSans-6f" x="354.371094"/>
      <use xlink:href="#DejaVuSans-73" x="415.552734"/>
      <use xlink:href="#DejaVuSans-61" x="467.652344"/>
      <use xlink:href="#DejaVuSans-67" x="528.931641"/>
      <use xlink:href="#DejaVuSans-65" x="592.408203"/>
     </g>
    </g>
   </g>
  </g>
 </g>
 <defs>
  <clipPath id="p1f4d8ea916">
   <rect x="34.240625" y="22.318125" width="670.93" height="292.6"/>
  </clipPath>
 </defs>
</svg>
