<?xml version="1.0" encoding="utf-8" standalone="no"?>
<!DOCTYPE svg PUBLIC "-//W3C//DTD SVG 1.1//EN"
  "http://www.w3.org/Graphics/SVG/1.1/DTD/svg11.dtd">
<svg xmlns:xlink="http://www.w3.org/1999/xlink" width="432pt" height="288pt" viewBox="0 0 432 288" xmlns="http://www.w3.org/2000/svg" version="1.1">
 <metadata>
  <rdf:RDF xmlns:dc="http://purl.org/dc/elements/1.1/" xmlns:cc="http://creativecommons.org/ns#" xmlns:rdf="http://www.w3.org/1999/02/22-rdf-syntax-ns#">
   <cc:Work>
    <dc:type rdf:resource="http://purl.org/dc/dcmitype/StillImage"/>
    <dc:date>2025-03-20T17:15:02.868821</dc:date>
    <dc:format>image/svg+xml</dc:format>
    <dc:creator>
     <cc:Agent>
      <dc:title>Matplotlib v3.7.2, https://matplotlib.org/</dc:title>
     </cc:Agent>
    </dc:creator>
   </cc:Work>
  </rdf:RDF>
 </metadata>
 <defs>
  <style type="text/css">*{stroke-linejoin: round; stroke-linecap: butt}</style>
 </defs>
 <g id="figure_1">
  <g id="patch_1">
   <path d="M 0 288 
L 432 288 
L 432 0 
L 0 0 
z
" style="fill: #ffffff"/>
  </g>
  <g id="axes_1">
   <g id="patch_2">
    <path d="M 38.27 246.04 
L 245.11 246.04 
L 245.11 25.44 
L 38.27 25.44 
z
" style="fill: #ffffff"/>
   </g>
   <g id="matplotlib.axis_1">
    <g id="xtick_1">
     <g id="line2d_1">
      <defs>
       <path id="m03514d766d" d="M 0 0 
L 0 3.5 
" style="stroke: #000000; stroke-width: 0.8"/>
      </defs>
      <g>
       <use xlink:href="#m03514d766d" x="42.003853" y="246.04" style="stroke: #000000; stroke-width: 0.8"/>
      </g>
     </g>
     <g id="text_1">
      <!-- −0.2 -->
      <g transform="translate(29.862447 260.638438) scale(0.1 -0.1)">
       <defs>
        <path id="DejaVuSans-2212" d="M 678 2272 
L 4684 2272 
L 4684 1741 
L 678 1741 
L 678 2272 
z
" transform="scale(0.015625)"/>
        <path id="DejaVuSans-30" d="M 2034 4250 
Q 1547 4250 1301 3770 
Q 1056 3291 1056 2328 
Q 1056 1369 1301 889 
Q 1547 409 2034 409 
Q 2525 409 2770 889 
Q 3016 1369 3016 2328 
Q 3016 3291 2770 3770 
Q 2525 4250 2034 4250 
z
M 2034 4750 
Q 2819 4750 3233 4129 
Q 3647 3509 3647 2328 
Q 3647 1150 3233 529 
Q 2819 -91 2034 -91 
Q 1250 -91 836 529 
Q 422 1150 422 2328 
Q 422 3509 836 4129 
Q 1250 4750 2034 4750 
z
" transform="scale(0.015625)"/>
        <path id="DejaVuSans-2e" d="M 684 794 
L 1344 794 
L 1344 0 
L 684 0 
L 684 794 
z
" transform="scale(0.015625)"/>
        <path id="DejaVuSans-32" d="M 1228 531 
L 3431 531 
L 3431 0 
L 469 0 
L 469 531 
Q 828 903 1448 1529 
Q 2069 2156 2228 2338 
Q 2531 2678 2651 2914 
Q 2772 3150 2772 3378 
Q 2772 3750 2511 3984 
Q 2250 4219 1831 4219 
Q 1534 4219 1204 4116 
Q 875 4013 500 3803 
L 500 4441 
Q 881 4594 1212 4672 
Q 1544 4750 1819 4750 
Q 2544 4750 2975 4387 
Q 3406 4025 3406 3419 
Q 3406 3131 3298 2873 
Q 3191 2616 2906 2266 
Q 2828 2175 2409 1742 
Q 1991 1309 1228 531 
z
" transform="scale(0.015625)"/>
       </defs>
       <use xlink:href="#DejaVuSans-2212"/>
       <use xlink:href="#DejaVuSans-30" x="83.789062"/>
       <use xlink:href="#DejaVuSans-2e" x="147.412109"/>
       <use xlink:href="#DejaVuSans-32" x="179.199219"/>
      </g>
     </g>
    </g>
    <g id="xtick_2">
     <g id="line2d_2">
      <g>
       <use xlink:href="#m03514d766d" x="85.377792" y="246.04" style="stroke: #000000; stroke-width: 0.8"/>
      </g>
     </g>
     <g id="text_2">
      <!-- 0.0 -->
      <g transform="translate(77.42623 260.638438) scale(0.1 -0.1)">
       <use xlink:href="#DejaVuSans-30"/>
       <use xlink:href="#DejaVuSans-2e" x="63.623047"/>
       <use xlink:href="#DejaVuSans-30" x="95.410156"/>
      </g>
     </g>
    </g>
    <g id="xtick_3">
     <g id="line2d_3">
      <g>
       <use xlink:href="#m03514d766d" x="128.751732" y="246.04" style="stroke: #000000; stroke-width: 0.8"/>
      </g>
     </g>
     <g id="text_3">
      <!-- 0.2 -->
      <g transform="translate(120.80017 260.638438) scale(0.1 -0.1)">
       <use xlink:href="#DejaVuSans-30"/>
       <use xlink:href="#DejaVuSans-2e" x="63.623047"/>
       <use xlink:href="#DejaVuSans-32" x="95.410156"/>
      </g>
     </g>
    </g>
    <g id="xtick_4">
     <g id="line2d_4">
      <g>
       <use xlink:href="#m03514d766d" x="172.125672" y="246.04" style="stroke: #000000; stroke-width: 0.8"/>
      </g>
     </g>
     <g id="text_4">
      <!-- 0.4 -->
      <g transform="translate(164.174109 260.638438) scale(0.1 -0.1)">
       <defs>
        <path id="DejaVuSans-34" d="M 2419 4116 
L 825 1625 
L 2419 1625 
L 2419 4116 
z
M 2253 4666 
L 3047 4666 
L 3047 1625 
L 3713 1625 
L 3713 1100 
L 3047 1100 
L 3047 0 
L 2419 0 
L 2419 1100 
L 313 1100 
L 313 1709 
L 2253 4666 
z
" transform="scale(0.015625)"/>
       </defs>
       <use xlink:href="#DejaVuSans-30"/>
       <use xlink:href="#DejaVuSans-2e" x="63.623047"/>
       <use xlink:href="#DejaVuSans-34" x="95.410156"/>
      </g>
     </g>
    </g>
    <g id="xtick_5">
     <g id="line2d_5">
      <g>
       <use xlink:href="#m03514d766d" x="215.499611" y="246.04" style="stroke: #000000; stroke-width: 0.8"/>
      </g>
     </g>
     <g id="text_5">
      <!-- 0.6 -->
      <g transform="translate(207.548049 260.638438) scale(0.1 -0.1)">
       <defs>
        <path id="DejaVuSans-36" d="M 2113 2584 
Q 1688 2584 1439 2293 
Q 1191 2003 1191 1497 
Q 1191 994 1439 701 
Q 1688 409 2113 409 
Q 2538 409 2786 701 
Q 3034 994 3034 1497 
Q 3034 2003 2786 2293 
Q 2538 2584 2113 2584 
z
M 3366 4563 
L 3366 3988 
Q 3128 4100 2886 4159 
Q 2644 4219 2406 4219 
Q 1781 4219 1451 3797 
Q 1122 3375 1075 2522 
Q 1259 2794 1537 2939 
Q 1816 3084 2150 3084 
Q 2853 3084 3261 2657 
Q 3669 2231 3669 1497 
Q 3669 778 3244 343 
Q 2819 -91 2113 -91 
Q 1303 -91 875 529 
Q 447 1150 447 2328 
Q 447 3434 972 4092 
Q 1497 4750 2381 4750 
Q 2619 4750 2861 4703 
Q 3103 4656 3366 4563 
z
" transform="scale(0.015625)"/>
       </defs>
       <use xlink:href="#DejaVuSans-30"/>
       <use xlink:href="#DejaVuSans-2e" x="63.623047"/>
       <use xlink:href="#DejaVuSans-36" x="95.410156"/>
      </g>
     </g>
    </g>
    <g id="text_6">
     <!-- [pCA concentration] -->
     <g transform="translate(91.484531 274.316562) scale(0.1 -0.1)">
      <defs>
       <path id="DejaVuSans-5b" d="M 550 4863 
L 1875 4863 
L 1875 4416 
L 1125 4416 
L 1125 -397 
L 1875 -397 
L 1875 -844 
L 550 -844 
L 550 4863 
z
" transform="scale(0.015625)"/>
       <path id="DejaVuSans-70" d="M 1159 525 
L 1159 -1331 
L 581 -1331 
L 581 3500 
L 1159 3500 
L 1159 2969 
Q 1341 3281 1617 3432 
Q 1894 3584 2278 3584 
Q 2916 3584 3314 3078 
Q 3713 2572 3713 1747 
Q 3713 922 3314 415 
Q 2916 -91 2278 -91 
Q 1894 -91 1617 61 
Q 1341 213 1159 525 
z
M 3116 1747 
Q 3116 2381 2855 2742 
Q 2594 3103 2138 3103 
Q 1681 3103 1420 2742 
Q 1159 2381 1159 1747 
Q 1159 1113 1420 752 
Q 1681 391 2138 391 
Q 2594 391 2855 752 
Q 3116 1113 3116 1747 
z
" transform="scale(0.015625)"/>
       <path id="DejaVuSans-43" d="M 4122 4306 
L 4122 3641 
Q 3803 3938 3442 4084 
Q 3081 4231 2675 4231 
Q 1875 4231 1450 3742 
Q 1025 3253 1025 2328 
Q 1025 1406 1450 917 
Q 1875 428 2675 428 
Q 3081 428 3442 575 
Q 3803 722 4122 1019 
L 4122 359 
Q 3791 134 3420 21 
Q 3050 -91 2638 -91 
Q 1578 -91 968 557 
Q 359 1206 359 2328 
Q 359 3453 968 4101 
Q 1578 4750 2638 4750 
Q 3056 4750 3426 4639 
Q 3797 4528 4122 4306 
z
" transform="scale(0.015625)"/>
       <path id="DejaVuSans-41" d="M 2188 4044 
L 1331 1722 
L 3047 1722 
L 2188 4044 
z
M 1831 4666 
L 2547 4666 
L 4325 0 
L 3669 0 
L 3244 1197 
L 1141 1197 
L 716 0 
L 50 0 
L 1831 4666 
z
" transform="scale(0.015625)"/>
       <path id="DejaVuSans-20" transform="scale(0.015625)"/>
       <path id="DejaVuSans-63" d="M 3122 3366 
L 3122 2828 
Q 2878 2963 2633 3030 
Q 2388 3097 2138 3097 
Q 1578 3097 1268 2742 
Q 959 2388 959 1747 
Q 959 1106 1268 751 
Q 1578 397 2138 397 
Q 2388 397 2633 464 
Q 2878 531 3122 666 
L 3122 134 
Q 2881 22 2623 -34 
Q 2366 -91 2075 -91 
Q 1284 -91 818 406 
Q 353 903 353 1747 
Q 353 2603 823 3093 
Q 1294 3584 2113 3584 
Q 2378 3584 2631 3529 
Q 2884 3475 3122 3366 
z
" transform="scale(0.015625)"/>
       <path id="DejaVuSans-6f" d="M 1959 3097 
Q 1497 3097 1228 2736 
Q 959 2375 959 1747 
Q 959 1119 1226 758 
Q 1494 397 1959 397 
Q 2419 397 2687 759 
Q 2956 1122 2956 1747 
Q 2956 2369 2687 2733 
Q 2419 3097 1959 3097 
z
M 1959 3584 
Q 2709 3584 3137 3096 
Q 3566 2609 3566 1747 
Q 3566 888 3137 398 
Q 2709 -91 1959 -91 
Q 1206 -91 779 398 
Q 353 888 353 1747 
Q 353 2609 779 3096 
Q 1206 3584 1959 3584 
z
" transform="scale(0.015625)"/>
       <path id="DejaVuSans-6e" d="M 3513 2113 
L 3513 0 
L 2938 0 
L 2938 2094 
Q 2938 2591 2744 2837 
Q 2550 3084 2163 3084 
Q 1697 3084 1428 2787 
Q 1159 2491 1159 1978 
L 1159 0 
L 581 0 
L 581 3500 
L 1159 3500 
L 1159 2956 
Q 1366 3272 1645 3428 
Q 1925 3584 2291 3584 
Q 2894 3584 3203 3211 
Q 3513 2838 3513 2113 
z
" transform="scale(0.015625)"/>
       <path id="DejaVuSans-65" d="M 3597 1894 
L 3597 1613 
L 953 1613 
Q 991 1019 1311 708 
Q 1631 397 2203 397 
Q 2534 397 2845 478 
Q 3156 559 3463 722 
L 3463 178 
Q 3153 47 2828 -22 
Q 2503 -91 2169 -91 
Q 1331 -91 842 396 
Q 353 884 353 1716 
Q 353 2575 817 3079 
Q 1281 3584 2069 3584 
Q 2775 3584 3186 3129 
Q 3597 2675 3597 1894 
z
M 3022 2063 
Q 3016 2534 2758 2815 
Q 2500 3097 2075 3097 
Q 1594 3097 1305 2825 
Q 1016 2553 972 2059 
L 3022 2063 
z
" transform="scale(0.015625)"/>
       <path id="DejaVuSans-74" d="M 1172 4494 
L 1172 3500 
L 2356 3500 
L 2356 3053 
L 1172 3053 
L 1172 1153 
Q 1172 725 1289 603 
Q 1406 481 1766 481 
L 2356 481 
L 2356 0 
L 1766 0 
Q 1100 0 847 248 
Q 594 497 594 1153 
L 594 3053 
L 172 3053 
L 172 3500 
L 594 3500 
L 594 4494 
L 1172 4494 
z
" transform="scale(0.015625)"/>
       <path id="DejaVuSans-72" d="M 2631 2963 
Q 2534 3019 2420 3045 
Q 2306 3072 2169 3072 
Q 1681 3072 1420 2755 
Q 1159 2438 1159 1844 
L 1159 0 
L 581 0 
L 581 3500 
L 1159 3500 
L 1159 2956 
Q 1341 3275 1631 3429 
Q 1922 3584 2338 3584 
Q 2397 3584 2469 3576 
Q 2541 3569 2628 3553 
L 2631 2963 
z
" transform="scale(0.015625)"/>
       <path id="DejaVuSans-61" d="M 2194 1759 
Q 1497 1759 1228 1600 
Q 959 1441 959 1056 
Q 959 750 1161 570 
Q 1363 391 1709 391 
Q 2188 391 2477 730 
Q 2766 1069 2766 1631 
L 2766 1759 
L 2194 1759 
z
M 3341 1997 
L 3341 0 
L 2766 0 
L 2766 531 
Q 2569 213 2275 61 
Q 1981 -91 1556 -91 
Q 1019 -91 701 211 
Q 384 513 384 1019 
Q 384 1609 779 1909 
Q 1175 2209 1959 2209 
L 2766 2209 
L 2766 2266 
Q 2766 2663 2505 2880 
Q 2244 3097 1772 3097 
Q 1472 3097 1187 3025 
Q 903 2953 641 2809 
L 641 3341 
Q 956 3463 1253 3523 
Q 1550 3584 1831 3584 
Q 2591 3584 2966 3190 
Q 3341 2797 3341 1997 
z
" transform="scale(0.015625)"/>
       <path id="DejaVuSans-69" d="M 603 3500 
L 1178 3500 
L 1178 0 
L 603 0 
L 603 3500 
z
M 603 4863 
L 1178 4863 
L 1178 4134 
L 603 4134 
L 603 4863 
z
" transform="scale(0.015625)"/>
       <path id="DejaVuSans-5d" d="M 1947 4863 
L 1947 -844 
L 622 -844 
L 622 -397 
L 1369 -397 
L 1369 4416 
L 622 4416 
L 622 4863 
L 1947 4863 
z
" transform="scale(0.015625)"/>
      </defs>
      <use xlink:href="#DejaVuSans-5b"/>
      <use xlink:href="#DejaVuSans-70" x="39.013672"/>
      <use xlink:href="#DejaVuSans-43" x="102.490234"/>
      <use xlink:href="#DejaVuSans-41" x="172.314453"/>
      <use xlink:href="#DejaVuSans-20" x="240.722656"/>
      <use xlink:href="#DejaVuSans-63" x="272.509766"/>
      <use xlink:href="#DejaVuSans-6f" x="327.490234"/>
      <use xlink:href="#DejaVuSans-6e" x="388.671875"/>
      <use xlink:href="#DejaVuSans-63" x="452.050781"/>
      <use xlink:href="#DejaVuSans-65" x="507.03125"/>
      <use xlink:href="#DejaVuSans-6e" x="568.554688"/>
      <use xlink:href="#DejaVuSans-74" x="631.933594"/>
      <use xlink:href="#DejaVuSans-72" x="671.142578"/>
      <use xlink:href="#DejaVuSans-61" x="712.255859"/>
      <use xlink:href="#DejaVuSans-74" x="773.535156"/>
      <use xlink:href="#DejaVuSans-69" x="812.744141"/>
      <use xlink:href="#DejaVuSans-6f" x="840.527344"/>
      <use xlink:href="#DejaVuSans-6e" x="901.708984"/>
      <use xlink:href="#DejaVuSans-5d" x="965.087891"/>
     </g>
    </g>
   </g>
   <g id="matplotlib.axis_2">
    <g id="ytick_1">
     <g id="line2d_6">
      <defs>
       <path id="m33ea88bea8" d="M 0 0 
L -3.5 0 
" style="stroke: #000000; stroke-width: 0.8"/>
      </defs>
      <g>
       <use xlink:href="#m33ea88bea8" x="38.27" y="246.04" style="stroke: #000000; stroke-width: 0.8"/>
      </g>
     </g>
     <g id="text_7">
      <!-- 0 -->
      <g transform="translate(24.9075 249.839219) scale(0.1 -0.1)">
       <use xlink:href="#DejaVuSans-30"/>
      </g>
     </g>
    </g>
    <g id="ytick_2">
     <g id="line2d_7">
      <g>
       <use xlink:href="#m33ea88bea8" x="38.27" y="213.233006" style="stroke: #000000; stroke-width: 0.8"/>
      </g>
     </g>
     <g id="text_8">
      <!-- 1 -->
      <g transform="translate(24.9075 217.032224) scale(0.1 -0.1)">
       <defs>
        <path id="DejaVuSans-31" d="M 794 531 
L 1825 531 
L 1825 4091 
L 703 3866 
L 703 4441 
L 1819 4666 
L 2450 4666 
L 2450 531 
L 3481 531 
L 3481 0 
L 794 0 
L 794 531 
z
" transform="scale(0.015625)"/>
       </defs>
       <use xlink:href="#DejaVuSans-31"/>
      </g>
     </g>
    </g>
    <g id="ytick_3">
     <g id="line2d_8">
      <g>
       <use xlink:href="#m33ea88bea8" x="38.27" y="180.426011" style="stroke: #000000; stroke-width: 0.8"/>
      </g>
     </g>
     <g id="text_9">
      <!-- 2 -->
      <g transform="translate(24.9075 184.22523) scale(0.1 -0.1)">
       <use xlink:href="#DejaVuSans-32"/>
      </g>
     </g>
    </g>
    <g id="ytick_4">
     <g id="line2d_9">
      <g>
       <use xlink:href="#m33ea88bea8" x="38.27" y="147.619017" style="stroke: #000000; stroke-width: 0.8"/>
      </g>
     </g>
     <g id="text_10">
      <!-- 3 -->
      <g transform="translate(24.9075 151.418236) scale(0.1 -0.1)">
       <defs>
        <path id="DejaVuSans-33" d="M 2597 2516 
Q 3050 2419 3304 2112 
Q 3559 1806 3559 1356 
Q 3559 666 3084 287 
Q 2609 -91 1734 -91 
Q 1441 -91 1130 -33 
Q 819 25 488 141 
L 488 750 
Q 750 597 1062 519 
Q 1375 441 1716 441 
Q 2309 441 2620 675 
Q 2931 909 2931 1356 
Q 2931 1769 2642 2001 
Q 2353 2234 1838 2234 
L 1294 2234 
L 1294 2753 
L 1863 2753 
Q 2328 2753 2575 2939 
Q 2822 3125 2822 3475 
Q 2822 3834 2567 4026 
Q 2313 4219 1838 4219 
Q 1578 4219 1281 4162 
Q 984 4106 628 3988 
L 628 4550 
Q 988 4650 1302 4700 
Q 1616 4750 1894 4750 
Q 2613 4750 3031 4423 
Q 3450 4097 3450 3541 
Q 3450 3153 3228 2886 
Q 3006 2619 2597 2516 
z
" transform="scale(0.015625)"/>
       </defs>
       <use xlink:href="#DejaVuSans-33"/>
      </g>
     </g>
    </g>
    <g id="ytick_5">
     <g id="line2d_10">
      <g>
       <use xlink:href="#m33ea88bea8" x="38.27" y="114.812023" style="stroke: #000000; stroke-width: 0.8"/>
      </g>
     </g>
     <g id="text_11">
      <!-- 4 -->
      <g transform="translate(24.9075 118.611241) scale(0.1 -0.1)">
       <use xlink:href="#DejaVuSans-34"/>
      </g>
     </g>
    </g>
    <g id="ytick_6">
     <g id="line2d_11">
      <g>
       <use xlink:href="#m33ea88bea8" x="38.27" y="82.005028" style="stroke: #000000; stroke-width: 0.8"/>
      </g>
     </g>
     <g id="text_12">
      <!-- 5 -->
      <g transform="translate(24.9075 85.804247) scale(0.1 -0.1)">
       <defs>
        <path id="DejaVuSans-35" d="M 691 4666 
L 3169 4666 
L 3169 4134 
L 1269 4134 
L 1269 2991 
Q 1406 3038 1543 3061 
Q 1681 3084 1819 3084 
Q 2600 3084 3056 2656 
Q 3513 2228 3513 1497 
Q 3513 744 3044 326 
Q 2575 -91 1722 -91 
Q 1428 -91 1123 -41 
Q 819 9 494 109 
L 494 744 
Q 775 591 1075 516 
Q 1375 441 1709 441 
Q 2250 441 2565 725 
Q 2881 1009 2881 1497 
Q 2881 1984 2565 2268 
Q 2250 2553 1709 2553 
Q 1456 2553 1204 2497 
Q 953 2441 691 2322 
L 691 4666 
z
" transform="scale(0.015625)"/>
       </defs>
       <use xlink:href="#DejaVuSans-35"/>
      </g>
     </g>
    </g>
    <g id="ytick_7">
     <g id="line2d_12">
      <g>
       <use xlink:href="#m33ea88bea8" x="38.27" y="49.198034" style="stroke: #000000; stroke-width: 0.8"/>
      </g>
     </g>
     <g id="text_13">
      <!-- 6 -->
      <g transform="translate(24.9075 52.997253) scale(0.1 -0.1)">
       <use xlink:href="#DejaVuSans-36"/>
      </g>
     </g>
    </g>
    <g id="text_14">
     <!-- Density -->
     <g transform="translate(18.827813 154.748594) rotate(-90) scale(0.1 -0.1)">
      <defs>
       <path id="DejaVuSans-44" d="M 1259 4147 
L 1259 519 
L 2022 519 
Q 2988 519 3436 956 
Q 3884 1394 3884 2338 
Q 3884 3275 3436 3711 
Q 2988 4147 2022 4147 
L 1259 4147 
z
M 628 4666 
L 1925 4666 
Q 3281 4666 3915 4102 
Q 4550 3538 4550 2338 
Q 4550 1131 3912 565 
Q 3275 0 1925 0 
L 628 0 
L 628 4666 
z
" transform="scale(0.015625)"/>
       <path id="DejaVuSans-73" d="M 2834 3397 
L 2834 2853 
Q 2591 2978 2328 3040 
Q 2066 3103 1784 3103 
Q 1356 3103 1142 2972 
Q 928 2841 928 2578 
Q 928 2378 1081 2264 
Q 1234 2150 1697 2047 
L 1894 2003 
Q 2506 1872 2764 1633 
Q 3022 1394 3022 966 
Q 3022 478 2636 193 
Q 2250 -91 1575 -91 
Q 1294 -91 989 -36 
Q 684 19 347 128 
L 347 722 
Q 666 556 975 473 
Q 1284 391 1588 391 
Q 1994 391 2212 530 
Q 2431 669 2431 922 
Q 2431 1156 2273 1281 
Q 2116 1406 1581 1522 
L 1381 1569 
Q 847 1681 609 1914 
Q 372 2147 372 2553 
Q 372 3047 722 3315 
Q 1072 3584 1716 3584 
Q 2034 3584 2315 3537 
Q 2597 3491 2834 3397 
z
" transform="scale(0.015625)"/>
       <path id="DejaVuSans-79" d="M 2059 -325 
Q 1816 -950 1584 -1140 
Q 1353 -1331 966 -1331 
L 506 -1331 
L 506 -850 
L 844 -850 
Q 1081 -850 1212 -737 
Q 1344 -625 1503 -206 
L 1606 56 
L 191 3500 
L 800 3500 
L 1894 763 
L 2988 3500 
L 3597 3500 
L 2059 -325 
z
" transform="scale(0.015625)"/>
      </defs>
      <use xlink:href="#DejaVuSans-44"/>
      <use xlink:href="#DejaVuSans-65" x="77.001953"/>
      <use xlink:href="#DejaVuSans-6e" x="138.525391"/>
      <use xlink:href="#DejaVuSans-73" x="201.904297"/>
      <use xlink:href="#DejaVuSans-69" x="254.003906"/>
      <use xlink:href="#DejaVuSans-74" x="281.787109"/>
      <use xlink:href="#DejaVuSans-79" x="320.996094"/>
     </g>
    </g>
   </g>
   <g id="line2d_13">
    <path d="M 47.671818 245.684319 
L 50.43249 245.312415 
L 52.272939 244.901542 
L 54.113387 244.300094 
L 55.953835 243.442764 
L 57.794283 242.253184 
L 59.634731 240.647182 
L 61.475179 238.538688 
L 63.315628 235.848449 
L 65.156076 232.515328 
L 66.996524 228.509313 
L 68.836972 223.844766 
L 70.67742 218.591871 
L 73.438093 209.918684 
L 78.039213 195.274001 
L 79.879661 190.20486 
L 81.720109 186.045183 
L 82.640333 184.390308 
L 83.560558 183.055579 
L 84.480782 182.06222 
L 85.401006 181.425517 
L 86.32123 181.154327 
L 87.241454 181.250759 
L 88.161678 181.710045 
L 89.081902 182.52061 
L 90.002126 183.664329 
L 90.92235 185.116972 
L 91.842574 186.848801 
L 93.683022 191.008153 
L 95.523471 195.825283 
L 100.124591 208.461546 
L 101.965039 212.894352 
L 103.805487 216.572774 
L 104.725711 218.069768 
L 105.645936 219.315266 
L 106.56616 220.296781 
L 107.486384 221.005592 
L 108.406608 221.436445 
L 109.326832 221.587205 
L 110.247056 221.458479 
L 111.16728 221.053221 
L 112.087504 220.376343 
L 113.007728 219.434349 
L 113.927952 218.234995 
L 114.848176 216.787 
L 116.688625 213.183366 
L 118.529073 208.704644 
L 120.369521 203.437979 
L 122.209969 197.476997 
L 124.970641 187.464313 
L 128.651538 172.79463 
L 133.252658 154.27806 
L 135.093106 147.510127 
L 136.933554 141.470765 
L 138.774003 136.399363 
L 139.694227 134.295485 
L 140.614451 132.511697 
L 141.534675 131.068405 
L 142.454899 129.982439 
L 143.375123 129.266638 
L 144.295347 128.929522 
L 145.215571 128.975053 
L 146.135795 129.402495 
L 147.056019 130.206389 
L 147.976244 131.376633 
L 148.896468 132.898673 
L 149.816692 134.753804 
L 150.736916 136.919566 
L 152.577364 142.077295 
L 154.417812 148.136882 
L 157.178484 158.350105 
L 163.620053 183.174547 
L 166.380725 192.775792 
L 169.141397 201.306346 
L 170.981846 206.370272 
L 172.822294 210.954455 
L 174.662742 215.091639 
L 176.50319 218.820113 
L 178.343638 222.177531 
L 180.184086 225.197221 
L 182.024535 227.906835 
L 183.864983 230.328833 
L 185.705431 232.482123 
L 187.545879 234.384079 
L 189.386327 236.052348 
L 191.226776 237.505982 
L 193.987448 239.329808 
L 196.74812 240.792141 
L 199.508792 241.965634 
L 202.269465 242.912828 
L 205.950361 243.903468 
L 209.631257 244.646659 
L 213.312154 245.185005 
L 217.913274 245.620899 
L 223.434619 245.889624 
L 230.796411 246.01189 
L 230.796411 246.01189 
" clip-path="url(#p9a9b045621)" style="fill: none; stroke: #ed0000; stroke-opacity: 0.8; stroke-width: 3; stroke-linecap: square"/>
   </g>
   <g id="line2d_14">
    <path d="M 61.070119 245.949098 
L 64.580432 245.740224 
L 67.213167 245.384677 
L 68.968323 244.993939 
L 70.72348 244.440486 
L 72.478636 243.697133 
L 74.233792 242.752727 
L 76.866527 240.999689 
L 82.131996 237.17548 
L 83.887153 236.221644 
L 85.642309 235.622904 
L 87.397466 235.452871 
L 89.152622 235.732988 
L 90.907778 236.428084 
L 92.662935 237.45362 
L 95.295669 239.351979 
L 98.805982 241.915586 
L 100.561139 243.001656 
L 102.316295 243.892603 
L 104.071451 244.579334 
L 105.826608 245.074925 
L 108.459342 245.515593 
L 111.092077 245.67147 
L 113.724812 245.601582 
L 116.357546 245.322995 
L 118.990281 244.823483 
L 121.623015 244.08568 
L 124.25575 243.107591 
L 126.888485 241.907092 
L 129.521219 240.506267 
L 132.153954 238.902374 
L 134.786688 237.037547 
L 136.541845 235.585275 
L 138.297001 233.893045 
L 140.052158 231.873663 
L 141.807314 229.41614 
L 143.562471 226.386767 
L 145.317627 222.634546 
L 147.072783 218.002212 
L 148.82794 212.34268 
L 150.583096 205.539004 
L 152.338253 197.524377 
L 154.093409 188.298107 
L 155.848565 177.934089 
L 158.4813 160.596142 
L 161.991613 135.381841 
L 166.379504 103.94742 
L 168.13466 92.55699 
L 169.889817 82.46628 
L 171.644973 74.134375 
L 172.522551 70.773662 
L 173.400129 68.024248 
L 174.277708 65.936829 
L 175.155286 64.555472 
L 176.032864 63.915477 
L 176.910442 64.04134 
L 177.78802 64.944989 
L 178.665599 66.624449 
L 179.543177 69.063037 
L 180.420755 72.229212 
L 181.298333 76.077103 
L 183.05349 85.570817 
L 184.808646 96.9516 
L 187.441381 116.049394 
L 190.951693 141.876229 
L 193.584428 159.4657 
L 195.339584 169.903954 
L 197.094741 179.257016 
L 198.849897 187.57856 
L 200.605054 194.969769 
L 202.36021 201.549957 
L 204.115367 207.437298 
L 205.870523 212.737674 
L 207.625679 217.538481 
L 210.258414 223.939533 
L 212.01357 227.725972 
L 213.768727 231.141479 
L 215.523883 234.180411 
L 217.27904 236.830836 
L 219.034196 239.083951 
L 220.789352 240.941979 
L 222.544509 242.422671 
L 224.299665 243.559635 
L 226.054822 244.398995 
L 227.809978 244.993804 
L 229.565134 245.397953 
L 232.197869 245.753142 
L 235.708182 245.954835 
L 235.708182 245.954835 
" clip-path="url(#p9a9b045621)" style="fill: none; stroke: #00468b; stroke-opacity: 0.8; stroke-width: 3; stroke-linecap: square"/>
   </g>
   <g id="line2d_15">
    <path d="M 66.019094 245.993331 
L 70.116921 245.814049 
L 72.575617 245.545309 
L 75.034313 245.081371 
L 77.49301 244.395764 
L 84.869098 242.050778 
L 86.508229 241.855479 
L 88.14736 241.882359 
L 89.78649 242.127152 
L 92.245187 242.81294 
L 98.80171 244.969814 
L 101.260406 245.454359 
L 103.719102 245.701284 
L 106.177798 245.722996 
L 108.636494 245.498663 
L 110.275625 245.178836 
L 111.914756 244.690463 
L 113.553887 244.010929 
L 115.193018 243.135892 
L 117.651714 241.524234 
L 121.749541 238.73766 
L 123.388671 237.912952 
L 125.027802 237.382706 
L 126.666933 237.153318 
L 129.125629 237.188462 
L 130.76476 237.221936 
L 132.403891 237.012301 
L 133.223456 236.747611 
L 134.043021 236.343854 
L 134.862587 235.781357 
L 135.682152 235.045355 
L 136.501718 234.126685 
L 138.140848 231.734876 
L 139.779979 228.652914 
L 141.41911 225.012701 
L 143.877806 218.92098 
L 152.893025 195.576956 
L 154.532156 190.231219 
L 156.171287 183.821201 
L 157.810418 176.05197 
L 159.449549 166.714053 
L 161.088679 155.710289 
L 162.72781 143.069347 
L 164.366941 128.953659 
L 166.825637 105.734748 
L 170.923464 66.579766 
L 172.562595 53.368185 
L 173.38216 47.838341 
L 174.201726 43.212963 
L 175.021291 39.619772 
L 175.840856 37.168305 
L 176.660422 35.943423 
L 177.479987 35.999669 
L 178.299552 37.357016 
L 179.119118 39.998459 
L 179.938683 43.869752 
L 180.758249 48.88141 
L 181.577814 54.912865 
L 183.216945 69.435011 
L 185.675641 94.824515 
L 188.953903 128.879972 
L 190.593033 144.090568 
L 192.232164 157.605874 
L 193.871295 169.404917 
L 195.510426 179.613018 
L 197.149556 188.413219 
L 198.788687 195.996907 
L 200.427818 202.549312 
L 202.066949 208.252053 
L 203.70608 213.284336 
L 206.164776 219.933032 
L 208.623472 225.853672 
L 211.082168 231.187831 
L 212.721299 234.370729 
L 214.36043 237.183831 
L 215.99956 239.571971 
L 217.638691 241.507821 
L 219.277822 243.000509 
L 220.916953 244.092765 
L 222.556083 244.850142 
L 224.195214 245.347372 
L 226.65391 245.759724 
L 229.112607 245.938796 
L 229.112607 245.938796 
" clip-path="url(#p9a9b045621)" style="fill: none; stroke: #adb6b6; stroke-opacity: 0.8; stroke-width: 3; stroke-linecap: square"/>
   </g>
   <g id="line2d_16">
    <path d="M 145.226819 246.04 
L 145.226819 25.44 
" clip-path="url(#p9a9b045621)" style="fill: none; stroke-dasharray: 5.55,2.4; stroke-dashoffset: 0; stroke: #000000; stroke-width: 1.5"/>
   </g>
   <g id="line2d_17">
    <path d="M 176.679076 246.04 
L 176.679076 25.44 
" clip-path="url(#p9a9b045621)" style="fill: none; stroke-dasharray: 5.55,2.4; stroke-dashoffset: 0; stroke: #000000; stroke-width: 1.5"/>
   </g>
   <g id="patch_3">
    <path d="M 38.27 246.04 
L 38.27 25.44 
" style="fill: none; stroke: #000000; stroke-width: 0.8; stroke-linejoin: miter; stroke-linecap: square"/>
   </g>
   <g id="patch_4">
    <path d="M 245.11 246.04 
L 245.11 25.44 
" style="fill: none; stroke: #000000; stroke-width: 0.8; stroke-linejoin: miter; stroke-linecap: square"/>
   </g>
   <g id="patch_5">
    <path d="M 38.27 246.04 
L 245.11 246.04 
" style="fill: none; stroke: #000000; stroke-width: 0.8; stroke-linejoin: miter; stroke-linecap: square"/>
   </g>
   <g id="patch_6">
    <path d="M 38.27 25.44 
L 245.11 25.44 
" style="fill: none; stroke: #000000; stroke-width: 0.8; stroke-linejoin: miter; stroke-linecap: square"/>
   </g>
   <g id="text_15">
    <!-- Density for control strains -->
    <g transform="translate(63.898125 19.44) scale(0.12 -0.12)">
     <defs>
      <path id="DejaVuSans-66" d="M 2375 4863 
L 2375 4384 
L 1825 4384 
Q 1516 4384 1395 4259 
Q 1275 4134 1275 3809 
L 1275 3500 
L 2222 3500 
L 2222 3053 
L 1275 3053 
L 1275 0 
L 697 0 
L 697 3053 
L 147 3053 
L 147 3500 
L 697 3500 
L 697 3744 
Q 697 4328 969 4595 
Q 1241 4863 1831 4863 
L 2375 4863 
z
" transform="scale(0.015625)"/>
      <path id="DejaVuSans-6c" d="M 603 4863 
L 1178 4863 
L 1178 0 
L 603 0 
L 603 4863 
z
" transform="scale(0.015625)"/>
     </defs>
     <use xlink:href="#DejaVuSans-44"/>
     <use xlink:href="#DejaVuSans-65" x="77.001953"/>
     <use xlink:href="#DejaVuSans-6e" x="138.525391"/>
     <use xlink:href="#DejaVuSans-73" x="201.904297"/>
     <use xlink:href="#DejaVuSans-69" x="254.003906"/>
     <use xlink:href="#DejaVuSans-74" x="281.787109"/>
     <use xlink:href="#DejaVuSans-79" x="320.996094"/>
     <use xlink:href="#DejaVuSans-20" x="380.175781"/>
     <use xlink:href="#DejaVuSans-66" x="411.962891"/>
     <use xlink:href="#DejaVuSans-6f" x="447.167969"/>
     <use xlink:href="#DejaVuSans-72" x="508.349609"/>
     <use xlink:href="#DejaVuSans-20" x="549.462891"/>
     <use xlink:href="#DejaVuSans-63" x="581.25"/>
     <use xlink:href="#DejaVuSans-6f" x="636.230469"/>
     <use xlink:href="#DejaVuSans-6e" x="697.412109"/>
     <use xlink:href="#DejaVuSans-74" x="760.791016"/>
     <use xlink:href="#DejaVuSans-72" x="800"/>
     <use xlink:href="#DejaVuSans-6f" x="838.863281"/>
     <use xlink:href="#DejaVuSans-6c" x="900.044922"/>
     <use xlink:href="#DejaVuSans-20" x="927.828125"/>
     <use xlink:href="#DejaVuSans-73" x="959.615234"/>
     <use xlink:href="#DejaVuSans-74" x="1011.714844"/>
     <use xlink:href="#DejaVuSans-72" x="1050.923828"/>
     <use xlink:href="#DejaVuSans-61" x="1092.037109"/>
     <use xlink:href="#DejaVuSans-69" x="1153.316406"/>
     <use xlink:href="#DejaVuSans-6e" x="1181.099609"/>
     <use xlink:href="#DejaVuSans-73" x="1244.478516"/>
    </g>
   </g>
   <g id="legend_1">
    <g id="patch_7">
     <path d="M 252.11 77.474375 
L 418.856875 77.474375 
Q 420.856875 77.474375 420.856875 75.474375 
L 420.856875 32.44 
Q 420.856875 30.44 418.856875 30.44 
L 252.11 30.44 
Q 250.11 30.44 250.11 32.44 
L 250.11 75.474375 
Q 250.11 77.474375 252.11 77.474375 
z
" style="fill: #ffffff; opacity: 0.8; stroke: #cccccc; stroke-linejoin: miter"/>
    </g>
    <g id="line2d_18">
     <path d="M 254.11 38.538438 
L 264.11 38.538438 
L 274.11 38.538438 
" style="fill: none; stroke: #ed0000; stroke-opacity: 0.8; stroke-width: 3; stroke-linecap: square"/>
    </g>
    <g id="text_16">
     <!-- SHK0046 -->
     <g transform="translate(282.11 42.038438) scale(0.1 -0.1)">
      <defs>
       <path id="DejaVuSans-53" d="M 3425 4513 
L 3425 3897 
Q 3066 4069 2747 4153 
Q 2428 4238 2131 4238 
Q 1616 4238 1336 4038 
Q 1056 3838 1056 3469 
Q 1056 3159 1242 3001 
Q 1428 2844 1947 2747 
L 2328 2669 
Q 3034 2534 3370 2195 
Q 3706 1856 3706 1288 
Q 3706 609 3251 259 
Q 2797 -91 1919 -91 
Q 1588 -91 1214 -16 
Q 841 59 441 206 
L 441 856 
Q 825 641 1194 531 
Q 1563 422 1919 422 
Q 2459 422 2753 634 
Q 3047 847 3047 1241 
Q 3047 1584 2836 1778 
Q 2625 1972 2144 2069 
L 1759 2144 
Q 1053 2284 737 2584 
Q 422 2884 422 3419 
Q 422 4038 858 4394 
Q 1294 4750 2059 4750 
Q 2388 4750 2728 4690 
Q 3069 4631 3425 4513 
z
" transform="scale(0.015625)"/>
       <path id="DejaVuSans-48" d="M 628 4666 
L 1259 4666 
L 1259 2753 
L 3553 2753 
L 3553 4666 
L 4184 4666 
L 4184 0 
L 3553 0 
L 3553 2222 
L 1259 2222 
L 1259 0 
L 628 0 
L 628 4666 
z
" transform="scale(0.015625)"/>
       <path id="DejaVuSans-4b" d="M 628 4666 
L 1259 4666 
L 1259 2694 
L 3353 4666 
L 4166 4666 
L 1850 2491 
L 4331 0 
L 3500 0 
L 1259 2247 
L 1259 0 
L 628 0 
L 628 4666 
z
" transform="scale(0.015625)"/>
      </defs>
      <use xlink:href="#DejaVuSans-53"/>
      <use xlink:href="#DejaVuSans-48" x="63.476562"/>
      <use xlink:href="#DejaVuSans-4b" x="138.671875"/>
      <use xlink:href="#DejaVuSans-30" x="204.248047"/>
      <use xlink:href="#DejaVuSans-30" x="267.871094"/>
      <use xlink:href="#DejaVuSans-34" x="331.494141"/>
      <use xlink:href="#DejaVuSans-36" x="395.117188"/>
     </g>
    </g>
    <g id="line2d_19">
     <path d="M 254.11 53.216563 
L 264.11 53.216563 
L 274.11 53.216563 
" style="fill: none; stroke: #00468b; stroke-opacity: 0.8; stroke-width: 3; stroke-linecap: square"/>
    </g>
    <g id="text_17">
     <!-- Parent +KanMX (SHK0058) -->
     <g transform="translate(282.11 56.716563) scale(0.1 -0.1)">
      <defs>
       <path id="DejaVuSans-50" d="M 1259 4147 
L 1259 2394 
L 2053 2394 
Q 2494 2394 2734 2622 
Q 2975 2850 2975 3272 
Q 2975 3691 2734 3919 
Q 2494 4147 2053 4147 
L 1259 4147 
z
M 628 4666 
L 2053 4666 
Q 2838 4666 3239 4311 
Q 3641 3956 3641 3272 
Q 3641 2581 3239 2228 
Q 2838 1875 2053 1875 
L 1259 1875 
L 1259 0 
L 628 0 
L 628 4666 
z
" transform="scale(0.015625)"/>
       <path id="DejaVuSans-2b" d="M 2944 4013 
L 2944 2272 
L 4684 2272 
L 4684 1741 
L 2944 1741 
L 2944 0 
L 2419 0 
L 2419 1741 
L 678 1741 
L 678 2272 
L 2419 2272 
L 2419 4013 
L 2944 4013 
z
" transform="scale(0.015625)"/>
       <path id="DejaVuSans-4d" d="M 628 4666 
L 1569 4666 
L 2759 1491 
L 3956 4666 
L 4897 4666 
L 4897 0 
L 4281 0 
L 4281 4097 
L 3078 897 
L 2444 897 
L 1241 4097 
L 1241 0 
L 628 0 
L 628 4666 
z
" transform="scale(0.015625)"/>
       <path id="DejaVuSans-58" d="M 403 4666 
L 1081 4666 
L 2241 2931 
L 3406 4666 
L 4084 4666 
L 2584 2425 
L 4184 0 
L 3506 0 
L 2194 1984 
L 872 0 
L 191 0 
L 1856 2491 
L 403 4666 
z
" transform="scale(0.015625)"/>
       <path id="DejaVuSans-28" d="M 1984 4856 
Q 1566 4138 1362 3434 
Q 1159 2731 1159 2009 
Q 1159 1288 1364 580 
Q 1569 -128 1984 -844 
L 1484 -844 
Q 1016 -109 783 600 
Q 550 1309 550 2009 
Q 550 2706 781 3412 
Q 1013 4119 1484 4856 
L 1984 4856 
z
" transform="scale(0.015625)"/>
       <path id="DejaVuSans-38" d="M 2034 2216 
Q 1584 2216 1326 1975 
Q 1069 1734 1069 1313 
Q 1069 891 1326 650 
Q 1584 409 2034 409 
Q 2484 409 2743 651 
Q 3003 894 3003 1313 
Q 3003 1734 2745 1975 
Q 2488 2216 2034 2216 
z
M 1403 2484 
Q 997 2584 770 2862 
Q 544 3141 544 3541 
Q 544 4100 942 4425 
Q 1341 4750 2034 4750 
Q 2731 4750 3128 4425 
Q 3525 4100 3525 3541 
Q 3525 3141 3298 2862 
Q 3072 2584 2669 2484 
Q 3125 2378 3379 2068 
Q 3634 1759 3634 1313 
Q 3634 634 3220 271 
Q 2806 -91 2034 -91 
Q 1263 -91 848 271 
Q 434 634 434 1313 
Q 434 1759 690 2068 
Q 947 2378 1403 2484 
z
M 1172 3481 
Q 1172 3119 1398 2916 
Q 1625 2713 2034 2713 
Q 2441 2713 2670 2916 
Q 2900 3119 2900 3481 
Q 2900 3844 2670 4047 
Q 2441 4250 2034 4250 
Q 1625 4250 1398 4047 
Q 1172 3844 1172 3481 
z
" transform="scale(0.015625)"/>
       <path id="DejaVuSans-29" d="M 513 4856 
L 1013 4856 
Q 1481 4119 1714 3412 
Q 1947 2706 1947 2009 
Q 1947 1309 1714 600 
Q 1481 -109 1013 -844 
L 513 -844 
Q 928 -128 1133 580 
Q 1338 1288 1338 2009 
Q 1338 2731 1133 3434 
Q 928 4138 513 4856 
z
" transform="scale(0.015625)"/>
      </defs>
      <use xlink:href="#DejaVuSans-50"/>
      <use xlink:href="#DejaVuSans-61" x="55.802734"/>
      <use xlink:href="#DejaVuSans-72" x="117.082031"/>
      <use xlink:href="#DejaVuSans-65" x="155.945312"/>
      <use xlink:href="#DejaVuSans-6e" x="217.46875"/>
      <use xlink:href="#DejaVuSans-74" x="280.847656"/>
      <use xlink:href="#DejaVuSans-20" x="320.056641"/>
      <use xlink:href="#DejaVuSans-2b" x="351.84375"/>
      <use xlink:href="#DejaVuSans-4b" x="435.632812"/>
      <use xlink:href="#DejaVuSans-61" x="499.458984"/>
      <use xlink:href="#DejaVuSans-6e" x="560.738281"/>
      <use xlink:href="#DejaVuSans-4d" x="624.117188"/>
      <use xlink:href="#DejaVuSans-58" x="710.396484"/>
      <use xlink:href="#DejaVuSans-20" x="778.902344"/>
      <use xlink:href="#DejaVuSans-28" x="810.689453"/>
      <use xlink:href="#DejaVuSans-53" x="849.703125"/>
      <use xlink:href="#DejaVuSans-48" x="913.179688"/>
      <use xlink:href="#DejaVuSans-4b" x="988.375"/>
      <use xlink:href="#DejaVuSans-30" x="1053.951172"/>
      <use xlink:href="#DejaVuSans-30" x="1117.574219"/>
      <use xlink:href="#DejaVuSans-35" x="1181.197266"/>
      <use xlink:href="#DejaVuSans-38" x="1244.820312"/>
      <use xlink:href="#DejaVuSans-29" x="1308.443359"/>
     </g>
    </g>
    <g id="line2d_20">
     <path d="M 254.11 67.894688 
L 264.11 67.894688 
L 274.11 67.894688 
" style="fill: none; stroke: #adb6b6; stroke-opacity: 0.8; stroke-width: 3; stroke-linecap: square"/>
    </g>
    <g id="text_18">
     <!-- Parent (SHK0066) -->
     <g transform="translate(282.11 71.394688) scale(0.1 -0.1)">
      <use xlink:href="#DejaVuSans-50"/>
      <use xlink:href="#DejaVuSans-61" x="55.802734"/>
      <use xlink:href="#DejaVuSans-72" x="117.082031"/>
      <use xlink:href="#DejaVuSans-65" x="155.945312"/>
      <use xlink:href="#DejaVuSans-6e" x="217.46875"/>
      <use xlink:href="#DejaVuSans-74" x="280.847656"/>
      <use xlink:href="#DejaVuSans-20" x="320.056641"/>
      <use xlink:href="#DejaVuSans-28" x="351.84375"/>
      <use xlink:href="#DejaVuSans-53" x="390.857422"/>
      <use xlink:href="#DejaVuSans-48" x="454.333984"/>
      <use xlink:href="#DejaVuSans-4b" x="529.529297"/>
      <use xlink:href="#DejaVuSans-30" x="595.105469"/>
      <use xlink:href="#DejaVuSans-30" x="658.728516"/>
      <use xlink:href="#DejaVuSans-36" x="722.351562"/>
      <use xlink:href="#DejaVuSans-36" x="785.974609"/>
      <use xlink:href="#DejaVuSans-29" x="849.597656"/>
     </g>
    </g>
   </g>
  </g>
 </g>
 <defs>
  <clipPath id="p9a9b045621">
   <rect x="38.27" y="25.44" width="206.84" height="220.6"/>
  </clipPath>
 </defs>
</svg>
